<?xml version="1.0" encoding="UTF-8"?>
<svg version="1.0" viewBox="0 0 358.18 89.146" xmlns="http://www.w3.org/2000/svg"><defs><linearGradient id="a" x1="52.391" x2="52.391" y1="89.895" y2="-.1152" gradientUnits="userSpaceOnUse"><stop stop-color="#fff" offset="0"/><stop offset="1"/></linearGradient><linearGradient id="b" x1="52.545" x2="52.545" y1="89.148" y2=".1582" gradientUnits="userSpaceOnUse"><stop stop-color="#fff" offset="0"/><stop offset="1"/></linearGradient><linearGradient id="c" x1="22.411" x2="22.411" y1="89.146" y2=".9043" gradientUnits="userSpaceOnUse"><stop stop-color="#fff" offset="0"/><stop offset="1"/></linearGradient><linearGradient id="d" x1="82.41" x2="82.41" y1="89.146" y2="-1.3928" gradientUnits="userSpaceOnUse"><stop stop-color="#fff" offset="0"/><stop offset="1"/></linearGradient><linearGradient id="e" x1="300.58" x2="300.58" y1="90.025" y2=".1052" gradientUnits="userSpaceOnUse"><stop stop-color="#fff" offset="0"/><stop offset="1"/></linearGradient><linearGradient id="f" x1="327.61" x2="327.61" y1="89.118" y2="-3.2412" gradientUnits="userSpaceOnUse"><stop stop-color="#fff" offset="0"/><stop offset="1"/></linearGradient><linearGradient id="g" x1="239.37" x2="239.37" y1="90.025" y2=".1052" gradientUnits="userSpaceOnUse"><stop stop-color="#fff" offset="0"/><stop offset="1"/></linearGradient><linearGradient id="h" x1="266.4" x2="266.4" y1="89.118" y2="-3.2412" gradientUnits="userSpaceOnUse"><stop stop-color="#fff" offset="0"/><stop offset="1"/></linearGradient><linearGradient id="i" x1="178.19" x2="178.19" y1="90.054" y2=".1335" gradientUnits="userSpaceOnUse"><stop stop-color="#fff" offset="0"/><stop offset="1"/></linearGradient><linearGradient id="j" x1="205.21" x2="205.21" y1="89.146" y2="-3.2129" gradientUnits="userSpaceOnUse"><stop stop-color="#fff" offset="0"/><stop offset="1"/></linearGradient><linearGradient id="k" x1=".3911" x2=".3911" y1="88.684" y2="1.2002" gradientUnits="userSpaceOnUse"><stop stop-color="#fff" offset="0"/><stop offset="1"/></linearGradient><linearGradient id="l" x1="115.62" x2="115.62" y1="88.684" y2="1.2002" gradientUnits="userSpaceOnUse"><stop stop-color="#fff" offset="0"/><stop offset="1"/></linearGradient><linearGradient id="m" x1="104.69" x2="104.69" y1="90.665" y2="-2.3044" gradientUnits="userSpaceOnUse"><stop stop-color="#fff" offset="0"/><stop offset="1"/></linearGradient><linearGradient id="n" x1="138.07" x2="138.07" y1="90.665" y2="-2.3044" gradientUnits="userSpaceOnUse"><stop stop-color="#fff" offset="0"/><stop offset="1"/></linearGradient><linearGradient id="o" x1="169.28" x2="169.28" y1="-12.06" y2="36.101" gradientUnits="userSpaceOnUse"><stop stop-color="#828486" offset="0"/><stop stop-color="#5A5B5D" offset=".3791"/><stop stop-color="#D1D3D4" offset="1"/></linearGradient><linearGradient id="p" x1="52.543" x2="52.543" y1=".2749" y2="93.906" gradientUnits="userSpaceOnUse"><stop stop-color="#1F1F20" offset=".478"/><stop stop-color="#58595B" offset=".8626"/><stop stop-color="#A5A8AA" offset="1"/></linearGradient><linearGradient id="q" x1="126.86" x2="126.86" y1=".2749" y2="93.906" gradientUnits="userSpaceOnUse"><stop stop-color="#1F1F20" offset=".478"/><stop stop-color="#58595B" offset=".8626"/><stop stop-color="#A5A8AA" offset="1"/></linearGradient><linearGradient id="r" x1="314.11" x2="314.11" y1=".2749" y2="93.906" gradientUnits="userSpaceOnUse"><stop stop-color="#1F1F20" offset=".478"/><stop stop-color="#58595B" offset=".8626"/><stop stop-color="#A5A8AA" offset="1"/></linearGradient><linearGradient id="s" x1="252.91" x2="252.91" y1=".2749" y2="93.906" gradientUnits="userSpaceOnUse"><stop stop-color="#1F1F20" offset=".478"/><stop stop-color="#58595B" offset=".8626"/><stop stop-color="#A5A8AA" offset="1"/></linearGradient><linearGradient id="t" x1="191.7" x2="191.7" y1=".2749" y2="93.906" gradientUnits="userSpaceOnUse"><stop stop-color="#1F1F20" offset=".478"/><stop stop-color="#58595B" offset=".8626"/><stop stop-color="#A5A8AA" offset="1"/></linearGradient><linearGradient id="u" x1="283.84" x2="222.33" y1="-.1191" y2="88.794" gradientUnits="userSpaceOnUse"><stop stop-color="#130E1E" offset="0"/><stop stop-color="#1C1426" offset=".0231"/><stop stop-color="#442349" offset=".1446"/><stop stop-color="#652966" offset=".2552"/><stop stop-color="#7C287A" offset=".3511"/><stop stop-color="#8B2688" offset=".4286"/><stop stop-color="#91278F" offset=".478"/><stop stop-color="#ED1C24" offset="1"/></linearGradient><linearGradient id="v" x1="222.63" x2="161.12" y1="-.1221" y2="88.795" gradientUnits="userSpaceOnUse"><stop stop-color="#381F1F" offset="0"/><stop stop-color="#3A1F20" offset=".0017"/><stop stop-color="#5B2926" offset=".0376"/><stop stop-color="#7C2F28" offset=".0757"/><stop stop-color="#9B3029" offset=".1173"/><stop stop-color="#B62E28" offset=".1626"/><stop stop-color="#CC2927" offset=".2129"/><stop stop-color="#DC2325" offset=".271"/><stop stop-color="#E81F25" offset=".3438"/><stop stop-color="#ED1C24" offset=".478"/><stop stop-color="#F7931E" offset="1"/></linearGradient><linearGradient id="w" x1="345.04" x2="283.53" y1="-.1182" y2="88.795" gradientUnits="userSpaceOnUse"><stop stop-color="#39B54A" offset=".478"/><stop stop-color="#1B75BC" offset="1"/></linearGradient></defs><g transform="translate(-23.766 -27.789)"><g transform="translate(23.766 27.789)"><polygon points="270.05 89.146 331.16 0.028 358.17 0.028 297.07 89.146" fill="url(#w)"/><polygon points="147.63 89.146 208.74 0.028 235.76 0.028 174.66 89.146" fill="url(#v)"/><polygon points="208.84 89.146 269.96 0.028 296.97 0.028 235.87 89.146" fill="url(#u)"/><polygon points="235.76 89.146 174.66 0.028 147.64 0.028 208.74 89.146" fill="url(#t)"/><polygon points="296.98 89.146 235.87 0.028 208.84 0.028 269.96 89.146" fill="url(#s)"/><polygon points="358.18 89.146 297.07 0.028 270.05 0.028 331.16 89.146" fill="url(#r)"/><rect x="115.31" y=".028" width="23.115" height="89.118" fill="url(#q)"/><polygon points="22.665 89.146 22.665 36.958 51.941 81.396 52.538 81.396 82.118 36.506 82.118 89.146 105.09 89.146 105.09 0.028 80.171 0.028 52.538 44.465 24.919 0.028 0 0.028 0 89.146" fill="url(#p)"/><path d="m147.64 0.028 28.416 41.447c9.348 0.146 18.55 0.434 27.602 0.843l-28.994-42.29h-27.024zm61.204 0 30.598 44.615c9.984 0.861 19.696 1.875 29.099 3.043l-32.675-47.658h-27.022zm88.226 0h-27.023l36.707 53.517c11.295 2.097 21.933 4.434 31.802 6.973l-41.486-60.49zm-181.76 42.301c7.587-0.347 15.31-0.597 23.115-0.762v-41.539h-23.115v42.301zm-62.769 2.136-27.619-44.437h-24.919v56.41c7.241-1.561 14.806-3.004 22.665-4.344v-15.136l9.002 13.665c14.124-2.196 29.098-4.047 44.772-5.497l5.68-8.62v8.112c7.512-0.645 15.174-1.194 22.969-1.65v-42.94h-24.917l-27.633 44.437z" fill="url(#o)"/><path d="m239.25 44.368 0.188 0.275c9.984 0.861 19.696 1.875 29.099 3.043l-0.208-0.301c-9.372-1.154-19.085-2.159-29.079-3.017zm-239.25 12.07c7.241-1.561 14.806-3.004 22.665-4.344v-1.17c-7.862 1.268-15.449 2.632-22.665 4.103v1.411zm338.35 3.776c-9.795-2.556-20.422-4.915-31.841-7.025l0.246 0.356c11.295 2.097 21.933 4.434 31.802 6.973l-0.207-0.304zm-162.51-19.059 0.218 0.32c9.348 0.146 18.55 0.434 27.602 0.843l-0.2-0.29c-9.046-0.416-18.262-0.707-27.62-0.873zm-60.532 1.174c7.587-0.347 15.31-0.597 23.115-0.762v-0.418c-7.808 0.137-15.521 0.354-23.115 0.665v0.515zm-83.64 8.294c14.124-2.196 29.098-4.047 44.772-5.497l0.511-0.777c-16.125 1.379-31.502 3.152-45.937 5.281l0.654 0.993zm50.451-6.005c7.512-0.645 15.174-1.194 22.969-1.65v-0.574c-7.798 0.42-15.464 0.925-22.969 1.521v0.703z" fill="#fff"/><polygon points="138.42 89.146 138.42 0.028 137.72 0.028" fill="url(#n)"/><polygon points="105.04 89.146 105.04 0.028 104.34 0.028" fill="url(#m)"/><polygon points="115.93 89.146 115.31 0.028 115.31 89.146" fill="url(#l)"/><polygon points="0.704 89.146 0.079 0.028 0.079 89.146" fill="url(#k)"/><polygon points="235.76 89.146 174.66 0.028 235.19 89.146" fill="url(#j)"/><polygon points="148.46 0.028 147.64 0.028 208.74 89.146" fill="url(#i)"/><polygon points="296.95 89.118 235.85 0 296.37 89.118" fill="url(#h)"/><polygon points="209.64 0 208.82 0 269.92 89.118" fill="url(#g)"/><polygon points="358.16 89.118 297.06 0 357.58 89.118" fill="url(#f)"/><polygon points="270.86 0 270.03 0 331.13 89.118" fill="url(#e)"/><polygon points="82.118 36.506 82.118 89.146 82.701 89.146" fill="url(#d)"/><polygon points="22.66 89.146 22.66 36.958 22.163 36.23" fill="url(#c)"/><polygon points="52.541 45.118 80.171 0.028 52.538 44.465 24.919 0.028" fill="url(#b)"/><polygon points="22.665 36.958 51.941 81.396 52.538 81.396 82.118 36.506 52.268 81.076" fill="url(#a)"/></g></g></svg>
