<?xml version="1.0" encoding="UTF-8"?>
<svg version="1.1" viewBox="0 0 286.5 71.307" xmlns="http://www.w3.org/2000/svg"><defs><linearGradient id="SVGID_9_-1" x1="65.429" x2="65.429" y1="172.52" y2="191.13" gradientTransform="matrix(2.0694 0 0 2.0694 2e-6 -366.66)" gradientUnits="userSpaceOnUse"><stop stop-color="#828486" offset="0"/><stop stop-color="#5A5B5D" offset=".3791"/><stop stop-color="#D1D3D4" offset="1"/></linearGradient><linearGradient id="SVGID_1_-1-2" x1="133.36" x2="109.59" y1="177.13" y2="211.5" gradientUnits="userSpaceOnUse"><stop stop-color="#39B54A" offset=".478"/><stop stop-color="#1B75BC" offset="1"/></linearGradient><linearGradient id="SVGID_2_-7-8" x1="86.048" x2="62.274" y1="177.13" y2="211.5" gradientUnits="userSpaceOnUse"><stop stop-color="#381F1F" offset="0"/><stop stop-color="#3A1F20" offset=".0017"/><stop stop-color="#5B2926" offset=".0376"/><stop stop-color="#7C2F28" offset=".0757"/><stop stop-color="#9B3029" offset=".1173"/><stop stop-color="#B62E28" offset=".1626"/><stop stop-color="#CC2927" offset=".2129"/><stop stop-color="#DC2325" offset=".271"/><stop stop-color="#E81F25" offset=".3438"/><stop stop-color="#ED1C24" offset=".478"/><stop stop-color="#F7931E" offset="1"/></linearGradient><linearGradient id="SVGID_3_-6-1" x1="109.71" x2="85.934" y1="177.13" y2="211.5" gradientUnits="userSpaceOnUse"><stop stop-color="#130E1E" offset="0"/><stop stop-color="#1C1426" offset=".0231"/><stop stop-color="#442349" offset=".1446"/><stop stop-color="#652966" offset=".2552"/><stop stop-color="#7C287A" offset=".3511"/><stop stop-color="#8B2688" offset=".4286"/><stop stop-color="#91278F" offset=".478"/><stop stop-color="#ED1C24" offset="1"/></linearGradient><linearGradient id="SVGID_10_-2-3" x1="53.368" x2="53.368" y1="212.22" y2="176.29" gradientUnits="userSpaceOnUse"><stop stop-color="#fff" offset="0"/><stop offset="1"/></linearGradient><linearGradient id="SVGID_11_-3-8" x1="40.463" x2="40.463" y1="212.22" y2="176.29" gradientUnits="userSpaceOnUse"><stop stop-color="#fff" offset="0"/><stop offset="1"/></linearGradient><linearGradient id="SVGID_12_-8-9" x1="44.689" x2="44.689" y1="211.46" y2="177.64" gradientUnits="userSpaceOnUse"><stop stop-color="#fff" offset="0"/><stop offset="1"/></linearGradient><linearGradient id="SVGID_13_-9-0" x1=".1509" x2=".1509" y1="211.46" y2="177.64" gradientUnits="userSpaceOnUse"><stop stop-color="#fff" offset="0"/><stop offset="1"/></linearGradient><linearGradient id="SVGID_14_-2-5" x1="79.318" x2="79.318" y1="211.64" y2="175.94" gradientUnits="userSpaceOnUse"><stop stop-color="#fff" offset="0"/><stop offset="1"/></linearGradient><linearGradient id="SVGID_15_-3-6" x1="68.873" x2="68.873" y1="211.99" y2="177.23" gradientUnits="userSpaceOnUse"><stop stop-color="#fff" offset="0"/><stop offset="1"/></linearGradient><linearGradient id="SVGID_16_-2-5" x1="102.97" x2="102.97" y1="211.62" y2="175.93" gradientUnits="userSpaceOnUse"><stop stop-color="#fff" offset="0"/><stop offset="1"/></linearGradient><linearGradient id="SVGID_17_-8-1" x1="92.521" x2="92.521" y1="211.97" y2="177.22" gradientUnits="userSpaceOnUse"><stop stop-color="#fff" offset="0"/><stop offset="1"/></linearGradient><linearGradient id="SVGID_18_-0-8" x1="126.63" x2="126.63" y1="211.62" y2="175.93" gradientUnits="userSpaceOnUse"><stop stop-color="#fff" offset="0"/><stop offset="1"/></linearGradient><linearGradient id="SVGID_19_-6-1" x1="116.18" x2="116.18" y1="211.97" y2="177.22" gradientUnits="userSpaceOnUse"><stop stop-color="#fff" offset="0"/><stop offset="1"/></linearGradient><linearGradient id="SVGID_20_-1-0" x1="31.853" x2="31.853" y1="211.64" y2="176.64" gradientUnits="userSpaceOnUse"><stop stop-color="#fff" offset="0"/><stop offset="1"/></linearGradient><linearGradient id="SVGID_21_-6-4" x1="8.6626" x2="8.6626" y1="211.64" y2="177.53" gradientUnits="userSpaceOnUse"><stop stop-color="#fff" offset="0"/><stop offset="1"/></linearGradient><linearGradient id="SVGID_22_-5-6" x1="20.31" x2="20.31" y1="211.64" y2="177.24" gradientTransform="matrix(2.0694 0 0 2.0694 2e-6 -366.66)" gradientUnits="userSpaceOnUse"><stop stop-color="#fff" offset="0"/><stop offset="1"/></linearGradient><linearGradient id="SVGID_23_-3-7" x1="20.25" x2="20.25" y1="211.92" y2="177.14" gradientUnits="userSpaceOnUse"><stop stop-color="#fff" offset="0"/><stop offset="1"/></linearGradient><linearGradient id="SVGID_8_-4-7-8" x1="20.309" x2="20.309" y1="177.29" y2="213.48" gradientUnits="userSpaceOnUse"><stop stop-color="#1F1F20" offset=".478"/><stop stop-color="#58595B" offset=".8626"/><stop stop-color="#A5A8AA" offset="1"/></linearGradient><linearGradient id="SVGID_7_-6-1-3" x1="49.035" x2="49.035" y1="177.29" y2="213.48" gradientTransform="matrix(2.3114 0 0 2.3114 14 -381.18)" gradientUnits="userSpaceOnUse"><stop stop-color="#1F1F20" offset=".478"/><stop stop-color="#58595B" offset=".8626"/><stop stop-color="#A5A8AA" offset="1"/></linearGradient><linearGradient id="SVGID_4_-8-6-0" x1="74.096" x2="74.096" y1="177.29" y2="213.48" gradientUnits="userSpaceOnUse"><stop stop-color="#1F1F20" offset=".478"/><stop stop-color="#58595B" offset=".8626"/><stop stop-color="#A5A8AA" offset="1"/></linearGradient><linearGradient id="SVGID_6_-6-1-2" x1="121.41" x2="121.41" y1="177.29" y2="213.48" gradientUnits="userSpaceOnUse"><stop stop-color="#1F1F20" offset=".478"/><stop stop-color="#58595B" offset=".8626"/><stop stop-color="#A5A8AA" offset="1"/></linearGradient><linearGradient id="SVGID_5_-3-4-1" x1="97.754" x2="97.754" y1="177.29" y2="213.48" gradientUnits="userSpaceOnUse"><stop stop-color="#1F1F20" offset=".478"/><stop stop-color="#58595B" offset=".8626"/><stop stop-color="#A5A8AA" offset="1"/></linearGradient></defs><polygon transform="matrix(2.0694 0 0 2.0694 2e-6 -366.66)" points="128 177.19 138.44 177.19 114.82 211.64 104.38 211.64" fill="url(#SVGID_1_-1-2)"/><polygon transform="matrix(2.0694 0 0 2.0694 2e-6 -366.66)" points="80.68 177.19 91.126 177.19 67.51 211.64 57.062 211.64" fill="url(#SVGID_2_-7-8)"/><polygon transform="matrix(2.0694 0 0 2.0694 2e-6 -366.66)" points="104.34 177.19 114.78 177.19 91.167 211.64 80.722 211.64" fill="url(#SVGID_3_-6-1)"/><g transform="matrix(.89531 0 0 .89531 -12.534 -25.387)"><polygon transform="matrix(2.3114 0 0 2.3114 14 -381.18)" points="91.126 211.64 67.51 177.19 57.065 177.19 80.68 211.64" fill="url(#SVGID_4_-8-6-0)"/><polygon transform="matrix(2.3114 0 0 2.3114 14 -381.18)" points="114.79 211.64 91.167 177.19 80.722 177.19 104.34 211.64" fill="url(#SVGID_5_-3-4-1)"/><polygon transform="matrix(2.3114 0 0 2.3114 14 -381.18)" points="138.44 211.64 114.82 177.19 104.38 177.19 128 211.64" fill="url(#SVGID_6_-6-1-2)"/><rect x="117.02" y="28.381" width="20.65" height="79.617" fill="url(#SVGID_7_-6-1-3)" stroke-width="2.3114"/><polygon transform="matrix(2.3114 0 0 2.3114 14 -381.18)" points="31.74 211.64 40.618 211.64 40.618 177.19 30.988 177.19 20.307 194.36 9.631 177.19 0 177.19 0 211.64 8.76 211.64 8.76 191.46 20.076 208.64 20.307 208.64 31.74 191.29" fill="url(#SVGID_8_-4-7-8)"/></g><path d="m118.09 0.022765 22.729 33.153c7.4769 0.11812 14.838 0.34726 22.077 0.67422l-23.19-33.827zm48.957 0 24.475 35.686c7.986 0.68908 15.755 1.5003 23.275 2.4337l-26.135-38.119zm70.57 0h-21.615l29.361 42.806c9.0352 1.6782 17.543 3.547 25.438 5.5771zm-145.39 33.835c6.0697-0.27766 12.245-0.47633 18.488-0.60852v-33.227h-18.488zm-50.207 1.7073-22.093-35.543h-19.931v45.12c5.7924-1.25 11.843-2.4026 18.128-3.4746v-12.108l7.1996 10.931c11.297-1.7591 23.275-3.2366 35.812-4.3976l4.5424-6.8954v6.4898c6.0076-0.51543 12.137-0.95609 18.37-1.3203v-34.345h-19.929z" fill="url(#SVGID_9_-1)" stroke-width="2.0694"/><path d="m191.37 35.489 0.15112 0.2198c7.986 0.68908 15.755 1.5003 23.275 2.4337l-0.16557-0.24c-7.4997-0.92291-15.268-1.7279-23.261-2.4129zm-191.37 9.654c5.7924-1.25 11.843-2.4026 18.128-3.4746v-0.93548c-6.289 1.0141-12.357 2.1067-18.128 3.2821zm270.64 3.0214c-7.8349-2.0446-16.336-3.932-25.469-5.6206l0.19656 0.28553c9.0352 1.6783 17.543 3.547 25.438 5.5771zm-129.99-15.244 0.17378 0.25506c7.4769 0.11812 14.838 0.3473 22.077 0.67422l-0.16143-0.23144c-7.2306-0.33312-14.602-0.56706-22.089-0.69767zm-48.417 0.9375c6.0697-0.27766 12.245-0.47633 18.488-0.60852v-0.33552c-6.2456 0.10956-12.415 0.28314-18.488 0.53186zm-66.901 6.6346c11.297-1.759 23.275-3.2366 35.812-4.3976l0.40766-0.62259c-12.897 1.1031-25.198 2.5227-36.743 4.2258zm40.354-4.8032c6.0076-0.51543 12.137-0.95602 18.37-1.3203v-0.46147c-6.2373 0.33552-12.369 0.73834-18.37 1.2189z" fill="#fff" stroke-width="2.0694"/><polygon transform="matrix(2.0694 0 0 2.0694 2e-6 -366.66)" points="53.502 177.19 53.233 177.19 53.502 211.64" fill="url(#SVGID_10_-2-3)"/><polygon transform="matrix(2.0694 0 0 2.0694 .037257 -366.66)" points="40.598 211.64 40.598 177.19 40.329 177.19" fill="url(#SVGID_11_-3-8)"/><polygon transform="matrix(2.0694 0 0 2.0694 2e-6 -366.66)" points="44.568 177.19 44.568 211.64 44.81 211.64" fill="url(#SVGID_12_-8-9)"/><polygon transform="matrix(2.0694 0 0 2.0694 -.062081 -366.66)" points="0.03 211.64 0.272 211.64 0.03 177.19" fill="url(#SVGID_13_-9-0)"/><g transform="matrix(2.0694 0 0 2.0694 2e-6 -366.66)"><polygon points="67.51 177.19 90.904 211.64 91.126 211.64" fill="url(#SVGID_14_-2-5)"/><polygon points="57.065 177.19 80.68 211.64 57.383 177.19" fill="url(#SVGID_15_-3-6)"/><polygon points="91.158 177.18 114.55 211.62 114.77 211.62" fill="url(#SVGID_16_-2-5)"/><polygon points="80.713 177.18 104.33 211.62 81.031 177.18" fill="url(#SVGID_17_-8-1)"/><polygon points="114.82 177.18 138.21 211.62 138.43 211.62" fill="url(#SVGID_18_-0-8)"/><polygon transform="translate(.005 .011)" points="127.99 211.62 104.69 177.18 104.37 177.18" fill="url(#SVGID_19_-6-1)"/></g><polygon transform="matrix(2.0694 0 0 2.0694 2e-6 -366.66)" points="31.74 211.64 31.965 211.64 31.74 191.29" fill="url(#SVGID_20_-1-0)"/><polygon transform="matrix(2.0694 0 0 2.0694 2e-6 -366.66)" points="8.758 191.46 8.566 191.18 8.758 211.64" fill="url(#SVGID_21_-6-4)"/><path d="m42.024 35.565-22.093-35.543h-0.62401l22.719 36.066 22.102-36.066z" fill="url(#SVGID_22_-5-6)" stroke-width="2.0694"/><polygon transform="matrix(2.0694 0 0 2.0694 2e-6 -366.66)" points="20.307 208.64 31.74 191.29 20.203 208.52 8.76 191.46 20.076 208.64" fill="url(#SVGID_23_-3-7)"/><g fill="#040404"><polygon transform="matrix(0 -2.0694 -.57886 0 186.63 110.74)" points="53.233 177.19 53.502 211.64 53.502 177.19"/><polygon transform="matrix(0 -2.0694 -.53663 0 205.8 110.74)" points="53.502 211.64 53.502 177.19 53.233 177.19"/><g stroke-width="1.0945"><path d="m118.09 0.022761 0.37901 0.5438 21.243-0.5438z"/><path d="m20.268 0.56478-20.268-0.54202h19.94z"/><path d="m167.05 0.022765 0.37901 0.5438 21.243-0.5438z"/><path d="m216 0.022765 0.37901 0.5438 21.243-0.5438z"/></g></g></svg>
