<?xml version="1.0" encoding="UTF-8" standalone="no"?>
<svg
   xmlns:dc="http://purl.org/dc/elements/1.1/"
   xmlns:cc="http://creativecommons.org/ns#"
   xmlns:rdf="http://www.w3.org/1999/02/22-rdf-syntax-ns#"
   xmlns:svg="http://www.w3.org/2000/svg"
   xmlns="http://www.w3.org/2000/svg"
   xmlns:sodipodi="http://sodipodi.sourceforge.net/DTD/sodipodi-0.dtd"
   xmlns:inkscape="http://www.inkscape.org/namespaces/inkscape"
   inkscape:version="1.0 (4035a4fb49, 2020-05-01)"
   sodipodi:docname="github.svg"
   id="svg991"
   version="1.1"
   viewBox="0 0 40 40">
  <metadata
     id="metadata997">
    <rdf:RDF>
      <cc:Work
         rdf:about="">
        <dc:format>image/svg+xml</dc:format>
        <dc:type
           rdf:resource="http://purl.org/dc/dcmitype/StillImage" />
        <dc:title></dc:title>
      </cc:Work>
    </rdf:RDF>
  </metadata>
  <defs
     id="defs995" />
  <sodipodi:namedview
     inkscape:current-layer="g989"
     inkscape:window-maximized="0"
     inkscape:window-y="0"
     inkscape:window-x="0"
     inkscape:cy="20"
     inkscape:cx="19.43958"
     inkscape:zoom="14.275"
     showgrid="false"
     id="namedview993"
     inkscape:window-height="768"
     inkscape:window-width="1366"
     inkscape:pageshadow="2"
     inkscape:pageopacity="0"
     guidetolerance="10"
     gridtolerance="10"
     objecttolerance="10"
     borderopacity="1"
     bordercolor="#666666"
     pagecolor="#ffffff" />
  <g
     id="g989"
     transform="translate(-297.14285,-466.64792)">
    <path
       id="path871"
       d="m 317.73339,467.75239 c -10.71782,0 -19.36955,8.65173 -19.36955,19.36955 0,8.52261 5.55261,15.75391 13.30043,18.33652 1.03304,0.12913 1.2913,-0.3874 1.2913,-0.90392 v -3.35739 c -5.42347,1.16218 -6.58565,-2.5826 -6.58565,-2.5826 -0.90391,-2.19522 -2.19521,-2.84087 -2.19521,-2.84087 -1.80783,-1.16217 0.12913,-1.16217 0.12913,-1.16217 1.93695,0.12913 2.97,1.93695 2.97,1.93695 1.67869,2.97 4.51956,2.06609 5.68173,1.54957 0.12913,-1.29131 0.64565,-2.06609 1.2913,-2.58261 -4.2613,-0.51652 -8.78086,-2.19522 -8.78086,-9.55565 0,-2.06608 0.77478,-3.87391 1.93696,-5.16521 -0.25827,-0.51652 -0.90392,-2.45348 0.12913,-5.16522 0,0 1.67869,-0.51652 5.29434,1.93696 1.54957,-0.38739 3.22826,-0.64565 4.90695,-0.64565 1.6787,0 3.35739,0.25826 4.90696,0.64565 3.74478,-2.45348 5.29434,-1.93696 5.29434,-1.93696 1.03305,2.71174 0.38739,4.6487 0.12913,5.16522 1.29131,1.2913 1.93696,3.09913 1.93696,5.16521 0,7.48956 -4.51956,9.03913 -8.78087,9.55565 0.64566,0.64565 1.29131,1.80782 1.29131,3.61565 v 5.29434 c 0,0.51652 0.38739,1.16218 1.2913,0.90392 7.74782,-2.58261 13.1713,-9.81391 13.1713,-18.33652 0.12913,-10.58869 -8.52261,-19.24042 -19.24043,-19.24042 z"
       fill="#181616"
       clip-rule="evenodd"
       fill-rule="evenodd"
       style="stroke-width:1.2913;fill:#ffffff" />
  </g>
</svg>
