<?xml version="1.0" encoding="UTF-8"?>
<!DOCTYPE svg  PUBLIC '-//W3C//DTD SVG 1.1//EN'  'http://www.w3.org/Graphics/SVG/1.1/DTD/svg11.dtd'>
<svg width="460.8pt" height="345.6pt" version="1.1" viewBox="0 0 460.8 345.6" xmlns="http://www.w3.org/2000/svg" xmlns:xlink="http://www.w3.org/1999/xlink"><defs><style type="text/css">*{stroke-linejoin: round; stroke-linecap: butt}</style></defs><path d="m0 345.6h460.8v-345.6h-460.8v345.6z" fill="none"/><path d="m57.6 307.58h357.12v-266.11h-357.12v266.11z" fill="none"/><defs><path id="m70830c631c" d="m0 0v3.5" stroke="#fff" stroke-width=".8"/></defs><use x="73.832727" y="307.584" fill="#ffffff" stroke="#ffffff" stroke-width=".8" xlink:href="#m70830c631c"/><g transform="translate(58.51 322.18) scale(.1 -.1)" fill="#fff"><defs><path id="DejaVuSans-2212" transform="scale(.015625)" d="m678 2272h4006v-531h-4006v531z"/><path id="DejaVuSans-31" transform="scale(.015625)" d="m794 531h1031v3560l-1122-225v575l1116 225h631v-4135h1031v-531h-2687v531z"/><path id="DejaVuSans-2e" transform="scale(.015625)" d="m684 794h660v-794h-660v794z"/><path id="DejaVuSans-30" transform="scale(.015625)" d="m2034 4250q-487 0-733-480-245-479-245-1442 0-959 245-1439 246-480 733-480 491 0 736 480 246 480 246 1439 0 963-246 1442-245 480-736 480zm0 500q785 0 1199-621 414-620 414-1801 0-1178-414-1799-414-620-1199-620-784 0-1198 620-414 621-414 1799 0 1181 414 1801 414 621 1198 621z"/></defs><use xlink:href="#DejaVuSans-2212"/><use x="83.789062" xlink:href="#DejaVuSans-31"/><use x="147.412109" xlink:href="#DejaVuSans-2e"/><use x="179.199219" xlink:href="#DejaVuSans-30"/><use x="242.822266" xlink:href="#DejaVuSans-30"/></g><use x="114.414545" y="307.584" fill="#ffffff" stroke="#ffffff" stroke-width=".8" xlink:href="#m70830c631c"/><g transform="translate(99.092 322.18) scale(.1 -.1)" fill="#fff"><defs><path id="DejaVuSans-37" transform="scale(.015625)" d="m525 4666h3e3v-269l-1694-4397h-659l1594 4134h-2241v532z"/><path id="DejaVuSans-35" transform="scale(.015625)" d="m691 4666h2478v-532h-1900v-1143q137 47 274 70 138 23 276 23 781 0 1237-428 457-428 457-1159 0-753-469-1171-469-417-1322-417-294 0-599 50-304 50-629 150v635q281-153 581-228t634-75q541 0 856 284 316 284 316 772 0 487-316 771-315 285-856 285-253 0-505-56-251-56-513-175v2344z"/></defs><use xlink:href="#DejaVuSans-2212"/><use x="83.789062" xlink:href="#DejaVuSans-30"/><use x="147.412109" xlink:href="#DejaVuSans-2e"/><use x="179.199219" xlink:href="#DejaVuSans-37"/><use x="242.822266" xlink:href="#DejaVuSans-35"/></g><use x="154.996364" y="307.584" fill="#ffffff" stroke="#ffffff" stroke-width=".8" xlink:href="#m70830c631c"/><g transform="translate(139.67 322.18) scale(.1 -.1)" fill="#fff"><use xlink:href="#DejaVuSans-2212"/><use x="83.789062" xlink:href="#DejaVuSans-30"/><use x="147.412109" xlink:href="#DejaVuSans-2e"/><use x="179.199219" xlink:href="#DejaVuSans-35"/><use x="242.822266" xlink:href="#DejaVuSans-30"/></g><use x="195.578182" y="307.584" fill="#ffffff" stroke="#ffffff" stroke-width=".8" xlink:href="#m70830c631c"/><g transform="translate(180.26 322.18) scale(.1 -.1)" fill="#fff"><defs><path id="DejaVuSans-32" transform="scale(.015625)" d="m1228 531h2203v-531h-2962v531q359 372 979 998 621 627 780 809 303 340 423 576 121 236 121 464 0 372-261 606-261 235-680 235-297 0-627-103-329-103-704-313v638q381 153 712 231 332 78 607 78 725 0 1156-363 431-362 431-968 0-288-108-546-107-257-392-607-78-91-497-524-418-433-1181-1211z"/></defs><use xlink:href="#DejaVuSans-2212"/><use x="83.789062" xlink:href="#DejaVuSans-30"/><use x="147.412109" xlink:href="#DejaVuSans-2e"/><use x="179.199219" xlink:href="#DejaVuSans-32"/><use x="242.822266" xlink:href="#DejaVuSans-35"/></g><use x="236.16" y="307.584" fill="#ffffff" stroke="#ffffff" stroke-width=".8" xlink:href="#m70830c631c"/><g transform="translate(225.03 322.18) scale(.1 -.1)" fill="#fff"><use xlink:href="#DejaVuSans-30"/><use x="63.623047" xlink:href="#DejaVuSans-2e"/><use x="95.410156" xlink:href="#DejaVuSans-30"/><use x="159.033203" xlink:href="#DejaVuSans-30"/></g><use x="276.741818" y="307.584" fill="#ffffff" stroke="#ffffff" stroke-width=".8" xlink:href="#m70830c631c"/><g transform="translate(265.61 322.18) scale(.1 -.1)" fill="#fff"><use xlink:href="#DejaVuSans-30"/><use x="63.623047" xlink:href="#DejaVuSans-2e"/><use x="95.410156" xlink:href="#DejaVuSans-32"/><use x="159.033203" xlink:href="#DejaVuSans-35"/></g><use x="317.323636" y="307.584" fill="#ffffff" stroke="#ffffff" stroke-width=".8" xlink:href="#m70830c631c"/><g transform="translate(306.19 322.18) scale(.1 -.1)" fill="#fff"><use xlink:href="#DejaVuSans-30"/><use x="63.623047" xlink:href="#DejaVuSans-2e"/><use x="95.410156" xlink:href="#DejaVuSans-35"/><use x="159.033203" xlink:href="#DejaVuSans-30"/></g><use x="357.905455" y="307.584" fill="#ffffff" stroke="#ffffff" stroke-width=".8" xlink:href="#m70830c631c"/><g transform="translate(346.77 322.18) scale(.1 -.1)" fill="#fff"><use xlink:href="#DejaVuSans-30"/><use x="63.623047" xlink:href="#DejaVuSans-2e"/><use x="95.410156" xlink:href="#DejaVuSans-37"/><use x="159.033203" xlink:href="#DejaVuSans-35"/></g><use x="398.487273" y="307.584" fill="#ffffff" stroke="#ffffff" stroke-width=".8" xlink:href="#m70830c631c"/><g transform="translate(387.35 322.18) scale(.1 -.1)" fill="#fff"><use xlink:href="#DejaVuSans-31"/><use x="63.623047" xlink:href="#DejaVuSans-2e"/><use x="95.410156" xlink:href="#DejaVuSans-30"/><use x="159.033203" xlink:href="#DejaVuSans-30"/></g><g transform="translate(183.78 335.86) scale(.1 -.1)" fill="#fff"><defs><path id="DejaVuSans-50" transform="scale(.015625)" d="m1259 4147v-1753h794q441 0 681 228 241 228 241 650 0 419-241 647-240 228-681 228h-794zm-631 519h1425q785 0 1186-355 402-355 402-1039 0-691-402-1044-401-353-1186-353h-794v-1875h-631v4666z"/><path id="DejaVuSans-69" transform="scale(.015625)" d="m603 3500h575v-3500h-575v3500zm0 1363h575v-729h-575v729z"/><path id="DejaVuSans-74" transform="scale(.015625)" d="m1172 4494v-994h1184v-447h-1184v-1900q0-428 117-550t477-122h590v-481h-590q-666 0-919 248-253 249-253 905v1900h-422v447h422v994h578z"/><path id="DejaVuSans-63" transform="scale(.015625)" d="m3122 3366v-538q-244 135-489 202t-495 67q-560 0-870-355-309-354-309-995t309-996q310-354 870-354 250 0 495 67t489 202v-532q-241-112-499-168-257-57-548-57-791 0-1257 497-465 497-465 1341 0 856 470 1346 471 491 1290 491 265 0 518-55 253-54 491-163z"/><path id="DejaVuSans-68" transform="scale(.015625)" d="m3513 2113v-2113h-575v2094q0 497-194 743-194 247-581 247-466 0-735-297-269-296-269-809v-1978h-578v4863h578v-1907q207 316 486 472 280 156 646 156 603 0 912-373 310-373 310-1098z"/><path id="DejaVuSans-76" transform="scale(.015625)" d="m191 3500h609l1094-2937 1094 2937h609l-1313-3500h-781l-1312 3500z"/><path id="DejaVuSans-61" transform="scale(.015625)" d="m2194 1759q-697 0-966-159t-269-544q0-306 202-486 202-179 548-179 479 0 768 339t289 901v128h-572zm1147 238v-1997h-575v531q-197-318-491-470t-719-152q-537 0-855 302-317 302-317 808 0 590 395 890 396 300 1180 300h807v57q0 397-261 614t-733 217q-300 0-585-72-284-72-546-216v532q315 122 612 182 297 61 578 61 760 0 1135-394 375-393 375-1193z"/><path id="DejaVuSans-6c" transform="scale(.015625)" d="m603 4863h575v-4863h-575v4863z"/><path id="DejaVuSans-75" transform="scale(.015625)" d="m544 1381v2119h575v-2097q0-497 193-746 194-248 582-248 465 0 735 297 271 297 271 810v1984h575v-3500h-575v538q-209-319-486-474-276-155-642-155-603 0-916 375-312 375-312 1097z"/><path id="DejaVuSans-65" transform="scale(.015625)" d="m3597 1894v-281h-2644q38-594 358-905t892-311q331 0 642 81t618 244v-544q-310-131-635-200t-659-69q-838 0-1327 487-489 488-489 1320 0 859 464 1363 464 505 1252 505 706 0 1117-455 411-454 411-1235zm-575 169q-6 471-264 752-258 282-683 282-481 0-770-272t-333-766l2050 4z"/><path id="DejaVuSans-5b" transform="scale(.015625)" d="m550 4863h1325v-447h-750v-4813h750v-447h-1325v5707z"/><path id="DejaVuSans-6f" transform="scale(.015625)" d="m1959 3097q-462 0-731-361t-269-989 267-989q268-361 733-361 460 0 728 362 269 363 269 988 0 622-269 986-268 364-728 364zm0 487q750 0 1178-488 429-487 429-1349 0-859-429-1349-428-489-1178-489-753 0-1180 489-426 490-426 1349 0 862 426 1349 427 488 1180 488z"/><path id="DejaVuSans-73" transform="scale(.015625)" d="m2834 3397v-544q-243 125-506 187-262 63-544 63-428 0-642-131t-214-394q0-200 153-314t616-217l197-44q612-131 870-370t258-667q0-488-386-773-386-284-1061-284-281 0-586 55t-642 164v594q319-166 628-249 309-82 613-82 406 0 624 139 219 139 219 392 0 234-158 359-157 125-692 241l-200 47q-534 112-772 345-237 233-237 639 0 494 350 762 350 269 994 269 318 0 599-47 282-46 519-140z"/><path id="DejaVuSans-5d" transform="scale(.015625)" d="m1947 4863v-5707h-1325v447h747v4813h-747v447h1325z"/></defs><use xlink:href="#DejaVuSans-50"/><use x="58.052734" xlink:href="#DejaVuSans-69"/><use x="85.835938" xlink:href="#DejaVuSans-74"/><use x="125.044922" xlink:href="#DejaVuSans-63"/><use x="180.025391" xlink:href="#DejaVuSans-68"/><use x="243.404297" xlink:href="#DejaVuSans-20"/><use x="275.191406" xlink:href="#DejaVuSans-76"/><use x="334.371094" xlink:href="#DejaVuSans-61"/><use x="395.650391" xlink:href="#DejaVuSans-6c"/><use x="423.433594" xlink:href="#DejaVuSans-75"/><use x="486.8125" xlink:href="#DejaVuSans-65"/><use x="548.335938" xlink:href="#DejaVuSans-20"/><use x="580.123047" xlink:href="#DejaVuSans-5b"/><use x="619.136719" xlink:href="#DejaVuSans-6f"/><use x="680.318359" xlink:href="#DejaVuSans-63"/><use x="735.298828" xlink:href="#DejaVuSans-74"/><use x="774.507812" xlink:href="#DejaVuSans-61"/><use x="835.787109" xlink:href="#DejaVuSans-76"/><use x="894.966797" xlink:href="#DejaVuSans-65"/><use x="956.490234" xlink:href="#DejaVuSans-73"/><use x="1008.589844" xlink:href="#DejaVuSans-5d"/></g><defs><path id="mb2f1b6805c" d="m0 0h-3.5" stroke="#fff" stroke-width=".8"/></defs><use x="57.6" y="307.584" fill="#ffffff" stroke="#ffffff" stroke-width=".8" xlink:href="#mb2f1b6805c"/><g transform="translate(44.238 311.38) scale(.1 -.1)" fill="#fff"><use xlink:href="#DejaVuSans-30"/></g><use x="57.6" y="271.672661" fill="#ffffff" stroke="#ffffff" stroke-width=".8" xlink:href="#mb2f1b6805c"/><g transform="translate(25.15 275.47) scale(.1 -.1)" fill="#fff"><use xlink:href="#DejaVuSans-31"/><use x="63.623047" xlink:href="#DejaVuSans-30"/><use x="127.246094" xlink:href="#DejaVuSans-30"/><use x="190.869141" xlink:href="#DejaVuSans-30"/></g><use x="57.6" y="235.761322" fill="#ffffff" stroke="#ffffff" stroke-width=".8" xlink:href="#mb2f1b6805c"/><g transform="translate(25.15 239.56) scale(.1 -.1)" fill="#fff"><use xlink:href="#DejaVuSans-32"/><use x="63.623047" xlink:href="#DejaVuSans-30"/><use x="127.246094" xlink:href="#DejaVuSans-30"/><use x="190.869141" xlink:href="#DejaVuSans-30"/></g><use x="57.6" y="199.849983" fill="#ffffff" stroke="#ffffff" stroke-width=".8" xlink:href="#mb2f1b6805c"/><g transform="translate(25.15 203.65) scale(.1 -.1)" fill="#fff"><defs><path id="DejaVuSans-33" transform="scale(.015625)" d="m2597 2516q453-97 707-404 255-306 255-756 0-690-475-1069-475-378-1350-378-293 0-604 58t-642 174v609q262-153 574-231 313-78 654-78 593 0 904 234t311 681q0 413-289 645-289 233-804 233h-544v519h569q465 0 712 186t247 536q0 359-255 551-254 193-729 193-260 0-557-57-297-56-653-174v562q360 100 674 150t592 50q719 0 1137-327 419-326 419-882 0-388-222-655t-631-370z"/></defs><use xlink:href="#DejaVuSans-33"/><use x="63.623047" xlink:href="#DejaVuSans-30"/><use x="127.246094" xlink:href="#DejaVuSans-30"/><use x="190.869141" xlink:href="#DejaVuSans-30"/></g><use x="57.6" y="163.938644" fill="#ffffff" stroke="#ffffff" stroke-width=".8" xlink:href="#mb2f1b6805c"/><g transform="translate(25.15 167.74) scale(.1 -.1)" fill="#fff"><defs><path id="DejaVuSans-34" transform="scale(.015625)" d="m2419 4116-1594-2491h1594v2491zm-166 550h794v-3041h666v-525h-666v-1100h-628v1100h-2106v609l1940 2957z"/></defs><use xlink:href="#DejaVuSans-34"/><use x="63.623047" xlink:href="#DejaVuSans-30"/><use x="127.246094" xlink:href="#DejaVuSans-30"/><use x="190.869141" xlink:href="#DejaVuSans-30"/></g><use x="57.6" y="128.027305" fill="#ffffff" stroke="#ffffff" stroke-width=".8" xlink:href="#mb2f1b6805c"/><g transform="translate(25.15 131.83) scale(.1 -.1)" fill="#fff"><use xlink:href="#DejaVuSans-35"/><use x="63.623047" xlink:href="#DejaVuSans-30"/><use x="127.246094" xlink:href="#DejaVuSans-30"/><use x="190.869141" xlink:href="#DejaVuSans-30"/></g><use x="57.6" y="92.115966" fill="#ffffff" stroke="#ffffff" stroke-width=".8" xlink:href="#mb2f1b6805c"/><g transform="translate(25.15 95.915) scale(.1 -.1)" fill="#fff"><defs><path id="DejaVuSans-36" transform="scale(.015625)" d="m2113 2584q-425 0-674-291-248-290-248-796 0-503 248-796 249-292 674-292t673 292q248 293 248 796 0 506-248 796-248 291-673 291zm1253 1979v-575q-238 112-480 171-242 60-480 60-625 0-955-422-329-422-376-1275 184 272 462 417 279 145 613 145 703 0 1111-427 408-426 408-1160 0-719-425-1154-425-434-1131-434-810 0-1238 620-428 621-428 1799 0 1106 525 1764t1409 658q238 0 480-47t505-140z"/></defs><use xlink:href="#DejaVuSans-36"/><use x="63.623047" xlink:href="#DejaVuSans-30"/><use x="127.246094" xlink:href="#DejaVuSans-30"/><use x="190.869141" xlink:href="#DejaVuSans-30"/></g><use x="57.6" y="56.204627" fill="#ffffff" stroke="#ffffff" stroke-width=".8" xlink:href="#mb2f1b6805c"/><g transform="translate(25.15 60.004) scale(.1 -.1)" fill="#fff"><use xlink:href="#DejaVuSans-37"/><use x="63.623047" xlink:href="#DejaVuSans-30"/><use x="127.246094" xlink:href="#DejaVuSans-30"/><use x="190.869141" xlink:href="#DejaVuSans-30"/></g><g transform="translate(19.07 227.92) rotate(-90) scale(.1 -.1)" fill="#fff"><defs><path id="DejaVuSans-47" transform="scale(.015625)" d="m3809 666v1253h-1031v519h1656v-2004q-365-259-806-392-440-133-940-133-1094 0-1712 639-617 640-617 1780 0 1144 617 1783 618 639 1712 639 456 0 867-113 411-112 758-331v-672q-350 297-744 447t-828 150q-857 0-1287-478-429-478-429-1425 0-944 429-1422 430-478 1287-478 334 0 596 58 263 58 472 180z"/><path id="DejaVuSans-72" transform="scale(.015625)" d="m2631 2963q-97 56-211 82-114 27-251 27-488 0-749-317t-261-911v-1844h-578v3500h578v-544q182 319 472 473 291 155 707 155 59 0 131-8 72-7 159-23l3-590z"/><path id="DejaVuSans-70" transform="scale(.015625)" d="m1159 525v-1856h-578v4831h578v-531q182 312 458 463 277 152 661 152 638 0 1036-506 399-506 399-1331t-399-1332q-398-506-1036-506-384 0-661 152-276 152-458 464zm1957 1222q0 634-261 995t-717 361q-457 0-718-361t-261-995 261-995 718-361q456 0 717 361t261 995z"/><path id="DejaVuSans-64" transform="scale(.015625)" d="m2906 2969v1894h575v-4863h-575v525q-181-312-458-464-276-152-664-152-634 0-1033 506-398 507-398 1332t398 1331q399 506 1033 506 388 0 664-152 277-151 458-463zm-1959-1222q0-634 261-995t717-361 718 361q263 361 263 995t-263 995q-262 361-718 361t-717-361-261-995z"/><path id="DejaVuSans-79" transform="scale(.015625)" d="m2059-325q-243-625-475-815-231-191-618-191h-460v481h338q237 0 368 113 132 112 291 531l103 262-1415 3444h609l1094-2737 1094 2737h609l-1538-3825z"/><path id="DejaVuSans-66" transform="scale(.015625)" d="m2375 4863v-479h-550q-309 0-430-125-120-125-120-450v-309h947v-447h-947v-3053h-578v3053h-550v447h550v244q0 584 272 851 272 268 862 268h544z"/><path id="DejaVuSans-6d" transform="scale(.015625)" d="m3328 2828q216 388 516 572t706 184q547 0 844-383 297-382 297-1088v-2113h-578v2094q0 503-179 746-178 244-543 244-447 0-707-297-259-296-259-809v-1978h-578v2094q0 506-178 748t-550 242q-441 0-701-298-259-298-259-808v-1978h-578v3500h578v-544q197 322 472 475t653 153q382 0 649-194 267-193 395-562z"/></defs><use xlink:href="#DejaVuSans-47"/><use x="77.490234" xlink:href="#DejaVuSans-72"/><use x="116.353516" xlink:href="#DejaVuSans-6f"/><use x="177.535156" xlink:href="#DejaVuSans-75"/><use x="240.914062" xlink:href="#DejaVuSans-70"/><use x="304.390625" xlink:href="#DejaVuSans-20"/><use x="336.177734" xlink:href="#DejaVuSans-64"/><use x="399.654297" xlink:href="#DejaVuSans-65"/><use x="461.177734" xlink:href="#DejaVuSans-6c"/><use x="488.960938" xlink:href="#DejaVuSans-61"/><use x="550.240234" xlink:href="#DejaVuSans-79"/><use x="609.419922" xlink:href="#DejaVuSans-20"/><use x="641.207031" xlink:href="#DejaVuSans-5b"/><use x="680.220703" xlink:href="#DejaVuSans-66"/><use x="715.425781" xlink:href="#DejaVuSans-72"/><use x="756.539062" xlink:href="#DejaVuSans-61"/><use x="817.818359" xlink:href="#DejaVuSans-6d"/><use x="915.230469" xlink:href="#DejaVuSans-65"/><use x="976.753906" xlink:href="#DejaVuSans-73"/><use x="1028.853516" xlink:href="#DejaVuSans-5d"/></g><defs><path id="m8dd9bebd0f" d="m0-3-0.67354 2.0729h-2.1796l1.7634 1.2812-0.67354 2.0729 1.7634-1.2812 1.7634 1.2812-0.67354-2.0729 1.7634-1.2812h-2.1796z" stroke="#008000" stroke-linejoin="bevel"/></defs><g clip-path="url(#pd578aad5f6)" fill="#008000" stroke="#008000" stroke-linejoin="bevel"><use x="73.832727" y="185.593181" xlink:href="#m8dd9bebd0f"/><use x="236.16" y="178.877761" xlink:href="#m8dd9bebd0f"/><use x="398.487273" y="73.513892" xlink:href="#m8dd9bebd0f"/></g><defs><path id="ma274178e31" d="m0 3c0.79561 0 1.5587-0.3161 2.1213-0.87868 0.56258-0.56258 0.87868-1.3257 0.87868-2.1213s-0.3161-1.5587-0.87868-2.1213c-0.56258-0.56258-1.3257-0.87868-2.1213-0.87868s-1.5587 0.3161-2.1213 0.87868c-0.56258 0.56258-0.87868 1.3257-0.87868 2.1213s0.3161 1.5587 0.87868 2.1213c0.56258 0.56258 1.3257 0.87868 2.1213 0.87868z" stroke="#00f"/></defs><g clip-path="url(#pd578aad5f6)" fill="#00f" stroke="#00f"><use x="73.832727" y="87.196112" xlink:href="#ma274178e31"/><use x="236.16" y="50.171522" xlink:href="#ma274178e31"/><use x="398.487273" y="100.483308" xlink:href="#ma274178e31"/></g><defs><path id="m1c07339221" d="m0 3c0.79561 0 1.5587-0.3161 2.1213-0.87868 0.56258-0.56258 0.87868-1.3257 0.87868-2.1213s-0.3161-1.5587-0.87868-2.1213c-0.56258-0.56258-1.3257-0.87868-2.1213-0.87868s-1.5587 0.3161-2.1213 0.87868c-0.56258 0.56258-0.87868 1.3257-0.87868 2.1213s0.3161 1.5587 0.87868 2.1213c0.56258 0.56258 1.3257 0.87868 2.1213 0.87868z" stroke="#bfbf00"/></defs><g clip-path="url(#pd578aad5f6)" fill="#bfbf00" stroke="#bfbf00"><use x="73.832727" y="214.214519" xlink:href="#m1c07339221"/><use x="236.16" y="197.264367" xlink:href="#m1c07339221"/><use x="398.487273" y="224.161959" xlink:href="#m1c07339221"/></g><path d="m57.6 307.58v-266.11" fill="none" stroke="#fff" stroke-linecap="square" stroke-width=".8"/><path d="m414.72 307.58v-266.11" fill="none" stroke="#fff" stroke-linecap="square" stroke-width=".8"/><path d="m57.6 307.58h357.12" fill="none" stroke="#fff" stroke-linecap="square" stroke-width=".8"/><path d="m57.6 41.472h357.12" fill="none" stroke="#fff" stroke-linecap="square" stroke-width=".8"/><g transform="translate(47.128 35.472) scale(.12 -.12)" fill="#fff"><defs><path id="DejaVuSans-43" transform="scale(.015625)" d="m4122 4306v-665q-319 297-680 443-361 147-767 147-800 0-1225-489t-425-1414q0-922 425-1411t1225-489q406 0 767 147t680 444v-660q-331-225-702-338-370-112-782-112-1060 0-1670 648-609 649-609 1771 0 1125 609 1773 610 649 1670 649 418 0 788-111 371-111 696-333z"/><path id="DejaVuSans-6e" transform="scale(.015625)" d="m3513 2113v-2113h-575v2094q0 497-194 743-194 247-581 247-466 0-735-297-269-296-269-809v-1978h-578v3500h578v-544q207 316 486 472 280 156 646 156 603 0 912-373 310-373 310-1098z"/><path id="DejaVuSans-67" transform="scale(.015625)" d="m2906 1791q0 625-258 968-257 344-723 344-462 0-720-344-258-343-258-968 0-622 258-966t720-344q466 0 723 344 258 344 258 966zm575-1357q0-893-397-1329-396-436-1215-436-303 0-572 45t-522 139v559q253-137 500-202 247-66 503-66 566 0 847 295t281 892v285q-178-310-456-463t-666-153q-643 0-1037 490-394 491-394 1301 0 812 394 1302 394 491 1037 491 388 0 666-153t456-462v531h575v-3066z"/><path id="DejaVuSans-52" transform="scale(.015625)" d="m2841 2188q203-69 395-294t386-619l641-1275h-679l-596 1197q-232 469-449 622t-592 153h-688v-1972h-631v4666h1425q800 0 1194-335 394-334 394-1009 0-441-205-732-205-290-595-402zm-1582 1959v-1656h794q456 0 689 211t233 620-233 617-689 208h-794z"/><path id="DejaVuSans-62" transform="scale(.015625)" d="m3116 1747q0 634-261 995t-717 361q-457 0-718-361t-261-995 261-995 718-361q456 0 717 361t261 995zm-1957 1222q182 312 458 463 277 152 661 152 638 0 1036-506 399-506 399-1331t-399-1332q-398-506-1036-506-384 0-661 152-276 152-458 464v-525h-578v4863h578v-1894z"/><path id="DejaVuSans-42" transform="scale(.015625)" d="m1259 2228v-1709h1013q509 0 754 211 246 211 246 645 0 438-246 645-245 208-754 208h-1013zm0 1919v-1406h935q462 0 688 173 227 174 227 530 0 353-227 528-226 175-688 175h-935zm-631 519h1613q722 0 1112-300 391-300 391-853 0-429-200-682t-588-315q466-100 724-418 258-317 258-792 0-625-425-966-425-340-1210-340h-1675v4666z"/><path id="DejaVuSans-27" transform="scale(.015625)" d="m1147 4666v-1735h-531v1735h531z"/></defs><use xlink:href="#DejaVuSans-43"/><use x="69.824219" xlink:href="#DejaVuSans-6f"/><use x="131.005859" xlink:href="#DejaVuSans-6d"/><use x="228.417969" xlink:href="#DejaVuSans-70"/><use x="291.894531" xlink:href="#DejaVuSans-61"/><use x="353.173828" xlink:href="#DejaVuSans-72"/><use x="394.287109" xlink:href="#DejaVuSans-69"/><use x="422.070312" xlink:href="#DejaVuSans-6e"/><use x="485.449219" xlink:href="#DejaVuSans-67"/><use x="548.925781" xlink:href="#DejaVuSans-20"/><use x="580.712891" xlink:href="#DejaVuSans-52"/><use x="645.695312" xlink:href="#DejaVuSans-75"/><use x="709.074219" xlink:href="#DejaVuSans-62"/><use x="772.550781" xlink:href="#DejaVuSans-62"/><use x="836.027344" xlink:href="#DejaVuSans-65"/><use x="897.550781" xlink:href="#DejaVuSans-72"/><use x="938.664062" xlink:href="#DejaVuSans-42"/><use x="1007.267578" xlink:href="#DejaVuSans-61"/><use x="1068.546875" xlink:href="#DejaVuSans-6e"/><use x="1131.925781" xlink:href="#DejaVuSans-64"/><use x="1195.402344" xlink:href="#DejaVuSans-27"/><use x="1222.892578" xlink:href="#DejaVuSans-73"/><use x="1274.992188" xlink:href="#DejaVuSans-20"/><use x="1306.779297" xlink:href="#DejaVuSans-70"/><use x="1370.255859" xlink:href="#DejaVuSans-75"/><use x="1433.634766" xlink:href="#DejaVuSans-73"/><use x="1485.734375" xlink:href="#DejaVuSans-68"/><use x="1549.113281" xlink:href="#DejaVuSans-20"/><use x="1580.900391" xlink:href="#DejaVuSans-61"/><use x="1642.179688" xlink:href="#DejaVuSans-6e"/><use x="1705.558594" xlink:href="#DejaVuSans-64"/><use x="1769.035156" xlink:href="#DejaVuSans-20"/><use x="1800.822266" xlink:href="#DejaVuSans-70"/><use x="1864.298828" xlink:href="#DejaVuSans-75"/><use x="1927.677734" xlink:href="#DejaVuSans-6c"/><use x="1955.460938" xlink:href="#DejaVuSans-6c"/><use x="1983.244141" xlink:href="#DejaVuSans-20"/><use x="2015.03125" xlink:href="#DejaVuSans-6d"/><use x="2112.443359" xlink:href="#DejaVuSans-6f"/><use x="2173.625" xlink:href="#DejaVuSans-64"/><use x="2237.101562" xlink:href="#DejaVuSans-65"/><use x="2298.625" xlink:href="#DejaVuSans-6c"/><use x="2326.408203" xlink:href="#DejaVuSans-20"/><use x="2358.195312" xlink:href="#DejaVuSans-69"/><use x="2385.978516" xlink:href="#DejaVuSans-6d"/><use x="2483.390625" xlink:href="#DejaVuSans-70"/><use x="2546.867188" xlink:href="#DejaVuSans-6c"/><use x="2574.650391" xlink:href="#DejaVuSans-65"/><use x="2636.173828" xlink:href="#DejaVuSans-6d"/><use x="2733.585938" xlink:href="#DejaVuSans-65"/><use x="2795.109375" xlink:href="#DejaVuSans-6e"/><use x="2858.488281" xlink:href="#DejaVuSans-74"/><use x="2897.697266" xlink:href="#DejaVuSans-61"/><use x="2958.976562" xlink:href="#DejaVuSans-74"/><use x="2998.185547" xlink:href="#DejaVuSans-69"/><use x="3025.96875" xlink:href="#DejaVuSans-6f"/><use x="3087.150391" xlink:href="#DejaVuSans-6e"/></g><path d="m64.6 302.58h120.99q2 0 2-2v-43.034q0-2-2-2h-120.99q-2 0-2 2v43.034q0 2 2 2z" opacity=".8" stroke="#ccc"/><use x="76.6" y="263.648062" fill="#008000" stroke="#008000" stroke-linejoin="bevel" xlink:href="#m8dd9bebd0f"/><g transform="translate(94.6 267.15) scale(.1 -.1)" fill="#fff"><use xlink:href="#DejaVuSans-70"/><use x="63.476562" xlink:href="#DejaVuSans-75"/><use x="126.855469" xlink:href="#DejaVuSans-73"/><use x="178.955078" xlink:href="#DejaVuSans-68"/><use x="242.333984" xlink:href="#DejaVuSans-20"/><use x="274.121094" xlink:href="#DejaVuSans-6d"/><use x="371.533203" xlink:href="#DejaVuSans-6f"/><use x="432.714844" xlink:href="#DejaVuSans-64"/><use x="496.191406" xlink:href="#DejaVuSans-65"/><use x="557.714844" xlink:href="#DejaVuSans-6c"/></g><use x="76.6" y="278.326188" fill="#0000ff" stroke="#0000ff" xlink:href="#ma274178e31"/><g transform="translate(94.6 281.83) scale(.1 -.1)" fill="#fff"><defs><path id="DejaVuSans-28" transform="scale(.015625)" d="m1984 4856q-418-718-622-1422-203-703-203-1425 0-721 205-1429t620-1424h-500q-468 735-701 1444t-233 1409q0 697 231 1403 232 707 703 1444h500z"/><path id="DejaVuSans-38" transform="scale(.015625)" d="m2034 2216q-450 0-708-241-257-241-257-662 0-422 257-663 258-241 708-241t709 242q260 243 260 662 0 421-258 662-257 241-711 241zm-631 268q-406 100-633 378-226 279-226 679 0 559 398 884 399 325 1092 325 697 0 1094-325t397-884q0-400-227-679-226-278-629-378 456-106 710-416 255-309 255-755 0-679-414-1042-414-362-1186-362-771 0-1186 362-414 363-414 1042 0 446 256 755 257 310 713 416zm-231 997q0-362 226-565 227-203 636-203 407 0 636 203 230 203 230 565 0 363-230 566-229 203-636 203-409 0-636-203-226-203-226-566z"/><path id="DejaVuSans-39" transform="scale(.015625)" d="m703 97v575q238-113 481-172 244-59 479-59 625 0 954 420 330 420 377 1277-181-269-460-413-278-144-615-144-700 0-1108 423-408 424-408 1159 0 718 425 1152 425 435 1131 435 810 0 1236-621 427-620 427-1801 0-1103-524-1761-523-658-1407-658-238 0-482 47-243 47-506 141zm1256 1978q425 0 673 290 249 291 249 798 0 503-249 795-248 292-673 292t-673-292-248-795q0-507 248-798 248-290 673-290z"/><path id="DejaVuSans-29" transform="scale(.015625)" d="m513 4856h500q468-737 701-1444 233-706 233-1403 0-700-233-1409t-701-1444h-500q415 716 620 1424t205 1429q0 722-205 1425-205 704-620 1422z"/></defs><use xlink:href="#DejaVuSans-70"/><use x="63.476562" xlink:href="#DejaVuSans-75"/><use x="126.855469" xlink:href="#DejaVuSans-6c"/><use x="154.638672" xlink:href="#DejaVuSans-6c"/><use x="182.421875" xlink:href="#DejaVuSans-20"/><use x="214.208984" xlink:href="#DejaVuSans-6d"/><use x="311.621094" xlink:href="#DejaVuSans-6f"/><use x="372.802734" xlink:href="#DejaVuSans-64"/><use x="436.279297" xlink:href="#DejaVuSans-65"/><use x="497.802734" xlink:href="#DejaVuSans-6c"/><use x="525.585938" xlink:href="#DejaVuSans-20"/><use x="557.373047" xlink:href="#DejaVuSans-28"/><use x="596.386719" xlink:href="#DejaVuSans-38"/><use x="660.009766" xlink:href="#DejaVuSans-31"/><use x="723.632812" xlink:href="#DejaVuSans-39"/><use x="787.255859" xlink:href="#DejaVuSans-32"/><use x="850.878906" xlink:href="#DejaVuSans-29"/></g><use x="76.6" y="293.004312" fill="#bfbf00" stroke="#bfbf00" xlink:href="#m1c07339221"/><g transform="translate(94.6 296.5) scale(.1 -.1)" fill="#fff"><use xlink:href="#DejaVuSans-70"/><use x="63.476562" xlink:href="#DejaVuSans-75"/><use x="126.855469" xlink:href="#DejaVuSans-6c"/><use x="154.638672" xlink:href="#DejaVuSans-6c"/><use x="182.421875" xlink:href="#DejaVuSans-20"/><use x="214.208984" xlink:href="#DejaVuSans-6d"/><use x="311.621094" xlink:href="#DejaVuSans-6f"/><use x="372.802734" xlink:href="#DejaVuSans-64"/><use x="436.279297" xlink:href="#DejaVuSans-65"/><use x="497.802734" xlink:href="#DejaVuSans-6c"/><use x="525.585938" xlink:href="#DejaVuSans-20"/><use x="557.373047" xlink:href="#DejaVuSans-28"/><use x="596.386719" xlink:href="#DejaVuSans-34"/><use x="660.009766" xlink:href="#DejaVuSans-30"/><use x="723.632812" xlink:href="#DejaVuSans-39"/><use x="787.255859" xlink:href="#DejaVuSans-36"/><use x="850.878906" xlink:href="#DejaVuSans-29"/></g><defs><clipPath id="pd578aad5f6"><rect x="57.6" y="41.472" width="357.12" height="266.11"/></clipPath></defs></svg>
