<?xml version="1.0" encoding="UTF-8"?>
<svg width="196.83mm" height="97.369mm" version="1.1" viewBox="0 0 196.83 97.369" xmlns="http://www.w3.org/2000/svg"><defs><clipPath id="pfe6369485a"><rect x="788.73" y="349.92" width="507.27" height="226.8"/></clipPath></defs><g transform="translate(7.3603,-50.411)"><g transform="matrix(.35278 0 0 .35278 -269.74 -67.7)" stroke-linejoin="round"><path d="m788.73 576.72h507.27v-226.8h-507.27z" fill="none"/><path d="m788.73 576.72v-226.8" clip-path="url(#pfe6369485a)" fill="none" stroke="#404040" stroke-dasharray="2.96, 1.28" stroke-width=".8"/><path d="m788.73 576.72v3.5" fill="#fff" stroke="#fff" stroke-width=".8"/><g transform="matrix(.1 0 0 -.1 785.55 591.32)" fill="#fff"><path d="m31.781 66.406q-7.6094 0-11.453-7.5-3.8281-7.4844-3.8281-22.531 0-14.984 3.8281-22.484 3.8438-7.5 11.453-7.5 7.6719 0 11.5 7.5 3.8438 7.5 3.8438 22.484 0 15.047-3.8438 22.531-3.8281 7.5-11.5 7.5zm0 7.8125q12.266 0 18.734-9.7031 6.4688-9.6875 6.4688-28.141 0-18.406-6.4688-28.109-6.4688-9.6875-18.734-9.6875-12.25 0-18.719 9.6875-6.4688 9.7031-6.4688 28.109 0 18.453 6.4688 28.141 6.4688 9.7031 18.719 9.7031z"/></g><path d="m839.45 576.72v-226.8" clip-path="url(#pfe6369485a)" fill="none" stroke="#404040" stroke-dasharray="2.96, 1.28" stroke-width=".8"/><path d="m839.45 576.72v3.5" fill="#fff" stroke="#fff" stroke-width=".8"/><g transform="matrix(.1 0 0 -.1 836.27 591.32)" fill="#fff"><path d="m12.406 8.2969h16.109v55.625l-17.531-3.5156v8.9844l17.438 3.5156h9.8594v-64.609h16.109v-8.2969h-41.984z"/></g><path d="m890.18 576.72v-226.8" clip-path="url(#pfe6369485a)" fill="none" stroke="#404040" stroke-dasharray="2.96, 1.28" stroke-width=".8"/><path d="m890.18 576.72v3.5" fill="#fff" stroke="#fff" stroke-width=".8"/><g transform="matrix(.1 0 0 -.1 887 591.32)" fill="#fff"><path d="m19.188 8.2969h34.422v-8.2969h-46.281v8.2969q5.6094 5.8125 15.297 15.594 9.7031 9.7969 12.188 12.641 4.7344 5.3125 6.6094 9 1.8906 3.6875 1.8906 7.25 0 5.8125-4.0781 9.4688-4.0781 3.6719-10.625 3.6719-4.6406 0-9.7969-1.6094-5.1406-1.6094-11-4.8906v9.9688q5.9531 2.3906 11.125 3.6094 5.1875 1.2188 9.4844 1.2188 11.328 0 18.062-5.6719 6.7344-5.6562 6.7344-15.125 0-4.5-1.6875-8.5312-1.6719-4.0156-6.125-9.4844-1.2188-1.4219-7.7656-8.1875-6.5312-6.7656-18.453-18.922z"/></g><path d="m940.91 576.72v-226.8" clip-path="url(#pfe6369485a)" fill="none" stroke="#404040" stroke-dasharray="2.96, 1.28" stroke-width=".8"/><path d="m940.91 576.72v3.5" fill="#fff" stroke="#fff" stroke-width=".8"/><g transform="matrix(.1 0 0 -.1 937.73 591.32)" fill="#fff"><path d="m40.578 39.312q7.0781-1.5156 11.047-6.3125 3.9844-4.7812 3.9844-11.812 0-10.781-7.4219-16.703-7.4219-5.9062-21.094-5.9062-4.5781 0-9.4375 0.90625t-10.031 2.7188v9.5156q4.0938-2.3906 8.9688-3.6094 4.8906-1.2188 10.219-1.2188 9.2656 0 14.125 3.6562t4.8594 10.641q0 6.4531-4.5156 10.078-4.5156 3.6406-12.562 3.6406h-8.5v8.1094h8.8906q7.2656 0 11.125 2.9062t3.8594 8.375q0 5.6094-3.9844 8.6094-3.9688 3.0156-11.391 3.0156-4.0625 0-8.7031-0.89062-4.6406-0.875-10.203-2.7188v8.7812q5.625 1.5625 10.531 2.3438t9.25 0.78125q11.234 0 17.766-5.1094 6.5469-5.0938 6.5469-13.781 0-6.0625-3.4688-10.234t-9.8594-5.7812z"/></g><path d="m991.64 576.72v-226.8" clip-path="url(#pfe6369485a)" fill="none" stroke="#404040" stroke-dasharray="2.96, 1.28" stroke-width=".8"/><path d="m991.64 576.72v3.5" fill="#fff" stroke="#fff" stroke-width=".8"/><g transform="matrix(.1 0 0 -.1 988.46 591.32)" fill="#fff"><path d="m37.797 64.312-24.906-38.922h24.906zm-2.5938 8.5938h12.406v-47.516h10.406v-8.2031h-10.406v-17.188h-9.8125v17.188h-32.906v9.5156z"/></g><path d="m1042.4 576.72v-226.8" clip-path="url(#pfe6369485a)" fill="none" stroke="#404040" stroke-dasharray="2.96, 1.28" stroke-width=".8"/><path d="m1042.4 576.72v3.5" fill="#fff" stroke="#fff" stroke-width=".8"/><g transform="matrix(.1 0 0 -.1 1039.2 591.32)" fill="#fff"><path d="m10.797 72.906h38.719v-8.3125h-29.688v-17.859q2.1406 0.73438 4.2812 1.0938 2.1562 0.35938 4.3125 0.35938 12.203 0 19.328-6.6875 7.1406-6.6875 7.1406-18.109 0-11.766-7.3281-18.297-7.3281-6.5156-20.656-6.5156-4.5938 0-9.3594 0.78125-4.75 0.78125-9.8281 2.3438v9.9219q4.3906-2.3906 9.0781-3.5625t9.9062-1.1719q8.4531 0 13.375 4.4375 4.9375 4.4375 4.9375 12.062 0 7.6094-4.9375 12.047-4.9219 4.4531-13.375 4.4531-3.9531 0-7.8906-0.875-3.9219-0.875-8.0156-2.7344z"/></g><path d="m1093.1 576.72v-226.8" clip-path="url(#pfe6369485a)" fill="none" stroke="#404040" stroke-dasharray="2.96, 1.28" stroke-width=".8"/><path d="m1093.1 576.72v3.5" fill="#fff" stroke="#fff" stroke-width=".8"/><g transform="matrix(.1 0 0 -.1 1089.9 591.32)" fill="#fff"><path d="m33.016 40.375q-6.6406 0-10.531-4.5469-3.875-4.5312-3.875-12.438 0-7.8594 3.875-12.438 3.8906-4.5625 10.531-4.5625t10.516 4.5625q3.875 4.5781 3.875 12.438 0 7.9062-3.875 12.438-3.875 4.5469-10.516 4.5469zm19.578 30.922v-8.9844q-3.7188 1.75-7.5 2.6719-3.7812 0.9375-7.5 0.9375-9.7656 0-14.922-6.5938-5.1406-6.5938-5.875-19.922 2.875 4.25 7.2188 6.5156 4.3594 2.2656 9.5781 2.2656 10.984 0 17.359-6.6719 6.375-6.6562 6.375-18.125 0-11.234-6.6406-18.031-6.6406-6.7812-17.672-6.7812-12.656 0-19.344 9.6875-6.6875 9.7031-6.6875 28.109 0 17.281 8.2031 27.562t22.016 10.281q3.7188 0 7.5-0.73438t7.8906-2.1875z"/></g><path d="m1143.8 576.72v-226.8" clip-path="url(#pfe6369485a)" fill="none" stroke="#404040" stroke-dasharray="2.96, 1.28" stroke-width=".8"/><path d="m1143.8 576.72v3.5" fill="#fff" stroke="#fff" stroke-width=".8"/><g transform="matrix(.1 0 0 -.1 1140.6 591.32)" fill="#fff"><path d="m8.2031 72.906h46.875v-4.2031l-26.469-68.703h-10.297l24.906 64.594h-35.016z"/></g><path d="m1194.5 576.72v-226.8" clip-path="url(#pfe6369485a)" fill="none" stroke="#404040" stroke-dasharray="2.96, 1.28" stroke-width=".8"/><path d="m1194.5 576.72v3.5" fill="#fff" stroke="#fff" stroke-width=".8"/><g transform="matrix(.1 0 0 -.1 1191.4 591.32)" fill="#fff"><path d="m31.781 34.625q-7.0312 0-11.062-3.7656-4.0156-3.7656-4.0156-10.344 0-6.5938 4.0156-10.359 4.0312-3.7656 11.062-3.7656t11.078 3.7812q4.0625 3.7969 4.0625 10.344 0 6.5781-4.0312 10.344-4.0156 3.7656-11.109 3.7656zm-9.8594 4.1875q-6.3438 1.5625-9.8906 5.9062-3.5312 4.3594-3.5312 10.609 0 8.7344 6.2188 13.812 6.2344 5.0781 17.062 5.0781 10.891 0 17.094-5.0781t6.2031-13.812q0-6.25-3.5469-10.609-3.5312-4.3438-9.8281-5.9062 7.125-1.6562 11.094-6.5 3.9844-4.8281 3.9844-11.797 0-10.609-6.4688-16.281-6.4688-5.6562-18.531-5.6562-12.047 0-18.531 5.6562-6.4688 5.6719-6.4688 16.281 0 6.9688 4 11.797 4.0156 4.8438 11.141 6.5zm-3.6094 15.578q0-5.6562 3.5312-8.8281 3.5469-3.1719 9.9375-3.1719 6.3594 0 9.9375 3.1719 3.5938 3.1719 3.5938 8.8281 0 5.6719-3.5938 8.8438-3.5781 3.1719-9.9375 3.1719-6.3906 0-9.9375-3.1719-3.5312-3.1719-3.5312-8.8438z"/></g><path d="m1245.3 576.72v-226.8" clip-path="url(#pfe6369485a)" fill="none" stroke="#404040" stroke-dasharray="2.96, 1.28" stroke-width=".8"/><path d="m1245.3 576.72v3.5" fill="#fff" stroke="#fff" stroke-width=".8"/><g transform="matrix(.1 0 0 -.1 1242.1 591.32)" fill="#fff"><path d="m10.984 1.5156v8.9844q3.7188-1.7656 7.5156-2.6875 3.8125-0.92188 7.4844-0.92188 9.7656 0 14.906 6.5625 5.1562 6.5625 5.8906 19.953-2.8281-4.2031-7.1875-6.4531-4.3438-2.25-9.6094-2.25-10.938 0-17.312 6.6094-6.375 6.625-6.375 18.109 0 11.219 6.6406 18 6.6406 6.7969 17.672 6.7969 12.656 0 19.312-9.7031 6.6719-9.6875 6.6719-28.141 0-17.234-8.1875-27.516-8.1719-10.281-21.984-10.281-3.7188 0-7.5312 0.73438-3.7969 0.73438-7.9062 2.2031zm19.625 30.906q6.6406 0 10.516 4.5312 3.8906 4.5469 3.8906 12.469 0 7.8594-3.8906 12.422-3.875 4.5625-10.516 4.5625t-10.516-4.5625-3.875-12.422q0-7.9219 3.875-12.469 3.875-4.5312 10.516-4.5312z"/></g><path d="m1296 576.72v-226.8" clip-path="url(#pfe6369485a)" fill="none" stroke="#404040" stroke-dasharray="2.96, 1.28" stroke-width=".8"/><g fill="#fff"><path d="m1296 576.72v3.5" stroke="#fff" stroke-width=".8"/><g transform="matrix(.1 0 0 -.1 1289.6 591.32)"><path d="m12.406 8.2969h16.109v55.625l-17.531-3.5156v8.9844l17.438 3.5156h9.8594v-64.609h16.109v-8.2969h-41.984z"/><path d="m95.404 66.406q-7.6094 0-11.453-7.5-3.8281-7.4844-3.8281-22.531 0-14.984 3.8281-22.484 3.8438-7.5 11.453-7.5 7.6719 0 11.5 7.5 3.8438 7.5 3.8438 22.484 0 15.047-3.8438 22.531-3.8281 7.5-11.5 7.5zm0 7.8125q12.266 0 18.734-9.7031 6.4688-9.6875 6.4688-28.141 0-18.406-6.4688-28.109-6.4688-9.6875-18.734-9.6875-12.25 0-18.719 9.6875-6.4688 9.7031-6.4688 28.109 0 18.453 6.4688 28.141 6.4688 9.7031 18.719 9.7031z"/></g><g transform="matrix(.1 0 0 -.1 1030.1 605)"><path d="m-0.29688 72.906h61.672v-8.3125h-25.875v-64.594h-9.9062v64.594h-25.891z"/><path d="m67.381 54.688h8.9844v-54.688h-8.9844zm0 21.297h8.9844v-11.391h-8.9844z"/><path d="m137.74 44.188q3.375 6.0625 8.0625 8.9375t11.031 2.875q8.5469 0 13.188-5.9844 4.6406-5.9688 4.6406-17v-33.016h-9.0312v32.719q0 7.8594-2.7969 11.656-2.7812 3.8125-8.4844 3.8125-6.9844 0-11.047-4.6406-4.0469-4.625-4.0469-12.641v-30.906h-9.0312v32.719q0 7.9062-2.7812 11.688t-8.5938 3.7812q-6.8906 0-10.953-4.6562-4.0469-4.6562-4.0469-12.625v-30.906h-9.0312v54.688h9.0312v-8.5q3.0781 5.0312 7.375 7.4219 4.2969 2.3906 10.203 2.3906 5.9688 0 10.141-3.0312 4.1719-3.0156 6.1719-8.7812z"/><path d="m239.36 29.594v-4.3906h-41.312q0.59375-9.2812 5.5938-14.141t13.938-4.8594q5.1719 0 10.031 1.2656 4.8594 1.2656 9.6562 3.8125v-8.5q-4.8438-2.0469-9.9219-3.125t-10.297-1.0781q-13.094 0-20.734 7.6094-7.6406 7.625-7.6406 20.625 0 13.422 7.25 21.297 7.25 7.8906 19.562 7.8906 11.031 0 17.453-7.1094 6.4219-7.0938 6.4219-19.297zm-8.9844 2.6406q-0.0937 7.3594-4.125 11.75-4.0312 4.4062-10.672 4.4062-7.5156 0-12.031-4.25-4.5156-4.25-5.2031-11.969z"/></g></g><path d="m788.73 566.41h507.27" clip-path="url(#pfe6369485a)" fill="none" stroke="#404040" stroke-dasharray="2.96, 1.28" stroke-width=".8"/><path d="m788.73 566.41h-3.5" fill="#fff" stroke="#fff" stroke-width=".8"/><g transform="matrix(.1 0 0 -.1 757.44 570.21)" fill="#fff"><path d="m10.594 35.5h62.594v-8.2969h-62.594z"/><path d="m96.195 8.2969h16.109v55.625l-17.531-3.5156v8.9844l17.438 3.5156h9.8594v-64.609h16.109v-8.2969h-41.984z"/><path d="m158.1 12.406h10.312v-12.406h-10.312z"/><path d="m210.98 66.406q-7.6094 0-11.453-7.5-3.8281-7.4844-3.8281-22.531 0-14.984 3.8281-22.484 3.8438-7.5 11.453-7.5 7.6719 0 11.5 7.5 3.8438 7.5 3.8438 22.484 0 15.047-3.8438 22.531-3.8281 7.5-11.5 7.5zm0 7.8125q12.266 0 18.734-9.7031 6.4688-9.6875 6.4688-28.141 0-18.406-6.4688-28.109-6.4688-9.6875-18.734-9.6875-12.25 0-18.719 9.6875-6.4688 9.7031-6.4688 28.109 0 18.453 6.4688 28.141 6.4688 9.7031 18.719 9.7031z"/></g><path d="m788.73 545.79h507.27" clip-path="url(#pfe6369485a)" fill="none" stroke="#404040" stroke-dasharray="2.96, 1.28" stroke-width=".8"/><path d="m788.73 545.79h-3.5" fill="#fff" stroke="#fff" stroke-width=".8"/><g transform="matrix(.1 0 0 -.1 757.44 549.59)" fill="#fff"><path d="m10.594 35.5h62.594v-8.2969h-62.594z"/><path d="m115.57 66.406q-7.6094 0-11.453-7.5-3.8281-7.4844-3.8281-22.531 0-14.984 3.8281-22.484 3.8438-7.5 11.453-7.5 7.6719 0 11.5 7.5 3.8438 7.5 3.8438 22.484 0 15.047-3.8438 22.531-3.8281 7.5-11.5 7.5zm0 7.8125q12.266 0 18.734-9.7031 6.4688-9.6875 6.4688-28.141 0-18.406-6.4688-28.109-6.4688-9.6875-18.734-9.6875-12.25 0-18.719 9.6875-6.4688 9.7031-6.4688 28.109 0 18.453 6.4688 28.141 6.4687 9.7031 18.719 9.7031z"/><path d="m158.1 12.406h10.312v-12.406h-10.312z"/><path d="m210.98 34.625q-7.0312 0-11.062-3.7656-4.0156-3.7656-4.0156-10.344 0-6.5938 4.0156-10.359 4.0312-3.7656 11.062-3.7656t11.078 3.7812q4.0625 3.7969 4.0625 10.344 0 6.5781-4.0312 10.344-4.0156 3.7656-11.109 3.7656zm-9.8594 4.1875q-6.3438 1.5625-9.8906 5.9062-3.5312 4.3594-3.5312 10.609 0 8.7344 6.2188 13.812 6.2344 5.0781 17.062 5.0781 10.891 0 17.094-5.0781 6.2031-5.0781 6.2031-13.812 0-6.25-3.5469-10.609-3.5312-4.3438-9.8281-5.9062 7.125-1.6562 11.094-6.5 3.9844-4.8281 3.9844-11.797 0-10.609-6.4688-16.281-6.4688-5.6562-18.531-5.6562-12.047 0-18.531 5.6562-6.4688 5.6719-6.4688 16.281 0 6.9688 4 11.797 4.0156 4.8438 11.141 6.5zm-3.6094 15.578q0-5.6562 3.5312-8.8281 3.5469-3.1719 9.9375-3.1719 6.3594 0 9.9375 3.1719 3.5938 3.1719 3.5938 8.8281 0 5.6719-3.5938 8.8438-3.5781 3.1719-9.9375 3.1719-6.3906 0-9.9375-3.1719-3.5312-3.1719-3.5312-8.8438z"/></g><path d="m788.73 525.17h507.27" clip-path="url(#pfe6369485a)" fill="none" stroke="#404040" stroke-dasharray="2.96, 1.28" stroke-width=".8"/><path d="m788.73 525.17h-3.5" fill="#fff" stroke="#fff" stroke-width=".8"/><g transform="matrix(.1 0 0 -.1 757.44 528.97)" fill="#fff"><path d="m10.594 35.5h62.594v-8.2969h-62.594z"/><path d="m115.57 66.406q-7.6094 0-11.453-7.5-3.8281-7.4844-3.8281-22.531 0-14.984 3.8281-22.484 3.8438-7.5 11.453-7.5 7.6719 0 11.5 7.5 3.8438 7.5 3.8438 22.484 0 15.047-3.8438 22.531-3.8281 7.5-11.5 7.5zm0 7.8125q12.266 0 18.734-9.7031 6.4688-9.6875 6.4688-28.141 0-18.406-6.4688-28.109-6.4688-9.6875-18.734-9.6875-12.25 0-18.719 9.6875-6.4688 9.7031-6.4688 28.109 0 18.453 6.4688 28.141 6.4687 9.7031 18.719 9.7031z"/><path d="m158.1 12.406h10.312v-12.406h-10.312z"/><path d="m212.21 40.375q-6.6406 0-10.531-4.5469-3.875-4.5312-3.875-12.438 0-7.8594 3.875-12.438 3.8906-4.5625 10.531-4.5625 6.6406 0 10.516 4.5625 3.875 4.5781 3.875 12.438 0 7.9062-3.875 12.438-3.875 4.5469-10.516 4.5469zm19.578 30.922v-8.9844q-3.7188 1.75-7.5 2.6719-3.7812 0.9375-7.5 0.9375-9.7656 0-14.922-6.5938-5.1406-6.5938-5.875-19.922 2.875 4.25 7.2188 6.5156 4.3594 2.2656 9.5781 2.2656 10.984 0 17.359-6.6719 6.375-6.6562 6.375-18.125 0-11.234-6.6406-18.031-6.6406-6.7812-17.672-6.7812-12.656 0-19.344 9.6875-6.6875 9.7031-6.6875 28.109 0 17.281 8.2031 27.562t22.016 10.281q3.7188 0 7.5-0.73438t7.8906-2.1875z"/></g><path d="m788.73 504.56h507.27" clip-path="url(#pfe6369485a)" fill="none" stroke="#404040" stroke-dasharray="2.96, 1.28" stroke-width=".8"/><path d="m788.73 504.56h-3.5" fill="#fff" stroke="#fff" stroke-width=".8"/><g transform="matrix(.1 0 0 -.1 757.44 508.36)" fill="#fff"><path d="m10.594 35.5h62.594v-8.2969h-62.594z"/><path d="m115.57 66.406q-7.6094 0-11.453-7.5-3.8281-7.4844-3.8281-22.531 0-14.984 3.8281-22.484 3.8438-7.5 11.453-7.5 7.6719 0 11.5 7.5 3.8438 7.5 3.8438 22.484 0 15.047-3.8438 22.531-3.8281 7.5-11.5 7.5zm0 7.8125q12.266 0 18.734-9.7031 6.4688-9.6875 6.4688-28.141 0-18.406-6.4688-28.109-6.4688-9.6875-18.734-9.6875-12.25 0-18.719 9.6875-6.4688 9.7031-6.4688 28.109 0 18.453 6.4688 28.141 6.4687 9.7031 18.719 9.7031z"/><path d="m158.1 12.406h10.312v-12.406h-10.312z"/><path d="m217 64.312-24.906-38.922h24.906zm-2.5938 8.5938h12.406v-47.516h10.406v-8.2031h-10.406v-17.188h-9.8125v17.188h-32.906v9.5156z"/></g><path d="m788.73 483.94h507.27" clip-path="url(#pfe6369485a)" fill="none" stroke="#404040" stroke-dasharray="2.96, 1.28" stroke-width=".8"/><path d="m788.73 483.94h-3.5" fill="#fff" stroke="#fff" stroke-width=".8"/><g transform="matrix(.1 0 0 -.1 757.44 487.74)" fill="#fff"><path d="m10.594 35.5h62.594v-8.2969h-62.594z"/><path d="m115.57 66.406q-7.6094 0-11.453-7.5-3.8281-7.4844-3.8281-22.531 0-14.984 3.8281-22.484 3.8438-7.5 11.453-7.5 7.6719 0 11.5 7.5 3.8438 7.5 3.8438 22.484 0 15.047-3.8438 22.531-3.8281 7.5-11.5 7.5zm0 7.8125q12.266 0 18.734-9.7031 6.4688-9.6875 6.4688-28.141 0-18.406-6.4688-28.109-6.4688-9.6875-18.734-9.6875-12.25 0-18.719 9.6875-6.4688 9.7031-6.4688 28.109 0 18.453 6.4688 28.141 6.4687 9.7031 18.719 9.7031z"/><path d="m158.1 12.406h10.312v-12.406h-10.312z"/><path d="m198.39 8.2969h34.422v-8.2969h-46.281v8.2969q5.6094 5.8125 15.297 15.594 9.7031 9.7969 12.188 12.641 4.7344 5.3125 6.6094 9 1.8906 3.6875 1.8906 7.25 0 5.8125-4.0781 9.4688-4.0781 3.6719-10.625 3.6719-4.6406 0-9.7969-1.6094-5.1406-1.6094-11-4.8906v9.9688q5.9531 2.3906 11.125 3.6094 5.1875 1.2188 9.4844 1.2188 11.328 0 18.062-5.6719 6.7344-5.6562 6.7344-15.125 0-4.5-1.6875-8.5312-1.6719-4.0156-6.125-9.4844-1.2188-1.4219-7.7656-8.1875-6.5312-6.7656-18.453-18.922z"/></g><path d="m788.73 463.32h507.27" clip-path="url(#pfe6369485a)" fill="none" stroke="#404040" stroke-dasharray="2.96, 1.28" stroke-width=".8"/><path d="m788.73 463.32h-3.5" fill="#fff" stroke="#fff" stroke-width=".8"/><g transform="matrix(.1 0 0 -.1 765.82 467.12)" fill="#fff"><path d="m31.781 66.406q-7.6094 0-11.453-7.5-3.8281-7.4844-3.8281-22.531 0-14.984 3.8281-22.484 3.8438-7.5 11.453-7.5 7.6719 0 11.5 7.5 3.8438 7.5 3.8438 22.484 0 15.047-3.8438 22.531-3.8281 7.5-11.5 7.5zm0 7.8125q12.266 0 18.734-9.7031 6.4688-9.6875 6.4688-28.141 0-18.406-6.4688-28.109-6.4688-9.6875-18.734-9.6875-12.25 0-18.719 9.6875-6.4688 9.7031-6.4688 28.109 0 18.453 6.4688 28.141 6.4688 9.7031 18.719 9.7031z"/><path d="m74.311 12.406h10.312v-12.406h-10.312z"/><path d="m127.19 66.406q-7.6094 0-11.453-7.5-3.8281-7.4844-3.8281-22.531 0-14.984 3.8281-22.484 3.8438-7.5 11.453-7.5 7.6719 0 11.5 7.5 3.8438 7.5 3.8438 22.484 0 15.047-3.8438 22.531-3.8281 7.5-11.5 7.5zm0 7.8125q12.266 0 18.734-9.7031 6.4688-9.6875 6.4688-28.141 0-18.406-6.4688-28.109-6.4688-9.6875-18.734-9.6875-12.25 0-18.719 9.6875-6.4688 9.7031-6.4688 28.109 0 18.453 6.4688 28.141 6.4688 9.7031 18.719 9.7031z"/></g><path d="m788.73 442.7h507.27" clip-path="url(#pfe6369485a)" fill="none" stroke="#404040" stroke-dasharray="2.96, 1.28" stroke-width=".8"/><path d="m788.73 442.7h-3.5" fill="#fff" stroke="#fff" stroke-width=".8"/><g transform="matrix(.1 0 0 -.1 765.82 446.5)" fill="#fff"><path d="m31.781 66.406q-7.6094 0-11.453-7.5-3.8281-7.4844-3.8281-22.531 0-14.984 3.8281-22.484 3.8438-7.5 11.453-7.5 7.6719 0 11.5 7.5 3.8438 7.5 3.8438 22.484 0 15.047-3.8438 22.531-3.8281 7.5-11.5 7.5zm0 7.8125q12.266 0 18.734-9.7031 6.4688-9.6875 6.4688-28.141 0-18.406-6.4688-28.109-6.4688-9.6875-18.734-9.6875-12.25 0-18.719 9.6875-6.4688 9.7031-6.4688 28.109 0 18.453 6.4688 28.141 6.4688 9.7031 18.719 9.7031z"/><path d="m74.311 12.406h10.312v-12.406h-10.312z"/><path d="m114.6 8.2969h34.422v-8.2969h-46.281v8.2969q5.6094 5.8125 15.297 15.594 9.7031 9.7969 12.188 12.641 4.7344 5.3125 6.6094 9 1.8906 3.6875 1.8906 7.25 0 5.8125-4.0781 9.4688-4.0781 3.6719-10.625 3.6719-4.6406 0-9.7969-1.6094-5.1406-1.6094-11-4.8906v9.9688q5.9531 2.3906 11.125 3.6094 5.1875 1.2188 9.4844 1.2188 11.328 0 18.062-5.6719 6.7344-5.6562 6.7344-15.125 0-4.5-1.6875-8.5312-1.6719-4.0156-6.125-9.4844-1.2188-1.4219-7.7656-8.1875-6.5312-6.7656-18.453-18.922z"/></g><path d="m788.73 422.08h507.27" clip-path="url(#pfe6369485a)" fill="none" stroke="#404040" stroke-dasharray="2.96, 1.28" stroke-width=".8"/><path d="m788.73 422.08h-3.5" fill="#fff" stroke="#fff" stroke-width=".8"/><g transform="matrix(.1 0 0 -.1 765.82 425.88)" fill="#fff"><path d="m31.781 66.406q-7.6094 0-11.453-7.5-3.8281-7.4844-3.8281-22.531 0-14.984 3.8281-22.484 3.8438-7.5 11.453-7.5 7.6719 0 11.5 7.5 3.8438 7.5 3.8438 22.484 0 15.047-3.8438 22.531-3.8281 7.5-11.5 7.5zm0 7.8125q12.266 0 18.734-9.7031 6.4688-9.6875 6.4688-28.141 0-18.406-6.4688-28.109-6.4688-9.6875-18.734-9.6875-12.25 0-18.719 9.6875-6.4688 9.7031-6.4688 28.109 0 18.453 6.4688 28.141 6.4688 9.7031 18.719 9.7031z"/><path d="m74.311 12.406h10.312v-12.406h-10.312z"/><path d="m133.21 64.312-24.906-38.922h24.906zm-2.5938 8.5938h12.406v-47.516h10.406v-8.2031h-10.406v-17.188h-9.8125v17.188h-32.906v9.5156z"/></g><path d="m788.73 401.47h507.27" clip-path="url(#pfe6369485a)" fill="none" stroke="#404040" stroke-dasharray="2.96, 1.28" stroke-width=".8"/><path d="m788.73 401.47h-3.5" fill="#fff" stroke="#fff" stroke-width=".8"/><g transform="matrix(.1 0 0 -.1 765.82 405.26)" fill="#fff"><path d="m31.781 66.406q-7.6094 0-11.453-7.5-3.8281-7.4844-3.8281-22.531 0-14.984 3.8281-22.484 3.8438-7.5 11.453-7.5 7.6719 0 11.5 7.5 3.8438 7.5 3.8438 22.484 0 15.047-3.8438 22.531-3.8281 7.5-11.5 7.5zm0 7.8125q12.266 0 18.734-9.7031 6.4688-9.6875 6.4688-28.141 0-18.406-6.4688-28.109-6.4688-9.6875-18.734-9.6875-12.25 0-18.719 9.6875-6.4688 9.7031-6.4688 28.109 0 18.453 6.4688 28.141 6.4688 9.7031 18.719 9.7031z"/><path d="m74.311 12.406h10.312v-12.406h-10.312z"/><path d="m128.43 40.375q-6.6406 0-10.531-4.5469-3.875-4.5312-3.875-12.438 0-7.8594 3.875-12.438 3.8906-4.5625 10.531-4.5625 6.6406 0 10.516 4.5625 3.875 4.5781 3.875 12.438 0 7.9062-3.875 12.438-3.875 4.5469-10.516 4.5469zm19.578 30.922v-8.9844q-3.7188 1.75-7.5 2.6719-3.7812 0.9375-7.5 0.9375-9.7656 0-14.922-6.5938-5.1406-6.5938-5.875-19.922 2.875 4.25 7.2188 6.5156 4.3594 2.2656 9.5781 2.2656 10.984 0 17.359-6.6719 6.375-6.6562 6.375-18.125 0-11.234-6.6406-18.031-6.6406-6.7812-17.672-6.7812-12.656 0-19.344 9.6875-6.6875 9.7031-6.6875 28.109 0 17.281 8.2031 27.562t22.016 10.281q3.7188 0 7.5-0.73438t7.8906-2.1875z"/></g><path d="m788.73 380.85h507.27" clip-path="url(#pfe6369485a)" fill="none" stroke="#404040" stroke-dasharray="2.96, 1.28" stroke-width=".8"/><path d="m788.73 380.85h-3.5" fill="#fff" stroke="#fff" stroke-width=".8"/><g transform="matrix(.1 0 0 -.1 765.82 384.65)" fill="#fff"><path d="m31.781 66.406q-7.6094 0-11.453-7.5-3.8281-7.4844-3.8281-22.531 0-14.984 3.8281-22.484 3.8438-7.5 11.453-7.5 7.6719 0 11.5 7.5 3.8438 7.5 3.8438 22.484 0 15.047-3.8438 22.531-3.8281 7.5-11.5 7.5zm0 7.8125q12.266 0 18.734-9.7031 6.4688-9.6875 6.4688-28.141 0-18.406-6.4688-28.109-6.4688-9.6875-18.734-9.6875-12.25 0-18.719 9.6875-6.4688 9.7031-6.4688 28.109 0 18.453 6.4688 28.141 6.4688 9.7031 18.719 9.7031z"/><path d="m74.311 12.406h10.312v-12.406h-10.312z"/><path d="m127.19 34.625q-7.0312 0-11.062-3.7656-4.0156-3.7656-4.0156-10.344 0-6.5938 4.0156-10.359 4.0312-3.7656 11.062-3.7656t11.078 3.7812q4.0625 3.7969 4.0625 10.344 0 6.5781-4.0312 10.344-4.0156 3.7656-11.109 3.7656zm-9.8594 4.1875q-6.3438 1.5625-9.8906 5.9062-3.5312 4.3594-3.5312 10.609 0 8.7344 6.2188 13.812 6.2344 5.0781 17.062 5.0781 10.891 0 17.094-5.0781 6.2031-5.0781 6.2031-13.812 0-6.25-3.5469-10.609-3.5312-4.3438-9.8281-5.9062 7.125-1.6562 11.094-6.5 3.9844-4.8281 3.9844-11.797 0-10.609-6.4688-16.281-6.4688-5.6562-18.531-5.6562-12.047 0-18.531 5.6562-6.4688 5.6719-6.4688 16.281 0 6.9688 4 11.797 4.0156 4.8438 11.141 6.5zm-3.6094 15.578q0-5.6562 3.5312-8.8281 3.5469-3.1719 9.9375-3.1719 6.3594 0 9.9375 3.1719 3.5938 3.1719 3.5938 8.8281 0 5.6719-3.5938 8.8438-3.5781 3.1719-9.9375 3.1719-6.3906 0-9.9375-3.1719-3.5312-3.1719-3.5312-8.8438z"/></g><path d="m788.73 360.23h507.27" clip-path="url(#pfe6369485a)" fill="none" stroke="#404040" stroke-dasharray="2.96, 1.28" stroke-width=".8"/><g fill="#fff"><path d="m788.73 360.23h-3.5" stroke="#fff" stroke-width=".8"/><g transform="matrix(.1 0 0 -.1 765.82 364.03)"><path d="m12.406 8.2969h16.109v55.625l-17.531-3.5156v8.9844l17.438 3.5156h9.8594v-64.609h16.109v-8.2969h-41.984z"/><path d="m74.311 12.406h10.312v-12.406h-10.312z"/><path d="m127.19 66.406q-7.6094 0-11.453-7.5-3.8281-7.4844-3.8281-22.531 0-14.984 3.8281-22.484 3.8438-7.5 11.453-7.5 7.6719 0 11.5 7.5 3.8438 7.5 3.8438 22.484 0 15.047-3.8438 22.531-3.8281 7.5-11.5 7.5zm0 7.8125q12.266 0 18.734-9.7031 6.4688-9.6875 6.4688-28.141 0-18.406-6.4688-28.109-6.4688-9.6875-18.734-9.6875-12.25 0-18.719 9.6875-6.4688 9.7031-6.4688 28.109 0 18.453 6.4688 28.141 6.4688 9.7031 18.719 9.7031z"/></g><g transform="matrix(0 -.1 -.1 0 751.36 488.94)"><path d="m34.188 63.188-13.391-36.281h26.812zm-5.5781 9.7188h11.188l27.781-72.906h-10.25l-6.6406 18.703h-32.859l-6.6406-18.703h-10.406z"/><path d="m120.41 44.188q3.375 6.0625 8.0625 8.9375t11.031 2.875q8.5469 0 13.188-5.9844 4.6406-5.9688 4.6406-17v-33.016h-9.0312v32.719q0 7.8594-2.7969 11.656-2.7812 3.8125-8.4844 3.8125-6.9844 0-11.047-4.6406-4.0469-4.625-4.0469-12.641v-30.906h-9.0312v32.719q0 7.9062-2.7812 11.688t-8.5938 3.7812q-6.8906 0-10.953-4.6562-4.0469-4.6562-4.0469-12.625v-30.906h-9.0312v54.688h9.0312v-8.5q3.0781 5.0312 7.375 7.4219t10.203 2.3906q5.9688 0 10.141-3.0312 4.1719-3.0156 6.1719-8.7812z"/><path d="m183.93 8.2031v-29h-9.0312v75.484h9.0312v-8.2969q2.8438 4.875 7.1562 7.2344 4.3281 2.375 10.328 2.375 9.9688 0 16.188-7.9062 6.2344-7.9062 6.2344-20.797t-6.2344-20.812q-6.2188-7.9062-16.188-7.9062-6 0-10.328 2.375-4.3125 2.375-7.1562 7.25zm30.578 19.094q0 9.9062-4.0781 15.547-4.0781 5.6406-11.203 5.6406-7.1406 0-11.219-5.6406-4.0781-5.6406-4.0781-15.547t4.0781-15.547 11.219-5.6406q7.125 0 11.203 5.6406 4.0781 5.6406 4.0781 15.547z"/><path d="m238.72 75.984h8.9844v-75.984h-8.9844z"/><path d="m266.5 54.688h8.9844v-54.688h-8.9844zm0 21.297h8.9844v-11.391h-8.9844z"/><path d="m303.18 70.219v-15.531h18.5v-6.9844h-18.5v-29.688q0-6.6875 1.8281-8.5938 1.8281-1.9062 7.4531-1.9062h9.2188v-7.5156h-9.2188q-10.406 0-14.359 3.875-3.9531 3.8906-3.9531 14.141v29.688h-6.5938v6.9844h6.5938v15.531z"/><path d="m332.57 21.578v33.109h8.9844v-32.766q0-7.7656 3.0156-11.656 3.0312-3.875 9.0938-3.875 7.2656 0 11.484 4.6406 4.2344 4.6406 4.2344 12.656v31h8.9844v-54.688h-8.9844v8.4062q-3.2656-4.9844-7.5938-7.4062-4.3125-2.4219-10.031-2.4219-9.4219 0-14.312 5.8594-4.875 5.8594-4.875 17.141z"/><path d="m432.86 46.391v29.594h8.9844v-75.984h-8.9844v8.2031q-2.8281-4.875-7.1562-7.25-4.3125-2.375-10.375-2.375-9.9062 0-16.141 7.9062-6.2188 7.9219-6.2188 20.812t6.2188 20.797q6.2344 7.9062 16.141 7.9062 6.0625 0 10.375-2.375 4.3281-2.3594 7.1562-7.2344zm-30.609-19.094q0-9.9062 4.0781-15.547 4.0781-5.6406 11.203-5.6406t11.219 5.6406q4.1094 5.6406 4.1094 15.547t-4.1094 15.547q-4.0938 5.6406-11.219 5.6406t-11.203-5.6406q-4.0781-5.6406-4.0781-15.547z"/><path d="m507.13 29.594v-4.3906h-41.312q0.59375-9.2812 5.5938-14.141t13.938-4.8594q5.1719 0 10.031 1.2656 4.8594 1.2656 9.6562 3.8125v-8.5q-4.8438-2.0469-9.9219-3.125t-10.297-1.0781q-13.094 0-20.734 7.6094-7.6406 7.625-7.6406 20.625 0 13.422 7.25 21.297 7.25 7.8906 19.562 7.8906 11.031 0 17.453-7.1094 6.4219-7.0938 6.4219-19.297zm-8.9844 2.6406q-0.0937 7.3594-4.125 11.75-4.0312 4.4062-10.672 4.4062-7.5156 0-12.031-4.25-4.5156-4.25-5.2031-11.969z"/></g></g><g fill="none" stroke="#dc5d1e" stroke-width="1.5"><path d="m788.73 463.32" clip-path="url(#pfe6369485a)"/><path d="m798.87 463.32v-20.618" clip-path="url(#pfe6369485a)"/><path d="m809.02 463.32v-41.236" clip-path="url(#pfe6369485a)"/><path d="m819.16 463.32v-61.855" clip-path="url(#pfe6369485a)"/><path d="m829.31 463.32v-82.473" clip-path="url(#pfe6369485a)"/><path d="m839.45 463.32v-82.473" clip-path="url(#pfe6369485a)"/><path d="m849.6 463.32v-103.09" clip-path="url(#pfe6369485a)"/><path d="m859.75 463.32v-103.09" clip-path="url(#pfe6369485a)"/><path d="m869.89 463.32v-103.09" clip-path="url(#pfe6369485a)"/><path d="m880.04 463.32v-103.09" clip-path="url(#pfe6369485a)"/><path d="m890.18 463.32v-103.09" clip-path="url(#pfe6369485a)"/><path d="m900.33 463.32v-82.473" clip-path="url(#pfe6369485a)"/><path d="m910.47 463.32v-61.855" clip-path="url(#pfe6369485a)"/><path d="m920.62 463.32v-61.855" clip-path="url(#pfe6369485a)"/><path d="m930.76 463.32v-41.236" clip-path="url(#pfe6369485a)"/><path d="m940.91 463.32v-20.618" clip-path="url(#pfe6369485a)"/><path d="m951.05 463.32" clip-path="url(#pfe6369485a)"/><path d="m961.2 463.32v20.618" clip-path="url(#pfe6369485a)"/><path d="m971.35 463.32v41.236" clip-path="url(#pfe6369485a)"/><path d="m981.49 463.32v61.855" clip-path="url(#pfe6369485a)"/><path d="m991.64 463.32v82.473" clip-path="url(#pfe6369485a)"/><path d="m1001.8 463.32v82.473" clip-path="url(#pfe6369485a)"/><path d="m1011.9 463.32v103.09" clip-path="url(#pfe6369485a)"/><path d="m1022.1 463.32v103.09" clip-path="url(#pfe6369485a)"/><path d="m1032.2 463.32v103.09" clip-path="url(#pfe6369485a)"/><path d="m1042.4 463.32v103.09" clip-path="url(#pfe6369485a)"/><path d="m1052.5 463.32v82.473" clip-path="url(#pfe6369485a)"/><path d="m1062.7 463.32v82.473" clip-path="url(#pfe6369485a)"/><path d="m1072.8 463.32v61.855" clip-path="url(#pfe6369485a)"/><path d="m1082.9 463.32v41.236" clip-path="url(#pfe6369485a)"/><path d="m1093.1 463.32v20.618" clip-path="url(#pfe6369485a)"/><path d="m1103.2 463.32" clip-path="url(#pfe6369485a)"/><path d="m1113.4 463.32v-20.618" clip-path="url(#pfe6369485a)"/><path d="m1123.5 463.32v-41.236" clip-path="url(#pfe6369485a)"/><path d="m1133.7 463.32v-41.236" clip-path="url(#pfe6369485a)"/><path d="m1143.8 463.32v-61.855" clip-path="url(#pfe6369485a)"/><path d="m1154 463.32v-82.473" clip-path="url(#pfe6369485a)"/><path d="m1164.1 463.32v-82.473" clip-path="url(#pfe6369485a)"/><path d="m1174.3 463.32v-103.09" clip-path="url(#pfe6369485a)"/><path d="m1184.4 463.32v-103.09" clip-path="url(#pfe6369485a)"/><path d="m1194.5 463.32v-103.09" clip-path="url(#pfe6369485a)"/><path d="m1204.7 463.32v-103.09" clip-path="url(#pfe6369485a)"/><path d="m1214.8 463.32v-82.473" clip-path="url(#pfe6369485a)"/><path d="m1225 463.32v-82.473" clip-path="url(#pfe6369485a)"/><path d="m1235.1 463.32v-61.855" clip-path="url(#pfe6369485a)"/><path d="m1245.3 463.32v-41.236" clip-path="url(#pfe6369485a)"/><path d="m1255.4 463.32v-20.618" clip-path="url(#pfe6369485a)"/><path d="m1265.6 463.32" clip-path="url(#pfe6369485a)"/><path d="m1275.7 463.32v20.618" clip-path="url(#pfe6369485a)"/><path d="m1285.9 463.32v41.236" clip-path="url(#pfe6369485a)"/><path d="m1296 463.32v61.855" clip-path="url(#pfe6369485a)"/></g><g clip-path="url(#pfe6369485a)" fill="#dc5d1e" stroke="#dc5d1e"><path d="m788.73 466.32c0.79561 0 1.5587-0.3161 2.1213-0.87868 0.56259-0.56258 0.87868-1.3257 0.87868-2.1213s-0.31609-1.5587-0.87868-2.1213c-0.56258-0.56258-1.3257-0.87868-2.1213-0.87868s-1.5587 0.3161-2.1213 0.87868-0.87868 1.3257-0.87868 2.1213 0.3161 1.5587 0.87868 2.1213 1.3257 0.87868 2.1213 0.87868z"/><path d="m798.87 445.7c0.79561 0 1.5587-0.3161 2.1213-0.87868s0.87868-1.3257 0.87868-2.1213-0.3161-1.5587-0.87868-2.1213-1.3257-0.87868-2.1213-0.87868-1.5587 0.3161-2.1213 0.87868-0.87868 1.3257-0.87868 2.1213 0.3161 1.5587 0.87868 2.1213 1.3257 0.87868 2.1213 0.87868z"/><path d="m809.02 425.08c0.79561 0 1.5587-0.3161 2.1213-0.87868s0.87868-1.3257 0.87868-2.1213-0.3161-1.5587-0.87868-2.1213-1.3257-0.87868-2.1213-0.87868-1.5587 0.3161-2.1213 0.87868-0.87868 1.3257-0.87868 2.1213 0.3161 1.5587 0.87868 2.1213 1.3257 0.87868 2.1213 0.87868z"/><path d="m819.16 404.47c0.7956 0 1.5587-0.31609 2.1213-0.87868 0.56258-0.56258 0.87868-1.3257 0.87868-2.1213s-0.3161-1.5587-0.87868-2.1213-1.3257-0.87868-2.1213-0.87868c-0.79561 0-1.5587 0.3161-2.1213 0.87868-0.56259 0.56258-0.87868 1.3257-0.87868 2.1213 0 0.79561 0.31609 1.5587 0.87868 2.1213 0.56258 0.56259 1.3257 0.87868 2.1213 0.87868z"/><path d="m829.31 383.85c0.79561 0 1.5587-0.3161 2.1213-0.87868s0.87868-1.3257 0.87868-2.1213-0.3161-1.5587-0.87868-2.1213-1.3257-0.87868-2.1213-0.87868-1.5587 0.3161-2.1213 0.87868-0.87868 1.3257-0.87868 2.1213 0.3161 1.5587 0.87868 2.1213 1.3257 0.87868 2.1213 0.87868z"/><path d="m839.45 383.85c0.79561 0 1.5587-0.3161 2.1213-0.87868s0.87868-1.3257 0.87868-2.1213-0.3161-1.5587-0.87868-2.1213-1.3257-0.87868-2.1213-0.87868-1.5587 0.3161-2.1213 0.87868-0.87868 1.3257-0.87868 2.1213 0.3161 1.5587 0.87868 2.1213 1.3257 0.87868 2.1213 0.87868z"/><path d="m849.6 363.23c0.7956 0 1.5587-0.3161 2.1213-0.87868s0.87868-1.3257 0.87868-2.1213c0-0.79561-0.3161-1.5587-0.87868-2.1213-0.56258-0.56259-1.3257-0.87868-2.1213-0.87868-0.79561 0-1.5587 0.31609-2.1213 0.87868-0.56259 0.56258-0.87868 1.3257-0.87868 2.1213s0.31609 1.5587 0.87868 2.1213c0.56258 0.56258 1.3257 0.87868 2.1213 0.87868z"/><path d="m859.75 363.23c0.79561 0 1.5587-0.3161 2.1213-0.87868s0.87868-1.3257 0.87868-2.1213c0-0.79561-0.3161-1.5587-0.87868-2.1213-0.56258-0.56259-1.3257-0.87868-2.1213-0.87868s-1.5587 0.31609-2.1213 0.87868c-0.56258 0.56258-0.87868 1.3257-0.87868 2.1213s0.3161 1.5587 0.87868 2.1213 1.3257 0.87868 2.1213 0.87868z"/><path d="m869.89 363.23c0.79561 0 1.5587-0.3161 2.1213-0.87868s0.87868-1.3257 0.87868-2.1213c0-0.79561-0.3161-1.5587-0.87868-2.1213-0.56258-0.56259-1.3257-0.87868-2.1213-0.87868s-1.5587 0.31609-2.1213 0.87868c-0.56258 0.56258-0.87868 1.3257-0.87868 2.1213s0.3161 1.5587 0.87868 2.1213 1.3257 0.87868 2.1213 0.87868z"/><path d="m880.04 363.23c0.79561 0 1.5587-0.3161 2.1213-0.87868s0.87868-1.3257 0.87868-2.1213c0-0.79561-0.3161-1.5587-0.87868-2.1213-0.56258-0.56259-1.3257-0.87868-2.1213-0.87868s-1.5587 0.31609-2.1213 0.87868c-0.56258 0.56258-0.87868 1.3257-0.87868 2.1213s0.3161 1.5587 0.87868 2.1213 1.3257 0.87868 2.1213 0.87868z"/><path d="m890.18 363.23c0.79561 0 1.5587-0.3161 2.1213-0.87868s0.87868-1.3257 0.87868-2.1213c0-0.79561-0.3161-1.5587-0.87868-2.1213-0.56258-0.56259-1.3257-0.87868-2.1213-0.87868s-1.5587 0.31609-2.1213 0.87868c-0.56258 0.56258-0.87868 1.3257-0.87868 2.1213s0.3161 1.5587 0.87868 2.1213 1.3257 0.87868 2.1213 0.87868z"/><path d="m900.33 383.85c0.79561 0 1.5587-0.3161 2.1213-0.87868s0.87868-1.3257 0.87868-2.1213-0.3161-1.5587-0.87868-2.1213-1.3257-0.87868-2.1213-0.87868-1.5587 0.3161-2.1213 0.87868-0.87868 1.3257-0.87868 2.1213 0.3161 1.5587 0.87868 2.1213 1.3257 0.87868 2.1213 0.87868z"/><path d="m910.47 404.47c0.79561 0 1.5587-0.31609 2.1213-0.87868 0.56258-0.56258 0.87868-1.3257 0.87868-2.1213s-0.3161-1.5587-0.87868-2.1213-1.3257-0.87868-2.1213-0.87868-1.5587 0.3161-2.1213 0.87868-0.87868 1.3257-0.87868 2.1213c0 0.79561 0.3161 1.5587 0.87868 2.1213 0.56258 0.56259 1.3257 0.87868 2.1213 0.87868z"/><path d="m920.62 404.47c0.79561 0 1.5587-0.31609 2.1213-0.87868 0.56259-0.56258 0.87868-1.3257 0.87868-2.1213s-0.31609-1.5587-0.87868-2.1213c-0.56258-0.56258-1.3257-0.87868-2.1213-0.87868s-1.5587 0.3161-2.1213 0.87868-0.87868 1.3257-0.87868 2.1213c0 0.79561 0.3161 1.5587 0.87868 2.1213 0.56258 0.56259 1.3257 0.87868 2.1213 0.87868z"/><path d="m930.76 425.08c0.79561 0 1.5587-0.3161 2.1213-0.87868s0.87868-1.3257 0.87868-2.1213-0.3161-1.5587-0.87868-2.1213-1.3257-0.87868-2.1213-0.87868-1.5587 0.3161-2.1213 0.87868-0.87868 1.3257-0.87868 2.1213 0.3161 1.5587 0.87868 2.1213 1.3257 0.87868 2.1213 0.87868z"/><path d="m940.91 445.7c0.79561 0 1.5587-0.3161 2.1213-0.87868s0.87868-1.3257 0.87868-2.1213-0.3161-1.5587-0.87868-2.1213-1.3257-0.87868-2.1213-0.87868-1.5587 0.3161-2.1213 0.87868-0.87868 1.3257-0.87868 2.1213 0.3161 1.5587 0.87868 2.1213 1.3257 0.87868 2.1213 0.87868z"/><path d="m951.05 466.32c0.7956 0 1.5587-0.3161 2.1213-0.87868s0.87868-1.3257 0.87868-2.1213-0.3161-1.5587-0.87868-2.1213-1.3257-0.87868-2.1213-0.87868c-0.79561 0-1.5587 0.3161-2.1213 0.87868-0.56259 0.56258-0.87868 1.3257-0.87868 2.1213s0.31609 1.5587 0.87868 2.1213c0.56258 0.56258 1.3257 0.87868 2.1213 0.87868z"/><path d="m961.2 486.94c0.79561 0 1.5587-0.3161 2.1213-0.87868s0.87868-1.3257 0.87868-2.1213-0.3161-1.5587-0.87868-2.1213-1.3257-0.87868-2.1213-0.87868-1.5587 0.3161-2.1213 0.87868-0.87868 1.3257-0.87868 2.1213 0.3161 1.5587 0.87868 2.1213 1.3257 0.87868 2.1213 0.87868z"/><path d="m971.35 507.56c0.79561 0 1.5587-0.3161 2.1213-0.87868s0.87868-1.3257 0.87868-2.1213c0-0.79561-0.3161-1.5587-0.87868-2.1213-0.56258-0.56259-1.3257-0.87868-2.1213-0.87868s-1.5587 0.31609-2.1213 0.87868c-0.56258 0.56258-0.87868 1.3257-0.87868 2.1213s0.3161 1.5587 0.87868 2.1213 1.3257 0.87868 2.1213 0.87868z"/><path d="m981.49 528.17c0.7956 0 1.5587-0.3161 2.1213-0.87868s0.87868-1.3257 0.87868-2.1213-0.3161-1.5587-0.87868-2.1213-1.3257-0.87868-2.1213-0.87868c-0.79561 0-1.5587 0.3161-2.1213 0.87868-0.56259 0.56258-0.87868 1.3257-0.87868 2.1213s0.31609 1.5587 0.87868 2.1213c0.56258 0.56258 1.3257 0.87868 2.1213 0.87868z"/><path d="m991.64 548.79c0.79561 0 1.5587-0.31609 2.1213-0.87868 0.56258-0.56258 0.87868-1.3257 0.87868-2.1213s-0.3161-1.5587-0.87868-2.1213-1.3257-0.87868-2.1213-0.87868-1.5587 0.3161-2.1213 0.87868-0.87868 1.3257-0.87868 2.1213c0 0.79561 0.3161 1.5587 0.87868 2.1213 0.56258 0.56259 1.3257 0.87868 2.1213 0.87868z"/><path d="m1001.8 548.79c0.7956 0 1.5587-0.31609 2.1213-0.87868 0.5626-0.56258 0.8787-1.3257 0.8787-2.1213s-0.3161-1.5587-0.8787-2.1213-1.3257-0.87868-2.1213-0.87868-1.5587 0.3161-2.1213 0.87868c-0.56258 0.56258-0.87868 1.3257-0.87868 2.1213 0 0.79561 0.3161 1.5587 0.87868 2.1213 0.5626 0.56259 1.3257 0.87868 2.1213 0.87868z"/><path d="m1011.9 569.41c0.7957 0 1.5588-0.3161 2.1214-0.87868 0.5625-0.56258 0.8786-1.3257 0.8786-2.1213s-0.3161-1.5587-0.8786-2.1213c-0.5626-0.56258-1.3257-0.87868-2.1214-0.87868-0.7956 0-1.5587 0.3161-2.1213 0.87868s-0.8787 1.3257-0.8787 2.1213 0.3161 1.5587 0.8787 2.1213 1.3257 0.87868 2.1213 0.87868z"/><path d="m1022.1 569.41c0.7956 0 1.5587-0.3161 2.1213-0.87868s0.8787-1.3257 0.8787-2.1213-0.3161-1.5587-0.8787-2.1213-1.3257-0.87868-2.1213-0.87868c-0.7957 0-1.5588 0.3161-2.1214 0.87868-0.5625 0.56258-0.8786 1.3257-0.8786 2.1213s0.3161 1.5587 0.8786 2.1213c0.5626 0.56258 1.3257 0.87868 2.1214 0.87868z"/><path d="m1032.2 569.41c0.7956 0 1.5588-0.3161 2.1214-0.87868 0.5625-0.56258 0.8786-1.3257 0.8786-2.1213s-0.3161-1.5587-0.8786-2.1213c-0.5626-0.56258-1.3258-0.87868-2.1214-0.87868s-1.5587 0.3161-2.1213 0.87868-0.8787 1.3257-0.8787 2.1213 0.3161 1.5587 0.8787 2.1213 1.3257 0.87868 2.1213 0.87868z"/><path d="m1042.4 569.41c0.7957 0 1.5588-0.3161 2.1214-0.87868 0.5625-0.56258 0.8786-1.3257 0.8786-2.1213s-0.3161-1.5587-0.8786-2.1213c-0.5626-0.56258-1.3257-0.87868-2.1214-0.87868-0.7956 0-1.5587 0.3161-2.1213 0.87868s-0.8787 1.3257-0.8787 2.1213 0.3161 1.5587 0.8787 2.1213 1.3257 0.87868 2.1213 0.87868z"/><path d="m1052.5 548.79c0.7956 0 1.5588-0.31609 2.1214-0.87868 0.5625-0.56258 0.8786-1.3257 0.8786-2.1213s-0.3161-1.5587-0.8786-2.1213c-0.5626-0.56258-1.3258-0.87868-2.1214-0.87868s-1.5587 0.3161-2.1213 0.87868-0.8787 1.3257-0.8787 2.1213c0 0.79561 0.3161 1.5587 0.8787 2.1213 0.5626 0.56259 1.3257 0.87868 2.1213 0.87868z"/><path d="m1062.7 548.79c0.7957 0 1.5588-0.31609 2.1214-0.87868 0.5625-0.56258 0.8786-1.3257 0.8786-2.1213s-0.3161-1.5587-0.8786-2.1213c-0.5626-0.56258-1.3257-0.87868-2.1214-0.87868-0.7956 0-1.5587 0.3161-2.1213 0.87868s-0.8787 1.3257-0.8787 2.1213c0 0.79561 0.3161 1.5587 0.8787 2.1213 0.5626 0.56259 1.3257 0.87868 2.1213 0.87868z"/><path d="m1072.8 528.17c0.7957 0 1.5588-0.3161 2.1214-0.87868 0.5625-0.56258 0.8786-1.3257 0.8786-2.1213s-0.3161-1.5587-0.8786-2.1213c-0.5626-0.56258-1.3257-0.87868-2.1214-0.87868-0.7956 0-1.5587 0.3161-2.1213 0.87868s-0.8787 1.3257-0.8787 2.1213 0.3161 1.5587 0.8787 2.1213 1.3257 0.87868 2.1213 0.87868z"/><path d="m1082.9 507.56c0.7956 0 1.5588-0.3161 2.1214-0.87868 0.5625-0.56258 0.8786-1.3257 0.8786-2.1213 0-0.79561-0.3161-1.5587-0.8786-2.1213-0.5626-0.56259-1.3258-0.87868-2.1214-0.87868s-1.5587 0.31609-2.1213 0.87868c-0.5626 0.56258-0.8787 1.3257-0.8787 2.1213s0.3161 1.5587 0.8787 2.1213 1.3257 0.87868 2.1213 0.87868z"/><path d="m1093.1 486.94c0.7957 0 1.5588-0.3161 2.1214-0.87868 0.5625-0.56258 0.8786-1.3257 0.8786-2.1213s-0.3161-1.5587-0.8786-2.1213c-0.5626-0.56258-1.3257-0.87868-2.1214-0.87868-0.7956 0-1.5587 0.3161-2.1213 0.87868s-0.8787 1.3257-0.8787 2.1213 0.3161 1.5587 0.8787 2.1213 1.3257 0.87868 2.1213 0.87868z"/><path d="m1103.2 466.32c0.7956 0 1.5588-0.3161 2.1213-0.87868 0.5626-0.56258 0.8787-1.3257 0.8787-2.1213s-0.3161-1.5587-0.8787-2.1213c-0.5625-0.56258-1.3257-0.87868-2.1213-0.87868s-1.5587 0.3161-2.1213 0.87868-0.8787 1.3257-0.8787 2.1213 0.3161 1.5587 0.8787 2.1213 1.3257 0.87868 2.1213 0.87868z"/><path d="m1113.4 445.7c0.7956 0 1.5588-0.3161 2.1214-0.87868 0.5625-0.56258 0.8786-1.3257 0.8786-2.1213s-0.3161-1.5587-0.8786-2.1213c-0.5626-0.56258-1.3258-0.87868-2.1214-0.87868s-1.5587 0.3161-2.1213 0.87868-0.8787 1.3257-0.8787 2.1213 0.3161 1.5587 0.8787 2.1213 1.3257 0.87868 2.1213 0.87868z"/><path d="m1123.5 425.08c0.7956 0 1.5588-0.3161 2.1213-0.87868 0.5626-0.56258 0.8787-1.3257 0.8787-2.1213s-0.3161-1.5587-0.8787-2.1213c-0.5625-0.56258-1.3257-0.87868-2.1213-0.87868s-1.5587 0.3161-2.1213 0.87868-0.8787 1.3257-0.8787 2.1213 0.3161 1.5587 0.8787 2.1213 1.3257 0.87868 2.1213 0.87868z"/><path d="m1133.7 425.08c0.7956 0 1.5588-0.3161 2.1213-0.87868 0.5626-0.56258 0.8787-1.3257 0.8787-2.1213s-0.3161-1.5587-0.8787-2.1213c-0.5625-0.56258-1.3257-0.87868-2.1213-0.87868s-1.5587 0.3161-2.1213 0.87868-0.8787 1.3257-0.8787 2.1213 0.3161 1.5587 0.8787 2.1213 1.3257 0.87868 2.1213 0.87868z"/><path d="m1143.8 404.47c0.7956 0 1.5588-0.31609 2.1214-0.87868 0.5625-0.56258 0.8786-1.3257 0.8786-2.1213s-0.3161-1.5587-0.8786-2.1213c-0.5626-0.56258-1.3258-0.87868-2.1214-0.87868s-1.5587 0.3161-2.1213 0.87868-0.8787 1.3257-0.8787 2.1213c0 0.79561 0.3161 1.5587 0.8787 2.1213 0.5626 0.56259 1.3257 0.87868 2.1213 0.87868z"/><path d="m1154 383.85c0.7956 0 1.5588-0.3161 2.1213-0.87868 0.5626-0.56258 0.8787-1.3257 0.8787-2.1213s-0.3161-1.5587-0.8787-2.1213c-0.5625-0.56258-1.3257-0.87868-2.1213-0.87868s-1.5587 0.3161-2.1213 0.87868-0.8787 1.3257-0.8787 2.1213 0.3161 1.5587 0.8787 2.1213 1.3257 0.87868 2.1213 0.87868z"/><path d="m1164.1 383.85c0.7956 0 1.5588-0.3161 2.1214-0.87868 0.5625-0.56258 0.8786-1.3257 0.8786-2.1213s-0.3161-1.5587-0.8786-2.1213c-0.5626-0.56258-1.3258-0.87868-2.1214-0.87868s-1.5587 0.3161-2.1213 0.87868-0.8787 1.3257-0.8787 2.1213 0.3161 1.5587 0.8787 2.1213 1.3257 0.87868 2.1213 0.87868z"/><path d="m1174.3 363.23c0.7956 0 1.5588-0.3161 2.1213-0.87868 0.5626-0.56258 0.8787-1.3257 0.8787-2.1213 0-0.79561-0.3161-1.5587-0.8787-2.1213-0.5625-0.56259-1.3257-0.87868-2.1213-0.87868s-1.5587 0.31609-2.1213 0.87868c-0.5626 0.56258-0.8787 1.3257-0.8787 2.1213s0.3161 1.5587 0.8787 2.1213 1.3257 0.87868 2.1213 0.87868z"/><path d="m1184.4 363.23c0.7956 0 1.5588-0.3161 2.1213-0.87868 0.5626-0.56258 0.8787-1.3257 0.8787-2.1213 0-0.79561-0.3161-1.5587-0.8787-2.1213-0.5625-0.56259-1.3257-0.87868-2.1213-0.87868s-1.5587 0.31609-2.1213 0.87868c-0.5626 0.56258-0.8787 1.3257-0.8787 2.1213s0.3161 1.5587 0.8787 2.1213 1.3257 0.87868 2.1213 0.87868z"/><path d="m1194.5 363.23c0.7956 0 1.5588-0.3161 2.1213-0.87868 0.5626-0.56258 0.8787-1.3257 0.8787-2.1213 0-0.79561-0.3161-1.5587-0.8787-2.1213-0.5625-0.56259-1.3257-0.87868-2.1213-0.87868s-1.5587 0.31609-2.1213 0.87868c-0.5626 0.56258-0.8787 1.3257-0.8787 2.1213s0.3161 1.5587 0.8787 2.1213 1.3257 0.87868 2.1213 0.87868z"/><path d="m1204.7 363.23c0.7956 0 1.5588-0.3161 2.1213-0.87868 0.5626-0.56258 0.8787-1.3257 0.8787-2.1213 0-0.79561-0.3161-1.5587-0.8787-2.1213-0.5625-0.56259-1.3257-0.87868-2.1213-0.87868s-1.5587 0.31609-2.1213 0.87868c-0.5626 0.56258-0.8787 1.3257-0.8787 2.1213s0.3161 1.5587 0.8787 2.1213 1.3257 0.87868 2.1213 0.87868z"/><path d="m1214.8 383.85c0.7956 0 1.5587-0.3161 2.1213-0.87868s0.8787-1.3257 0.8787-2.1213-0.3161-1.5587-0.8787-2.1213-1.3257-0.87868-2.1213-0.87868-1.5587 0.3161-2.1213 0.87868-0.8787 1.3257-0.8787 2.1213 0.3161 1.5587 0.8787 2.1213 1.3257 0.87868 2.1213 0.87868z"/><path d="m1225 383.85c0.7956 0 1.5588-0.3161 2.1213-0.87868 0.5626-0.56258 0.8787-1.3257 0.8787-2.1213s-0.3161-1.5587-0.8787-2.1213c-0.5625-0.56258-1.3257-0.87868-2.1213-0.87868s-1.5587 0.3161-2.1213 0.87868-0.8787 1.3257-0.8787 2.1213 0.3161 1.5587 0.8787 2.1213 1.3257 0.87868 2.1213 0.87868z"/><path d="m1235.1 404.47c0.7956 0 1.5588-0.31609 2.1213-0.87868 0.5626-0.56258 0.8787-1.3257 0.8787-2.1213s-0.3161-1.5587-0.8787-2.1213c-0.5625-0.56258-1.3257-0.87868-2.1213-0.87868s-1.5587 0.3161-2.1213 0.87868-0.8787 1.3257-0.8787 2.1213c0 0.79561 0.3161 1.5587 0.8787 2.1213 0.5626 0.56259 1.3257 0.87868 2.1213 0.87868z"/><path d="m1245.3 425.08c0.7956 0 1.5587-0.3161 2.1213-0.87868s0.8787-1.3257 0.8787-2.1213-0.3161-1.5587-0.8787-2.1213-1.3257-0.87868-2.1213-0.87868-1.5587 0.3161-2.1213 0.87868-0.8787 1.3257-0.8787 2.1213 0.3161 1.5587 0.8787 2.1213 1.3257 0.87868 2.1213 0.87868z"/><path d="m1255.4 445.7c0.7956 0 1.5588-0.3161 2.1213-0.87868 0.5626-0.56258 0.8787-1.3257 0.8787-2.1213s-0.3161-1.5587-0.8787-2.1213c-0.5625-0.56258-1.3257-0.87868-2.1213-0.87868s-1.5587 0.3161-2.1213 0.87868-0.8787 1.3257-0.8787 2.1213 0.3161 1.5587 0.8787 2.1213 1.3257 0.87868 2.1213 0.87868z"/><path d="m1265.6 466.32c0.7956 0 1.5587-0.3161 2.1213-0.87868s0.8787-1.3257 0.8787-2.1213-0.3161-1.5587-0.8787-2.1213-1.3257-0.87868-2.1213-0.87868-1.5587 0.3161-2.1213 0.87868-0.8787 1.3257-0.8787 2.1213 0.3161 1.5587 0.8787 2.1213 1.3257 0.87868 2.1213 0.87868z"/><path d="m1275.7 486.94c0.7956 0 1.5587-0.3161 2.1213-0.87868s0.8787-1.3257 0.8787-2.1213-0.3161-1.5587-0.8787-2.1213-1.3257-0.87868-2.1213-0.87868-1.5587 0.3161-2.1213 0.87868-0.8787 1.3257-0.8787 2.1213 0.3161 1.5587 0.8787 2.1213 1.3257 0.87868 2.1213 0.87868z"/><path d="m1285.9 507.56c0.7956 0 1.5587-0.3161 2.1213-0.87868s0.8787-1.3257 0.8787-2.1213c0-0.79561-0.3161-1.5587-0.8787-2.1213-0.5626-0.56259-1.3257-0.87868-2.1213-0.87868s-1.5587 0.31609-2.1213 0.87868c-0.5626 0.56258-0.8787 1.3257-0.8787 2.1213s0.3161 1.5587 0.8787 2.1213 1.3257 0.87868 2.1213 0.87868z"/><path d="m1296 528.17c0.7956 0 1.5587-0.3161 2.1213-0.87868s0.8787-1.3257 0.8787-2.1213-0.3161-1.5587-0.8787-2.1213-1.3257-0.87868-2.1213-0.87868-1.5587 0.3161-2.1213 0.87868-0.8787 1.3257-0.8787 2.1213 0.3161 1.5587 0.8787 2.1213 1.3257 0.87868 2.1213 0.87868z"/></g><g fill="none" stroke-linecap="square"><path d="m788.73 463.32h507.27" clip-path="url(#pfe6369485a)" stroke="#dc5d1e" stroke-width="1.5"/><g stroke="#fff"><path d="m788.73 463.32h507.27" clip-path="url(#pfe6369485a)" stroke-width="1.5"/><g stroke-linejoin="miter" stroke-width=".8"><path d="m788.73 576.72v-226.8"/><path d="m1296 576.72v-226.8"/><path d="m788.73 576.72h507.27"/><path d="m788.73 349.92h507.27"/></g></g></g><g transform="matrix(.12 0 0 -.12 1002.6 343.92)" fill="#fff"><path d="m19.672 64.797v-56.688h11.922q15.094 0 22.094 6.8281 7 6.8438 7 21.594 0 14.641-7 21.453t-22.094 6.8125zm-9.8594 8.1094h20.266q21.188 0 31.094-8.8125 9.9219-8.8125 9.9219-27.562 0-18.859-9.9688-27.703-9.9531-8.8281-31.047-8.8281h-20.266z"/><path d="m86.424 54.688h8.9844v-54.688h-8.9844zm0 21.297h8.9844v-11.391h-8.9844z"/><path d="m150.19 27.984q0 9.7656-4.0312 15.125-4.0156 5.375-11.297 5.375-7.2188 0-11.25-5.375-4.0312-5.3594-4.0312-15.125 0-9.7188 4.0312-15.094t11.25-5.375q7.2812 0 11.297 5.375 4.0312 5.375 4.0312 15.094zm8.9844-21.203q0-13.953-6.2031-20.766-6.1875-6.8125-18.984-6.8125-4.7344 0-8.9375 0.70312t-8.1562 2.1719v8.7344q3.9531-2.1406 7.8125-3.1562 3.8594-1.0312 7.8594-1.0312 8.8438 0 13.234 4.6094 4.3906 4.6094 4.3906 13.938v4.4531q-2.7812-4.8438-7.125-7.2344t-10.406-2.3906q-10.047 0-16.203 7.6562-6.1562 7.6719-6.1562 20.328 0 12.688 6.1562 20.344 6.1562 7.6719 16.203 7.6719 6.0625 0 10.406-2.3906t7.125-7.2188v8.2969h8.9844z"/><path d="m177.68 54.688h8.9844v-54.688h-8.9844zm0 21.297h8.9844v-11.391h-8.9844z"/><path d="m214.36 70.219v-15.531h18.5v-6.9844h-18.5v-29.688q0-6.6875 1.8281-8.5938 1.8281-1.9062 7.4531-1.9062h9.2188v-7.5156h-9.2188q-10.406 0-14.359 3.875-3.9531 3.8906-3.9531 14.141v29.688h-6.5938v6.9844h6.5938v15.531z"/><path d="m269.54 27.484q-10.891 0-15.094-2.4844-4.2031-2.4844-4.2031-8.5 0-4.7812 3.1562-7.5938 3.1562-2.7969 8.5625-2.7969 7.4844 0 12 5.2969t4.5156 14.078v2zm17.922 3.7188v-31.203h-8.9844v8.2969q-3.0781-4.9688-7.6719-7.3438t-11.234-2.375q-8.3906 0-13.359 4.7188-4.9531 4.7188-4.9531 12.625 0 9.2188 6.1719 13.906 6.1875 4.6875 18.438 4.6875h12.609v0.89062q0 6.2031-4.0781 9.5938-4.0781 3.3906-11.453 3.3906-4.6875 0-9.1406-1.125-4.4375-1.125-8.5312-3.375v8.3125q4.9219 1.9062 9.5625 2.8438 4.6406 0.95312 9.0312 0.95312 11.875 0 17.734-6.1562 5.8594-6.1406 5.8594-18.641z"/><path d="m305.96 75.984h8.9844v-75.984h-8.9844z"/><path d="m409.62 70.516v-9.625q-5.6094 2.6875-10.594 4-4.9844 1.3281-9.625 1.3281-8.0469 0-12.422-3.125t-4.375-8.8906q0-4.8438 2.9062-7.3125 2.9062-2.4531 11.016-3.9688l5.9531-1.2188q11.031-2.1094 16.281-7.4062t5.25-14.172q0-10.609-7.1094-16.078-7.0938-5.4688-20.812-5.4688-5.1719 0-11.016 1.1719-5.8281 1.1719-12.078 3.4688v10.156q6-3.3594 11.766-5.0781 5.7656-1.7031 11.328-1.7031 8.4375 0 13.031 3.3125 4.5938 3.3281 4.5938 9.4844 0 5.3594-3.2969 8.3906t-10.812 4.5469l-6.0156 1.1719q-11.031 2.1875-15.969 6.875-4.9219 4.6875-4.9219 13.047 0 9.6719 6.8125 15.234t18.766 5.5625q5.1406 0 10.453-0.9375 5.3281-0.92188 10.891-2.7656z"/><path d="m429 54.688h8.9844v-54.688h-8.9844zm0 21.297h8.9844v-11.391h-8.9844z"/><path d="m492.77 27.984q0 9.7656-4.0312 15.125-4.0156 5.375-11.297 5.375-7.2188 0-11.25-5.375-4.0312-5.3594-4.0312-15.125 0-9.7188 4.0312-15.094t11.25-5.375q7.2812 0 11.297 5.375 4.0312 5.375 4.0312 15.094zm8.9844-21.203q0-13.953-6.2031-20.766-6.1875-6.8125-18.984-6.8125-4.7344 0-8.9375 0.70312t-8.1562 2.1719v8.7344q3.9531-2.1406 7.8125-3.1562 3.8594-1.0312 7.8594-1.0312 8.8438 0 13.234 4.6094 4.3906 4.6094 4.3906 13.938v4.4531q-2.7812-4.8438-7.125-7.2344t-10.406-2.3906q-10.047 0-16.203 7.6562-6.1562 7.6719-6.1562 20.328 0 12.688 6.1562 20.344 6.1562 7.6719 16.203 7.6719 6.0625 0 10.406-2.3906t7.125-7.2188v8.2969h8.9844z"/><path d="m565.73 33.016v-33.016h-8.9844v32.719q0 7.7656-3.0312 11.609-3.0312 3.8594-9.0781 3.8594-7.2812 0-11.484-4.6406-4.2031-4.625-4.2031-12.641v-30.906h-9.0312v54.688h9.0312v-8.5q3.2344 4.9375 7.5938 7.375 4.375 2.4375 10.094 2.4375 9.4219 0 14.25-5.8281 4.8438-5.8281 4.8438-17.156z"/><path d="m608.5 27.484q-10.891 0-15.094-2.4844-4.2031-2.4844-4.2031-8.5 0-4.7812 3.1562-7.5938 3.1562-2.7969 8.5625-2.7969 7.4844 0 12 5.2969t4.5156 14.078v2zm17.922 3.7188v-31.203h-8.9844v8.2969q-3.0781-4.9688-7.6719-7.3438t-11.234-2.375q-8.3906 0-13.359 4.7188-4.9531 4.7188-4.9531 12.625 0 9.2188 6.1719 13.906 6.1875 4.6875 18.438 4.6875h12.609v0.89062q0 6.2031-4.0781 9.5938-4.0781 3.3906-11.453 3.3906-4.6875 0-9.1406-1.125-4.4375-1.125-8.5312-3.375v8.3125q4.9219 1.9062 9.5625 2.8438 4.6406 0.95312 9.0312 0.95312 11.875 0 17.734-6.1562 5.8594-6.1406 5.8594-18.641z"/><path d="m644.92 75.984h8.9844v-75.984h-8.9844z"/></g></g></g></svg>
