<?xml version="1.0" encoding="UTF-8"?>
<svg width="196.83mm" height="97.369mm" version="1.1" viewBox="0 0 196.83 97.369" xmlns="http://www.w3.org/2000/svg" xmlns:xlink="http://www.w3.org/1999/xlink"><defs><clipPath id="p2463401775"><rect x="788.73" y="77.76" width="507.27" height="226.8"/></clipPath><path id="DejaVuSans-45" d="m4.8906 31.391h26.312v-8h-26.312z"/><path id="DejaVuSans-67" d="m64.406 67.281v-10.391q-4.9844 4.6406-10.625 6.9219-5.6406 2.2969-11.984 2.2969-12.5 0-19.141-7.6406t-6.6406-22.094q0-14.406 6.6406-22.047t19.141-7.6406q6.3438 0 11.984 2.2969t10.625 6.9375v-10.312q-5.1719-3.5156-10.969-5.2812-5.7812-1.75-12.219-1.75-16.562 0-26.094 10.125-9.5156 10.141-9.5156 27.672 0 17.578 9.5156 27.703 9.5312 10.141 26.094 10.141 6.5312 0 12.312-1.7344 5.7969-1.7344 10.875-5.2031z"/><path id="DejaVuSans-115" d="m44.281 53.078v-8.5q-3.7969 1.9531-7.9062 2.9219-4.0938 0.98438-8.5 0.98438-6.6875 0-10.031-2.0469t-3.3438-6.1562q0-3.125 2.3906-4.9062t9.625-3.3906l3.0781-0.6875q9.5625-2.0469 13.594-5.7812t4.0312-10.422q0-7.625-6.0312-12.078-6.0312-4.4375-16.578-4.4375-4.3906 0-9.1562 0.85938t-10.031 2.5625v9.2812q4.9844-2.5938 9.8125-3.8906 4.8281-1.2812 9.5781-1.2812 6.3438 0 9.75 2.1719 3.4219 2.1719 3.4219 6.125 0 3.6562-2.4688 5.6094-2.4531 1.9531-10.812 3.7656l-3.125 0.73438q-8.3438 1.75-12.062 5.3906-3.7031 3.6406-3.7031 9.9844 0 7.7188 5.4688 11.906 5.4688 4.2031 15.531 4.2031 4.9688 0 9.3594-0.73438 4.4062-0.71875 8.1094-2.1875z"/><path id="DejaVuSans-86" d="m28.609 0-27.828 72.906h10.297l23.109-61.375 23.141 61.375h10.25l-27.781-72.906z"/><path id="DejaVuSans-68" d="m19.672 64.797v-56.688h11.922q15.094 0 22.094 6.8281 7 6.8438 7 21.594 0 14.641-7 21.453t-22.094 6.8125zm-9.8594 8.1094h20.266q21.188 0 31.094-8.8125 9.9219-8.8125 9.9219-27.562 0-18.859-9.9688-27.703-9.9531-8.8281-31.047-8.8281h-20.266z"/><path id="DejaVuSans-99" d="m48.781 52.594v-8.4062q-3.8125 2.1094-7.6406 3.1562t-7.7344 1.0469q-8.75 0-13.594-5.5469-4.8281-5.5312-4.8281-15.547t4.8281-15.562q4.8438-5.5312 13.594-5.5312 3.9062 0 7.7344 1.0469t7.6406 3.1562v-8.3125q-3.7656-1.75-7.7969-2.625-4.0156-0.89062-8.5625-0.89062-12.359 0-19.641 7.7656-7.2656 7.7656-7.2656 20.953 0 13.375 7.3438 21.031 7.3594 7.6719 20.156 7.6719 4.1406 0 8.0938-0.85938 3.9531-0.84375 7.6719-2.5469z"/><path id="DejaVuSans-114" d="m41.109 46.297q-1.5156 0.875-3.2969 1.2812-1.7812 0.42188-3.9219 0.42188-7.625 0-11.703-4.9531t-4.0781-14.234v-28.812h-9.0312v54.688h9.0312v-8.5q2.8438 4.9844 7.375 7.3906 4.5469 2.4219 11.047 2.4219 0.92188 0 2.0469-0.125 1.125-0.10938 2.4844-0.35938z"/></defs><g transform="translate(12.374,-37.679)"><g transform="matrix(.35278 0 0 .35278 -274.76 15.58)" stroke-linejoin="round"><path d="m788.73 304.56h507.27v-226.8h-507.27z" fill="none"/><path d="m788.73 304.56v-226.8" clip-path="url(#p2463401775)" fill="none" stroke="#404040" stroke-dasharray="2.96, 1.28" stroke-width=".8"/><path d="m788.73 304.56v3.5" fill="#fff" stroke="#fff" stroke-width=".8"/><g transform="matrix(.1 0 0 -.1 785.55 319.16)" fill="#fff"><path d="m31.781 66.406q-7.6094 0-11.453-7.5-3.8281-7.4844-3.8281-22.531 0-14.984 3.8281-22.484 3.8438-7.5 11.453-7.5 7.6719 0 11.5 7.5 3.8438 7.5 3.8438 22.484 0 15.047-3.8438 22.531-3.8281 7.5-11.5 7.5zm0 7.8125q12.266 0 18.734-9.7031 6.4688-9.6875 6.4688-28.141 0-18.406-6.4688-28.109-6.4688-9.6875-18.734-9.6875-12.25 0-18.719 9.6875-6.4688 9.7031-6.4688 28.109 0 18.453 6.4688 28.141 6.4688 9.7031 18.719 9.7031z"/></g><path d="m839.45 304.56v-226.8" clip-path="url(#p2463401775)" fill="none" stroke="#404040" stroke-dasharray="2.96, 1.28" stroke-width=".8"/><path d="m839.45 304.56v3.5" fill="#fff" stroke="#fff" stroke-width=".8"/><g transform="matrix(.1 0 0 -.1 836.27 319.16)" fill="#fff"><path d="m12.406 8.2969h16.109v55.625l-17.531-3.5156v8.9844l17.438 3.5156h9.8594v-64.609h16.109v-8.2969h-41.984z"/></g><path d="m890.18 304.56v-226.8" clip-path="url(#p2463401775)" fill="none" stroke="#404040" stroke-dasharray="2.96, 1.28" stroke-width=".8"/><path d="m890.18 304.56v3.5" fill="#fff" stroke="#fff" stroke-width=".8"/><g transform="matrix(.1 0 0 -.1 887 319.16)" fill="#fff"><path d="m19.188 8.2969h34.422v-8.2969h-46.281v8.2969q5.6094 5.8125 15.297 15.594 9.7031 9.7969 12.188 12.641 4.7344 5.3125 6.6094 9 1.8906 3.6875 1.8906 7.25 0 5.8125-4.0781 9.4688-4.0781 3.6719-10.625 3.6719-4.6406 0-9.7969-1.6094-5.1406-1.6094-11-4.8906v9.9688q5.9531 2.3906 11.125 3.6094 5.1875 1.2188 9.4844 1.2188 11.328 0 18.062-5.6719 6.7344-5.6562 6.7344-15.125 0-4.5-1.6875-8.5312-1.6719-4.0156-6.125-9.4844-1.2188-1.4219-7.7656-8.1875-6.5312-6.7656-18.453-18.922z"/></g><path d="m940.91 304.56v-226.8" clip-path="url(#p2463401775)" fill="none" stroke="#404040" stroke-dasharray="2.96, 1.28" stroke-width=".8"/><path d="m940.91 304.56v3.5" fill="#fff" stroke="#fff" stroke-width=".8"/><g transform="matrix(.1 0 0 -.1 937.73 319.16)" fill="#fff"><path d="m40.578 39.312q7.0781-1.5156 11.047-6.3125 3.9844-4.7812 3.9844-11.812 0-10.781-7.4219-16.703-7.4219-5.9062-21.094-5.9062-4.5781 0-9.4375 0.90625t-10.031 2.7188v9.5156q4.0938-2.3906 8.9688-3.6094 4.8906-1.2188 10.219-1.2188 9.2656 0 14.125 3.6562t4.8594 10.641q0 6.4531-4.5156 10.078-4.5156 3.6406-12.562 3.6406h-8.5v8.1094h8.8906q7.2656 0 11.125 2.9062t3.8594 8.375q0 5.6094-3.9844 8.6094-3.9688 3.0156-11.391 3.0156-4.0625 0-8.7031-0.89062-4.6406-0.875-10.203-2.7188v8.7812q5.625 1.5625 10.531 2.3438t9.25 0.78125q11.234 0 17.766-5.1094 6.5469-5.0938 6.5469-13.781 0-6.0625-3.4688-10.234t-9.8594-5.7812z"/></g><path d="m991.64 304.56v-226.8" clip-path="url(#p2463401775)" fill="none" stroke="#404040" stroke-dasharray="2.96, 1.28" stroke-width=".8"/><path d="m991.64 304.56v3.5" fill="#fff" stroke="#fff" stroke-width=".8"/><g transform="matrix(.1 0 0 -.1 988.46 319.16)" fill="#fff"><path d="m37.797 64.312-24.906-38.922h24.906zm-2.5938 8.5938h12.406v-47.516h10.406v-8.2031h-10.406v-17.188h-9.8125v17.188h-32.906v9.5156z"/></g><path d="m1042.4 304.56v-226.8" clip-path="url(#p2463401775)" fill="none" stroke="#404040" stroke-dasharray="2.96, 1.28" stroke-width=".8"/><path d="m1042.4 304.56v3.5" fill="#fff" stroke="#fff" stroke-width=".8"/><g transform="matrix(.1 0 0 -.1 1039.2 319.16)" fill="#fff"><path d="m10.797 72.906h38.719v-8.3125h-29.688v-17.859q2.1406 0.73438 4.2812 1.0938 2.1562 0.35938 4.3125 0.35938 12.203 0 19.328-6.6875 7.1406-6.6875 7.1406-18.109 0-11.766-7.3281-18.297-7.3281-6.5156-20.656-6.5156-4.5938 0-9.3594 0.78125-4.75 0.78125-9.8281 2.3438v9.9219q4.3906-2.3906 9.0781-3.5625t9.9062-1.1719q8.4531 0 13.375 4.4375 4.9375 4.4375 4.9375 12.062 0 7.6094-4.9375 12.047-4.9219 4.4531-13.375 4.4531-3.9531 0-7.8906-0.875-3.9219-0.875-8.0156-2.7344z"/></g><path d="m1093.1 304.56v-226.8" clip-path="url(#p2463401775)" fill="none" stroke="#404040" stroke-dasharray="2.96, 1.28" stroke-width=".8"/><path d="m1093.1 304.56v3.5" fill="#fff" stroke="#fff" stroke-width=".8"/><g transform="matrix(.1 0 0 -.1 1089.9 319.16)" fill="#fff"><path d="m33.016 40.375q-6.6406 0-10.531-4.5469-3.875-4.5312-3.875-12.438 0-7.8594 3.875-12.438 3.8906-4.5625 10.531-4.5625t10.516 4.5625q3.875 4.5781 3.875 12.438 0 7.9062-3.875 12.438-3.875 4.5469-10.516 4.5469zm19.578 30.922v-8.9844q-3.7188 1.75-7.5 2.6719-3.7812 0.9375-7.5 0.9375-9.7656 0-14.922-6.5938-5.1406-6.5938-5.875-19.922 2.875 4.25 7.2188 6.5156 4.3594 2.2656 9.5781 2.2656 10.984 0 17.359-6.6719 6.375-6.6562 6.375-18.125 0-11.234-6.6406-18.031-6.6406-6.7812-17.672-6.7812-12.656 0-19.344 9.6875-6.6875 9.7031-6.6875 28.109 0 17.281 8.2031 27.562t22.016 10.281q3.7188 0 7.5-0.73438t7.8906-2.1875z"/></g><path d="m1143.8 304.56v-226.8" clip-path="url(#p2463401775)" fill="none" stroke="#404040" stroke-dasharray="2.96, 1.28" stroke-width=".8"/><path d="m1143.8 304.56v3.5" fill="#fff" stroke="#fff" stroke-width=".8"/><g transform="matrix(.1 0 0 -.1 1140.6 319.16)" fill="#fff"><path d="m8.2031 72.906h46.875v-4.2031l-26.469-68.703h-10.297l24.906 64.594h-35.016z"/></g><path d="m1194.5 304.56v-226.8" clip-path="url(#p2463401775)" fill="none" stroke="#404040" stroke-dasharray="2.96, 1.28" stroke-width=".8"/><path d="m1194.5 304.56v3.5" fill="#fff" stroke="#fff" stroke-width=".8"/><g transform="matrix(.1 0 0 -.1 1191.4 319.16)" fill="#fff"><path d="m31.781 34.625q-7.0312 0-11.062-3.7656-4.0156-3.7656-4.0156-10.344 0-6.5938 4.0156-10.359 4.0312-3.7656 11.062-3.7656t11.078 3.7812q4.0625 3.7969 4.0625 10.344 0 6.5781-4.0312 10.344-4.0156 3.7656-11.109 3.7656zm-9.8594 4.1875q-6.3438 1.5625-9.8906 5.9062-3.5312 4.3594-3.5312 10.609 0 8.7344 6.2188 13.812 6.2344 5.0781 17.062 5.0781 10.891 0 17.094-5.0781t6.2031-13.812q0-6.25-3.5469-10.609-3.5312-4.3438-9.8281-5.9062 7.125-1.6562 11.094-6.5 3.9844-4.8281 3.9844-11.797 0-10.609-6.4688-16.281-6.4688-5.6562-18.531-5.6562-12.047 0-18.531 5.6562-6.4688 5.6719-6.4688 16.281 0 6.9688 4 11.797 4.0156 4.8438 11.141 6.5zm-3.6094 15.578q0-5.6562 3.5312-8.8281 3.5469-3.1719 9.9375-3.1719 6.3594 0 9.9375 3.1719 3.5938 3.1719 3.5938 8.8281 0 5.6719-3.5938 8.8438-3.5781 3.1719-9.9375 3.1719-6.3906 0-9.9375-3.1719-3.5312-3.1719-3.5312-8.8438z"/></g><path d="m1245.3 304.56v-226.8" clip-path="url(#p2463401775)" fill="none" stroke="#404040" stroke-dasharray="2.96, 1.28" stroke-width=".8"/><path d="m1245.3 304.56v3.5" fill="#fff" stroke="#fff" stroke-width=".8"/><g transform="matrix(.1 0 0 -.1 1242.1 319.16)" fill="#fff"><path d="m10.984 1.5156v8.9844q3.7188-1.7656 7.5156-2.6875 3.8125-0.92188 7.4844-0.92188 9.7656 0 14.906 6.5625 5.1562 6.5625 5.8906 19.953-2.8281-4.2031-7.1875-6.4531-4.3438-2.25-9.6094-2.25-10.938 0-17.312 6.6094-6.375 6.625-6.375 18.109 0 11.219 6.6406 18 6.6406 6.7969 17.672 6.7969 12.656 0 19.312-9.7031 6.6719-9.6875 6.6719-28.141 0-17.234-8.1875-27.516-8.1719-10.281-21.984-10.281-3.7188 0-7.5312 0.73438-3.7969 0.73438-7.9062 2.2031zm19.625 30.906q6.6406 0 10.516 4.5312 3.8906 4.5469 3.8906 12.469 0 7.8594-3.8906 12.422-3.875 4.5625-10.516 4.5625t-10.516-4.5625-3.875-12.422q0-7.9219 3.875-12.469 3.875-4.5312 10.516-4.5312z"/></g><path d="m1296 304.56v-226.8" clip-path="url(#p2463401775)" fill="none" stroke="#404040" stroke-dasharray="2.96, 1.28" stroke-width=".8"/><g fill="#fff"><path d="m1296 304.56v3.5" stroke="#fff" stroke-width=".8"/><g transform="matrix(.1 0 0 -.1 1289.6 319.16)"><path d="m12.406 8.2969h16.109v55.625l-17.531-3.5156v8.9844l17.438 3.5156h9.8594v-64.609h16.109v-8.2969h-41.984z"/><path d="m95.404 66.406q-7.6094 0-11.453-7.5-3.8281-7.4844-3.8281-22.531 0-14.984 3.8281-22.484 3.8438-7.5 11.453-7.5 7.6719 0 11.5 7.5 3.8438 7.5 3.8438 22.484 0 15.047-3.8438 22.531-3.8281 7.5-11.5 7.5zm0 7.8125q12.266 0 18.734-9.7031 6.4688-9.6875 6.4688-28.141 0-18.406-6.4688-28.109-6.4688-9.6875-18.734-9.6875-12.25 0-18.719 9.6875-6.4688 9.7031-6.4688 28.109 0 18.453 6.4688 28.141 6.4688 9.7031 18.719 9.7031z"/></g><g transform="matrix(.1 0 0 -.1 1030.1 332.84)"><path d="m-0.29688 72.906h61.672v-8.3125h-25.875v-64.594h-9.9062v64.594h-25.891z"/><path d="m67.381 54.688h8.9844v-54.688h-8.9844zm0 21.297h8.9844v-11.391h-8.9844z"/><path d="m137.74 44.188q3.375 6.0625 8.0625 8.9375t11.031 2.875q8.5469 0 13.188-5.9844 4.6406-5.9688 4.6406-17v-33.016h-9.0312v32.719q0 7.8594-2.7969 11.656-2.7812 3.8125-8.4844 3.8125-6.9844 0-11.047-4.6406-4.0469-4.625-4.0469-12.641v-30.906h-9.0312v32.719q0 7.9062-2.7812 11.688t-8.5938 3.7812q-6.8906 0-10.953-4.6562-4.0469-4.6562-4.0469-12.625v-30.906h-9.0312v54.688h9.0312v-8.5q3.0781 5.0312 7.375 7.4219 4.2969 2.3906 10.203 2.3906 5.9688 0 10.141-3.0312 4.1719-3.0156 6.1719-8.7812z"/><path d="m239.36 29.594v-4.3906h-41.312q0.59375-9.2812 5.5938-14.141t13.938-4.8594q5.1719 0 10.031 1.2656 4.8594 1.2656 9.6562 3.8125v-8.5q-4.8438-2.0469-9.9219-3.125t-10.297-1.0781q-13.094 0-20.734 7.6094-7.6406 7.625-7.6406 20.625 0 13.422 7.25 21.297 7.25 7.8906 19.562 7.8906 11.031 0 17.453-7.1094 6.4219-7.0938 6.4219-19.297zm-8.9844 2.6406q-0.0937 7.3594-4.125 11.75-4.0312 4.4062-10.672 4.4062-7.5156 0-12.031-4.25-4.5156-4.25-5.2031-11.969z"/></g></g><path d="m788.73 294.25h507.27" clip-path="url(#p2463401775)" fill="none" stroke="#404040" stroke-dasharray="2.96, 1.28" stroke-width=".8"/><path d="m788.73 294.25h-3.5" fill="#fff" stroke="#fff" stroke-width=".8"/><g transform="matrix(.1 0 0 -.1 757.44 298.05)" fill="#fff"><path d="m10.594 35.5h62.594v-8.2969h-62.594z"/><path d="m96.195 8.2969h16.109v55.625l-17.531-3.5156v8.9844l17.438 3.5156h9.8594v-64.609h16.109v-8.2969h-41.984z"/><path d="m158.1 12.406h10.312v-12.406h-10.312z"/><path d="m210.98 66.406q-7.6094 0-11.453-7.5-3.8281-7.4844-3.8281-22.531 0-14.984 3.8281-22.484 3.8438-7.5 11.453-7.5 7.6719 0 11.5 7.5 3.8438 7.5 3.8438 22.484 0 15.047-3.8438 22.531-3.8281 7.5-11.5 7.5zm0 7.8125q12.266 0 18.734-9.7031 6.4688-9.6875 6.4688-28.141 0-18.406-6.4688-28.109-6.4688-9.6875-18.734-9.6875-12.25 0-18.719 9.6875-6.4688 9.7031-6.4688 28.109 0 18.453 6.4688 28.141 6.4688 9.7031 18.719 9.7031z"/></g><path d="m788.73 273.63h507.27" clip-path="url(#p2463401775)" fill="none" stroke="#404040" stroke-dasharray="2.96, 1.28" stroke-width=".8"/><path d="m788.73 273.63h-3.5" fill="#fff" stroke="#fff" stroke-width=".8"/><g transform="matrix(.1 0 0 -.1 757.44 277.43)" fill="#fff"><path d="m10.594 35.5h62.594v-8.2969h-62.594z"/><path d="m115.57 66.406q-7.6094 0-11.453-7.5-3.8281-7.4844-3.8281-22.531 0-14.984 3.8281-22.484 3.8438-7.5 11.453-7.5 7.6719 0 11.5 7.5 3.8438 7.5 3.8438 22.484 0 15.047-3.8438 22.531-3.8281 7.5-11.5 7.5zm0 7.8125q12.266 0 18.734-9.7031 6.4688-9.6875 6.4688-28.141 0-18.406-6.4688-28.109-6.4688-9.6875-18.734-9.6875-12.25 0-18.719 9.6875-6.4688 9.7031-6.4688 28.109 0 18.453 6.4688 28.141 6.4687 9.7031 18.719 9.7031z"/><path d="m158.1 12.406h10.312v-12.406h-10.312z"/><path d="m210.98 34.625q-7.0312 0-11.062-3.7656-4.0156-3.7656-4.0156-10.344 0-6.5938 4.0156-10.359 4.0312-3.7656 11.062-3.7656t11.078 3.7812q4.0625 3.7969 4.0625 10.344 0 6.5781-4.0312 10.344-4.0156 3.7656-11.109 3.7656zm-9.8594 4.1875q-6.3438 1.5625-9.8906 5.9062-3.5312 4.3594-3.5312 10.609 0 8.7344 6.2188 13.812 6.2344 5.0781 17.062 5.0781 10.891 0 17.094-5.0781 6.2031-5.0781 6.2031-13.812 0-6.25-3.5469-10.609-3.5312-4.3438-9.8281-5.9062 7.125-1.6562 11.094-6.5 3.9844-4.8281 3.9844-11.797 0-10.609-6.4688-16.281-6.4688-5.6562-18.531-5.6562-12.047 0-18.531 5.6562-6.4688 5.6719-6.4688 16.281 0 6.9688 4 11.797 4.0156 4.8438 11.141 6.5zm-3.6094 15.578q0-5.6562 3.5312-8.8281 3.5469-3.1719 9.9375-3.1719 6.3594 0 9.9375 3.1719 3.5938 3.1719 3.5938 8.8281 0 5.6719-3.5938 8.8438-3.5781 3.1719-9.9375 3.1719-6.3906 0-9.9375-3.1719-3.5312-3.1719-3.5312-8.8438z"/></g><path d="m788.73 253.01h507.27" clip-path="url(#p2463401775)" fill="none" stroke="#404040" stroke-dasharray="2.96, 1.28" stroke-width=".8"/><path d="m788.73 253.01h-3.5" fill="#fff" stroke="#fff" stroke-width=".8"/><g transform="matrix(.1 0 0 -.1 757.44 256.81)" fill="#fff"><path d="m10.594 35.5h62.594v-8.2969h-62.594z"/><path d="m115.57 66.406q-7.6094 0-11.453-7.5-3.8281-7.4844-3.8281-22.531 0-14.984 3.8281-22.484 3.8438-7.5 11.453-7.5 7.6719 0 11.5 7.5 3.8438 7.5 3.8438 22.484 0 15.047-3.8438 22.531-3.8281 7.5-11.5 7.5zm0 7.8125q12.266 0 18.734-9.7031 6.4688-9.6875 6.4688-28.141 0-18.406-6.4688-28.109-6.4688-9.6875-18.734-9.6875-12.25 0-18.719 9.6875-6.4688 9.7031-6.4688 28.109 0 18.453 6.4688 28.141 6.4687 9.7031 18.719 9.7031z"/><path d="m158.1 12.406h10.312v-12.406h-10.312z"/><path d="m212.21 40.375q-6.6406 0-10.531-4.5469-3.875-4.5312-3.875-12.438 0-7.8594 3.875-12.438 3.8906-4.5625 10.531-4.5625 6.6406 0 10.516 4.5625 3.875 4.5781 3.875 12.438 0 7.9062-3.875 12.438-3.875 4.5469-10.516 4.5469zm19.578 30.922v-8.9844q-3.7188 1.75-7.5 2.6719-3.7812 0.9375-7.5 0.9375-9.7656 0-14.922-6.5938-5.1406-6.5938-5.875-19.922 2.875 4.25 7.2188 6.5156 4.3594 2.2656 9.5781 2.2656 10.984 0 17.359-6.6719 6.375-6.6562 6.375-18.125 0-11.234-6.6406-18.031-6.6406-6.7812-17.672-6.7812-12.656 0-19.344 9.6875-6.6875 9.7031-6.6875 28.109 0 17.281 8.2031 27.562t22.016 10.281q3.7188 0 7.5-0.73438t7.8906-2.1875z"/></g><path d="m788.73 232.4h507.27" clip-path="url(#p2463401775)" fill="none" stroke="#404040" stroke-dasharray="2.96, 1.28" stroke-width=".8"/><path d="m788.73 232.4h-3.5" fill="#fff" stroke="#fff" stroke-width=".8"/><g transform="matrix(.1 0 0 -.1 757.44 236.2)" fill="#fff"><path d="m10.594 35.5h62.594v-8.2969h-62.594z"/><path d="m115.57 66.406q-7.6094 0-11.453-7.5-3.8281-7.4844-3.8281-22.531 0-14.984 3.8281-22.484 3.8438-7.5 11.453-7.5 7.6719 0 11.5 7.5 3.8438 7.5 3.8438 22.484 0 15.047-3.8438 22.531-3.8281 7.5-11.5 7.5zm0 7.8125q12.266 0 18.734-9.7031 6.4688-9.6875 6.4688-28.141 0-18.406-6.4688-28.109-6.4688-9.6875-18.734-9.6875-12.25 0-18.719 9.6875-6.4688 9.7031-6.4688 28.109 0 18.453 6.4688 28.141 6.4687 9.7031 18.719 9.7031z"/><path d="m158.1 12.406h10.312v-12.406h-10.312z"/><path d="m217 64.312-24.906-38.922h24.906zm-2.5938 8.5938h12.406v-47.516h10.406v-8.2031h-10.406v-17.188h-9.8125v17.188h-32.906v9.5156z"/></g><path d="m788.73 211.78h507.27" clip-path="url(#p2463401775)" fill="none" stroke="#404040" stroke-dasharray="2.96, 1.28" stroke-width=".8"/><path d="m788.73 211.78h-3.5" fill="#fff" stroke="#fff" stroke-width=".8"/><g transform="matrix(.1 0 0 -.1 757.44 215.58)" fill="#fff"><path d="m10.594 35.5h62.594v-8.2969h-62.594z"/><path d="m115.57 66.406q-7.6094 0-11.453-7.5-3.8281-7.4844-3.8281-22.531 0-14.984 3.8281-22.484 3.8438-7.5 11.453-7.5 7.6719 0 11.5 7.5 3.8438 7.5 3.8438 22.484 0 15.047-3.8438 22.531-3.8281 7.5-11.5 7.5zm0 7.8125q12.266 0 18.734-9.7031 6.4688-9.6875 6.4688-28.141 0-18.406-6.4688-28.109-6.4688-9.6875-18.734-9.6875-12.25 0-18.719 9.6875-6.4688 9.7031-6.4688 28.109 0 18.453 6.4688 28.141 6.4687 9.7031 18.719 9.7031z"/><path d="m158.1 12.406h10.312v-12.406h-10.312z"/><path d="m198.39 8.2969h34.422v-8.2969h-46.281v8.2969q5.6094 5.8125 15.297 15.594 9.7031 9.7969 12.188 12.641 4.7344 5.3125 6.6094 9 1.8906 3.6875 1.8906 7.25 0 5.8125-4.0781 9.4688-4.0781 3.6719-10.625 3.6719-4.6406 0-9.7969-1.6094-5.1406-1.6094-11-4.8906v9.9688q5.9531 2.3906 11.125 3.6094 5.1875 1.2188 9.4844 1.2188 11.328 0 18.062-5.6719 6.7344-5.6562 6.7344-15.125 0-4.5-1.6875-8.5312-1.6719-4.0156-6.125-9.4844-1.2188-1.4219-7.7656-8.1875-6.5312-6.7656-18.453-18.922z"/></g><path d="m788.73 191.16h507.27" clip-path="url(#p2463401775)" fill="none" stroke="#404040" stroke-dasharray="2.96, 1.28" stroke-width=".8"/><path d="m788.73 191.16h-3.5" fill="#fff" stroke="#fff" stroke-width=".8"/><g transform="matrix(.1 0 0 -.1 765.82 194.96)" fill="#fff"><path d="m31.781 66.406q-7.6094 0-11.453-7.5-3.8281-7.4844-3.8281-22.531 0-14.984 3.8281-22.484 3.8438-7.5 11.453-7.5 7.6719 0 11.5 7.5 3.8438 7.5 3.8438 22.484 0 15.047-3.8438 22.531-3.8281 7.5-11.5 7.5zm0 7.8125q12.266 0 18.734-9.7031 6.4688-9.6875 6.4688-28.141 0-18.406-6.4688-28.109-6.4688-9.6875-18.734-9.6875-12.25 0-18.719 9.6875-6.4688 9.7031-6.4688 28.109 0 18.453 6.4688 28.141 6.4688 9.7031 18.719 9.7031z"/><path d="m74.311 12.406h10.312v-12.406h-10.312z"/><path d="m127.19 66.406q-7.6094 0-11.453-7.5-3.8281-7.4844-3.8281-22.531 0-14.984 3.8281-22.484 3.8438-7.5 11.453-7.5 7.6719 0 11.5 7.5 3.8438 7.5 3.8438 22.484 0 15.047-3.8438 22.531-3.8281 7.5-11.5 7.5zm0 7.8125q12.266 0 18.734-9.7031 6.4688-9.6875 6.4688-28.141 0-18.406-6.4688-28.109-6.4688-9.6875-18.734-9.6875-12.25 0-18.719 9.6875-6.4688 9.7031-6.4688 28.109 0 18.453 6.4688 28.141 6.4688 9.7031 18.719 9.7031z"/></g><path d="m788.73 170.54h507.27" clip-path="url(#p2463401775)" fill="none" stroke="#404040" stroke-dasharray="2.96, 1.28" stroke-width=".8"/><path d="m788.73 170.54h-3.5" fill="#fff" stroke="#fff" stroke-width=".8"/><g transform="matrix(.1 0 0 -.1 765.82 174.34)" fill="#fff"><path d="m31.781 66.406q-7.6094 0-11.453-7.5-3.8281-7.4844-3.8281-22.531 0-14.984 3.8281-22.484 3.8438-7.5 11.453-7.5 7.6719 0 11.5 7.5 3.8438 7.5 3.8438 22.484 0 15.047-3.8438 22.531-3.8281 7.5-11.5 7.5zm0 7.8125q12.266 0 18.734-9.7031 6.4688-9.6875 6.4688-28.141 0-18.406-6.4688-28.109-6.4688-9.6875-18.734-9.6875-12.25 0-18.719 9.6875-6.4688 9.7031-6.4688 28.109 0 18.453 6.4688 28.141 6.4688 9.7031 18.719 9.7031z"/><path d="m74.311 12.406h10.312v-12.406h-10.312z"/><path d="m114.6 8.2969h34.422v-8.2969h-46.281v8.2969q5.6094 5.8125 15.297 15.594 9.7031 9.7969 12.188 12.641 4.7344 5.3125 6.6094 9 1.8906 3.6875 1.8906 7.25 0 5.8125-4.0781 9.4688-4.0781 3.6719-10.625 3.6719-4.6406 0-9.7969-1.6094-5.1406-1.6094-11-4.8906v9.9688q5.9531 2.3906 11.125 3.6094 5.1875 1.2188 9.4844 1.2188 11.328 0 18.062-5.6719 6.7344-5.6562 6.7344-15.125 0-4.5-1.6875-8.5312-1.6719-4.0156-6.125-9.4844-1.2188-1.4219-7.7656-8.1875-6.5312-6.7656-18.453-18.922z"/></g><path d="m788.73 149.92h507.27" clip-path="url(#p2463401775)" fill="none" stroke="#404040" stroke-dasharray="2.96, 1.28" stroke-width=".8"/><path d="m788.73 149.92h-3.5" fill="#fff" stroke="#fff" stroke-width=".8"/><g transform="matrix(.1 0 0 -.1 765.82 153.72)" fill="#fff"><path d="m31.781 66.406q-7.6094 0-11.453-7.5-3.8281-7.4844-3.8281-22.531 0-14.984 3.8281-22.484 3.8438-7.5 11.453-7.5 7.6719 0 11.5 7.5 3.8438 7.5 3.8438 22.484 0 15.047-3.8438 22.531-3.8281 7.5-11.5 7.5zm0 7.8125q12.266 0 18.734-9.7031 6.4688-9.6875 6.4688-28.141 0-18.406-6.4688-28.109-6.4688-9.6875-18.734-9.6875-12.25 0-18.719 9.6875-6.4688 9.7031-6.4688 28.109 0 18.453 6.4688 28.141 6.4688 9.7031 18.719 9.7031z"/><path d="m74.311 12.406h10.312v-12.406h-10.312z"/><path d="m133.21 64.312-24.906-38.922h24.906zm-2.5938 8.5938h12.406v-47.516h10.406v-8.2031h-10.406v-17.188h-9.8125v17.188h-32.906v9.5156z"/></g><path d="m788.73 129.31h507.27" clip-path="url(#p2463401775)" fill="none" stroke="#404040" stroke-dasharray="2.96, 1.28" stroke-width=".8"/><path d="m788.73 129.31h-3.5" fill="#fff" stroke="#fff" stroke-width=".8"/><g transform="matrix(.1 0 0 -.1 765.82 133.1)" fill="#fff"><path d="m31.781 66.406q-7.6094 0-11.453-7.5-3.8281-7.4844-3.8281-22.531 0-14.984 3.8281-22.484 3.8438-7.5 11.453-7.5 7.6719 0 11.5 7.5 3.8438 7.5 3.8438 22.484 0 15.047-3.8438 22.531-3.8281 7.5-11.5 7.5zm0 7.8125q12.266 0 18.734-9.7031 6.4688-9.6875 6.4688-28.141 0-18.406-6.4688-28.109-6.4688-9.6875-18.734-9.6875-12.25 0-18.719 9.6875-6.4688 9.7031-6.4688 28.109 0 18.453 6.4688 28.141 6.4688 9.7031 18.719 9.7031z"/><path d="m74.311 12.406h10.312v-12.406h-10.312z"/><path d="m128.43 40.375q-6.6406 0-10.531-4.5469-3.875-4.5312-3.875-12.438 0-7.8594 3.875-12.438 3.8906-4.5625 10.531-4.5625 6.6406 0 10.516 4.5625 3.875 4.5781 3.875 12.438 0 7.9062-3.875 12.438-3.875 4.5469-10.516 4.5469zm19.578 30.922v-8.9844q-3.7188 1.75-7.5 2.6719-3.7812 0.9375-7.5 0.9375-9.7656 0-14.922-6.5938-5.1406-6.5938-5.875-19.922 2.875 4.25 7.2188 6.5156 4.3594 2.2656 9.5781 2.2656 10.984 0 17.359-6.6719 6.375-6.6562 6.375-18.125 0-11.234-6.6406-18.031-6.6406-6.7812-17.672-6.7812-12.656 0-19.344 9.6875-6.6875 9.7031-6.6875 28.109 0 17.281 8.2031 27.562t22.016 10.281q3.7188 0 7.5-0.73438t7.8906-2.1875z"/></g><path d="m788.73 108.69h507.27" clip-path="url(#p2463401775)" fill="none" stroke="#404040" stroke-dasharray="2.96, 1.28" stroke-width=".8"/><path d="m788.73 108.69h-3.5" fill="#fff" stroke="#fff" stroke-width=".8"/><g transform="matrix(.1 0 0 -.1 765.82 112.49)" fill="#fff"><path d="m31.781 66.406q-7.6094 0-11.453-7.5-3.8281-7.4844-3.8281-22.531 0-14.984 3.8281-22.484 3.8438-7.5 11.453-7.5 7.6719 0 11.5 7.5 3.8438 7.5 3.8438 22.484 0 15.047-3.8438 22.531-3.8281 7.5-11.5 7.5zm0 7.8125q12.266 0 18.734-9.7031 6.4688-9.6875 6.4688-28.141 0-18.406-6.4688-28.109-6.4688-9.6875-18.734-9.6875-12.25 0-18.719 9.6875-6.4688 9.7031-6.4688 28.109 0 18.453 6.4688 28.141 6.4688 9.7031 18.719 9.7031z"/><path d="m74.311 12.406h10.312v-12.406h-10.312z"/><path d="m127.19 34.625q-7.0312 0-11.062-3.7656-4.0156-3.7656-4.0156-10.344 0-6.5938 4.0156-10.359 4.0312-3.7656 11.062-3.7656t11.078 3.7812q4.0625 3.7969 4.0625 10.344 0 6.5781-4.0312 10.344-4.0156 3.7656-11.109 3.7656zm-9.8594 4.1875q-6.3438 1.5625-9.8906 5.9062-3.5312 4.3594-3.5312 10.609 0 8.7344 6.2188 13.812 6.2344 5.0781 17.062 5.0781 10.891 0 17.094-5.0781 6.2031-5.0781 6.2031-13.812 0-6.25-3.5469-10.609-3.5312-4.3438-9.8281-5.9062 7.125-1.6562 11.094-6.5 3.9844-4.8281 3.9844-11.797 0-10.609-6.4688-16.281-6.4688-5.6562-18.531-5.6562-12.047 0-18.531 5.6562-6.4688 5.6719-6.4688 16.281 0 6.9688 4 11.797 4.0156 4.8438 11.141 6.5zm-3.6094 15.578q0-5.6562 3.5312-8.8281 3.5469-3.1719 9.9375-3.1719 6.3594 0 9.9375 3.1719 3.5938 3.1719 3.5938 8.8281 0 5.6719-3.5938 8.8438-3.5781 3.1719-9.9375 3.1719-6.3906 0-9.9375-3.1719-3.5312-3.1719-3.5312-8.8438z"/></g><path d="m788.73 88.069h507.27" clip-path="url(#p2463401775)" fill="none" stroke="#404040" stroke-dasharray="2.96, 1.28" stroke-width=".8"/><g fill="#fff"><path d="m788.73 88.069h-3.5" stroke="#fff" stroke-width=".8"/><g transform="matrix(.1 0 0 -.1 765.82 91.868)"><path d="m12.406 8.2969h16.109v55.625l-17.531-3.5156v8.9844l17.438 3.5156h9.8594v-64.609h16.109v-8.2969h-41.984z"/><path d="m74.311 12.406h10.312v-12.406h-10.312z"/><path d="m127.19 66.406q-7.6094 0-11.453-7.5-3.8281-7.4844-3.8281-22.531 0-14.984 3.8281-22.484 3.8438-7.5 11.453-7.5 7.6719 0 11.5 7.5 3.8438 7.5 3.8438 22.484 0 15.047-3.8438 22.531-3.8281 7.5-11.5 7.5zm0 7.8125q12.266 0 18.734-9.7031 6.4688-9.6875 6.4688-28.141 0-18.406-6.4688-28.109-6.4688-9.6875-18.734-9.6875-12.25 0-18.719 9.6875-6.4688 9.7031-6.4688 28.109 0 18.453 6.4688 28.141 6.4688 9.7031 18.719 9.7031z"/></g><g transform="matrix(0 -.1 -.1 0 751.36 216.78)"><path d="m34.188 63.188-13.391-36.281h26.812zm-5.5781 9.7188h11.188l27.781-72.906h-10.25l-6.6406 18.703h-32.859l-6.6406-18.703h-10.406z"/><path d="m120.41 44.188q3.375 6.0625 8.0625 8.9375t11.031 2.875q8.5469 0 13.188-5.9844 4.6406-5.9688 4.6406-17v-33.016h-9.0312v32.719q0 7.8594-2.7969 11.656-2.7812 3.8125-8.4844 3.8125-6.9844 0-11.047-4.6406-4.0469-4.625-4.0469-12.641v-30.906h-9.0312v32.719q0 7.9062-2.7812 11.688t-8.5938 3.7812q-6.8906 0-10.953-4.6562-4.0469-4.6562-4.0469-12.625v-30.906h-9.0312v54.688h9.0312v-8.5q3.0781 5.0312 7.375 7.4219t10.203 2.3906q5.9688 0 10.141-3.0312 4.1719-3.0156 6.1719-8.7812z"/><path d="m183.93 8.2031v-29h-9.0312v75.484h9.0312v-8.2969q2.8438 4.875 7.1562 7.2344 4.3281 2.375 10.328 2.375 9.9688 0 16.188-7.9062 6.2344-7.9062 6.2344-20.797t-6.2344-20.812q-6.2188-7.9062-16.188-7.9062-6 0-10.328 2.375-4.3125 2.375-7.1562 7.25zm30.578 19.094q0 9.9062-4.0781 15.547-4.0781 5.6406-11.203 5.6406-7.1406 0-11.219-5.6406-4.0781-5.6406-4.0781-15.547t4.0781-15.547 11.219-5.6406q7.125 0 11.203 5.6406 4.0781 5.6406 4.0781 15.547z"/><path d="m238.72 75.984h8.9844v-75.984h-8.9844z"/><path d="m266.5 54.688h8.9844v-54.688h-8.9844zm0 21.297h8.9844v-11.391h-8.9844z"/><path d="m303.18 70.219v-15.531h18.5v-6.9844h-18.5v-29.688q0-6.6875 1.8281-8.5938 1.8281-1.9062 7.4531-1.9062h9.2188v-7.5156h-9.2188q-10.406 0-14.359 3.875-3.9531 3.8906-3.9531 14.141v29.688h-6.5938v6.9844h6.5938v15.531z"/><path d="m332.57 21.578v33.109h8.9844v-32.766q0-7.7656 3.0156-11.656 3.0312-3.875 9.0938-3.875 7.2656 0 11.484 4.6406 4.2344 4.6406 4.2344 12.656v31h8.9844v-54.688h-8.9844v8.4062q-3.2656-4.9844-7.5938-7.4062-4.3125-2.4219-10.031-2.4219-9.4219 0-14.312 5.8594-4.875 5.8594-4.875 17.141z"/><path d="m432.86 46.391v29.594h8.9844v-75.984h-8.9844v8.2031q-2.8281-4.875-7.1562-7.25-4.3125-2.375-10.375-2.375-9.9062 0-16.141 7.9062-6.2188 7.9219-6.2188 20.812t6.2188 20.797q6.2344 7.9062 16.141 7.9062 6.0625 0 10.375-2.375 4.3281-2.3594 7.1562-7.2344zm-30.609-19.094q0-9.9062 4.0781-15.547 4.0781-5.6406 11.203-5.6406t11.219 5.6406q4.1094 5.6406 4.1094 15.547t-4.1094 15.547q-4.0938 5.6406-11.219 5.6406t-11.203-5.6406q-4.0781-5.6406-4.0781-15.547z"/><path d="m507.13 29.594v-4.3906h-41.312q0.59375-9.2812 5.5938-14.141t13.938-4.8594q5.1719 0 10.031 1.2656 4.8594 1.2656 9.6562 3.8125v-8.5q-4.8438-2.0469-9.9219-3.125t-10.297-1.0781q-13.094 0-20.734 7.6094-7.6406 7.625-7.6406 20.625 0 13.422 7.25 21.297 7.25 7.8906 19.562 7.8906 11.031 0 17.453-7.1094 6.4219-7.0938 6.4219-19.297zm-8.9844 2.6406q-0.0937 7.3594-4.125 11.75-4.0312 4.4062-10.672 4.4062-7.5156 0-12.031-4.25-4.5156-4.25-5.2031-11.969z"/></g></g><g fill="none" stroke-linecap="square"><path d="m788.73 191.16h5.0727l0.15218-20.618h10.196l0.15219-20.618h10.957l0.15218-20.618h12.631l0.15218-20.618h17.298l0.15218-20.618h45.604l0.15218 20.618h17.349l0.15218 20.618h12.58l0.15219 20.618h10.957l0.15218 20.618h10.247l0.15218 20.618h9.9933l0.15219 20.618h10.247l0.15219 20.618h10.957l0.15218 20.618h12.58l0.15219 20.618h17.349l0.1522 20.618h45.604l0.1522-20.618h17.298l0.1521-20.618h12.631l0.1522-20.618h10.957l0.1522-20.618h10.247l0.1522-20.618h9.9933l0.1521-20.618h10.196l0.1522-20.618h10.957l0.1522-20.618h12.631l0.1521-20.618h17.298l0.1522-20.618h45.655l0.1522 20.618h17.298l0.1521 20.618h12.631l0.1522 20.618h10.957l0.1522 20.618h10.196l0.1521 20.618h9.9933l0.1522 20.618h10.247l0.1522 20.618h10.957l0.1522 20.618h2.4349" clip-path="url(#p2463401775)" stroke="#dc5d1e" stroke-width="1.5"/><g stroke="#fff"><path d="m788.73 191.16h507.27" clip-path="url(#p2463401775)" stroke-width="1.5"/><g stroke-linejoin="miter" stroke-width=".8"><path d="m788.73 304.56v-226.8"/><path d="m1296 304.56v-226.8"/><path d="m788.73 304.56h507.27"/><path d="m788.73 77.76h507.27"/></g></g></g><g transform="matrix(.12 0 0 -.12 925.97 71.76)" fill="#fff"><path d="m-0.29688 72.906h61.672v-8.3125h-25.875v-64.594h-9.9062v64.594h-25.891z"/><path d="m67.381 54.688h8.9844v-54.688h-8.9844zm0 21.297h8.9844v-11.391h-8.9844z"/><path d="m137.74 44.188q3.375 6.0625 8.0625 8.9375t11.031 2.875q8.5469 0 13.188-5.9844 4.6406-5.9688 4.6406-17v-33.016h-9.0312v32.719q0 7.8594-2.7969 11.656-2.7812 3.8125-8.4844 3.8125-6.9844 0-11.047-4.6406-4.0469-4.625-4.0469-12.641v-30.906h-9.0312v32.719q0 7.9062-2.7812 11.688t-8.5938 3.7812q-6.8906 0-10.953-4.6562-4.0469-4.6562-4.0469-12.625v-30.906h-9.0312v54.688h9.0312v-8.5q3.0781 5.0312 7.375 7.4219 4.2969 2.3906 10.203 2.3906 5.9688 0 10.141-3.0312 4.1719-3.0156 6.1719-8.7812z"/><path d="m239.36 29.594v-4.3906h-41.312q0.59375-9.2812 5.5938-14.141t13.938-4.8594q5.1719 0 10.031 1.2656 4.8594 1.2656 9.6562 3.8125v-8.5q-4.8438-2.0469-9.9219-3.125t-10.297-1.0781q-13.094 0-20.734 7.6094-7.6406 7.625-7.6406 20.625 0 13.422 7.25 21.297 7.25 7.8906 19.562 7.8906 11.031 0 17.453-7.1094 6.4219-7.0938 6.4219-19.297zm-8.9844 2.6406q-0.0937 7.3594-4.125 11.75-4.0312 4.4062-10.672 4.4062-7.5156 0-12.031-4.25-4.5156-4.25-5.2031-11.969z"/><use x="244.67773" width="100%" height="100%" xlink:href="#DejaVuSans-45"/><use x="280.76172" width="100%" height="100%" xlink:href="#DejaVuSans-67"/><path d="m381.2 48.391q-7.2188 0-11.422-5.6406-4.2031-5.6406-4.2031-15.453t4.1719-15.453q4.1875-5.6406 11.453-5.6406 7.1875 0 11.375 5.6562 4.2031 5.6719 4.2031 15.438 0 9.7188-4.2031 15.406-4.1875 5.6875-11.375 5.6875zm0 7.6094q11.719 0 18.406-7.625 6.7031-7.6094 6.7031-21.078 0-13.422-6.7031-21.078-6.6875-7.6406-18.406-7.6406-11.766 0-18.438 7.6406-6.6562 7.6562-6.6562 21.078 0 13.469 6.6562 21.078 6.6719 7.625 18.438 7.625z"/><path d="m466.66 33.016v-33.016h-8.9844v32.719q0 7.7656-3.0312 11.609-3.0312 3.8594-9.0781 3.8594-7.2812 0-11.484-4.6406-4.2031-4.625-4.2031-12.641v-30.906h-9.0312v54.688h9.0312v-8.5q3.2344 4.9375 7.5938 7.375 4.375 2.4375 10.094 2.4375 9.4219 0 14.25-5.8281 4.8438-5.8281 4.8438-17.156z"/><path d="m493.46 70.219v-15.531h18.5v-6.9844h-18.5v-29.688q0-6.6875 1.8281-8.5938 1.8281-1.9062 7.4531-1.9062h9.2188v-7.5156h-9.2188q-10.406 0-14.359 3.875-3.9531 3.8906-3.9531 14.141v29.688h-6.5938v6.9844h6.5938v15.531z"/><path d="m523.78 54.688h8.9844v-54.688h-8.9844zm0 21.297h8.9844v-11.391h-8.9844z"/><path d="m597.03 33.016v-33.016h-8.9844v32.719q0 7.7656-3.0312 11.609-3.0312 3.8594-9.0781 3.8594-7.2812 0-11.484-4.6406-4.2031-4.625-4.2031-12.641v-30.906h-9.0312v54.688h9.0312v-8.5q3.2344 4.9375 7.5938 7.375 4.375 2.4375 10.094 2.4375 9.4219 0 14.25-5.8281 4.8438-5.8281 4.8438-17.156z"/><path d="m614.02 21.578v33.109h8.9844v-32.766q0-7.7656 3.0156-11.656 3.0312-3.875 9.0938-3.875 7.2656 0 11.484 4.6406 4.2344 4.6406 4.2344 12.656v31h8.9844v-54.688h-8.9844v8.4062q-3.2656-4.9844-7.5938-7.4062-4.3125-2.4219-10.031-2.4219-9.4219 0-14.312 5.8594-4.875 5.8594-4.875 17.141z"/><path d="m699.51 48.391q-7.2188 0-11.422-5.6406-4.2031-5.6406-4.2031-15.453t4.1719-15.453q4.1875-5.6406 11.453-5.6406 7.1875 0 11.375 5.6562 4.2031 5.6719 4.2031 15.438 0 9.7188-4.2031 15.406-4.1875 5.6875-11.375 5.6875zm0 7.6094q11.719 0 18.406-7.625 6.7031-7.6094 6.7031-21.078 0-13.422-6.7031-21.078-6.6875-7.6406-18.406-7.6406-11.766 0-18.438 7.6406-6.6562 7.6562-6.6562 21.078 0 13.469 6.6562 21.078 6.6719 7.625 18.438 7.625z"/><path d="m738.58 21.578v33.109h8.9844v-32.766q0-7.7656 3.0156-11.656 3.0312-3.875 9.0938-3.875 7.2656 0 11.484 4.6406 4.2344 4.6406 4.2344 12.656v31h8.9844v-54.688h-8.9844v8.4062q-3.2656-4.9844-7.5938-7.4062-4.3125-2.4219-10.031-2.4219-9.4219 0-14.312 5.8594-4.875 5.8594-4.875 17.141z"/><use x="793.45703" width="100%" height="100%" xlink:href="#DejaVuSans-115"/><use x="877.34375" width="100%" height="100%" xlink:href="#DejaVuSans-86"/><path d="m972.28 27.484q-10.891 0-15.094-2.4844-4.2031-2.4844-4.2031-8.5 0-4.7812 3.1562-7.5938 3.1562-2.7969 8.5625-2.7969 7.4844 0 12 5.2969t4.5156 14.078v2zm17.922 3.7188v-31.203h-8.9844v8.2969q-3.0781-4.9688-7.6719-7.3438t-11.234-2.375q-8.3906 0-13.359 4.7188-4.9531 4.7188-4.9531 12.625 0 9.2188 6.1719 13.906 6.1875 4.6875 18.438 4.6875h12.609v0.89062q0 6.2031-4.0781 9.5938-4.0781 3.3906-11.453 3.3906-4.6875 0-9.1406-1.125-4.4375-1.125-8.5312-3.375v8.3125q4.9219 1.9062 9.5625 2.8438 4.6406 0.95312 9.0312 0.95312 11.875 0 17.734-6.1562 5.8594-6.1406 5.8594-18.641z"/><path d="m1008.7 75.984h8.9844v-75.984h-8.9844z"/><path d="m1035.6 21.578v33.109h8.9843v-32.766q0-7.7656 3.0157-11.656 3.0312-3.875 9.0937-3.875 7.2656 0 11.484 4.6406 4.2344 4.6406 4.2344 12.656v31h8.9843v-54.688h-8.9843v8.4062q-3.2657-4.9844-7.5938-7.4062-4.3125-2.4219-10.031-2.4219-9.4219 0-14.312 5.8594-4.875 5.8594-4.875 17.141z"/><path d="m1146.6 29.594v-4.3906h-41.312q0.5937-9.2812 5.5937-14.141t13.938-4.8594q5.1719 0 10.031 1.2656t9.6562 3.8125v-8.5q-4.8437-2.0469-9.9218-3.125-5.0782-1.0781-10.297-1.0781-13.094 0-20.734 7.6094-7.6406 7.625-7.6406 20.625 0 13.422 7.25 21.297 7.25 7.8906 19.562 7.8906 11.031 0 17.453-7.1094 6.4219-7.0938 6.4219-19.297zm-8.9844 2.6406q-0.094 7.3594-4.125 11.75-4.0312 4.4062-10.672 4.4062-7.5156 0-12.031-4.25t-5.2031-11.969z"/><use x="1151.9668" width="100%" height="100%" xlink:href="#DejaVuSans-45"/><use x="1188.0508" width="100%" height="100%" xlink:href="#DejaVuSans-68"/><path d="m1274.5 54.688h8.9844v-54.688h-8.9844zm0 21.297h8.9844v-11.391h-8.9844z"/><use x="1292.8359" width="100%" height="100%" xlink:href="#DejaVuSans-115"/><use x="1344.9355" width="100%" height="100%" xlink:href="#DejaVuSans-99"/><use x="1399.916" width="100%" height="100%" xlink:href="#DejaVuSans-114"/><path d="m1495 29.594v-4.3906h-41.312q0.5938-9.2812 5.5938-14.141t13.938-4.8594q5.1718 0 10.031 1.2656t9.6563 3.8125v-8.5q-4.8438-2.0469-9.9219-3.125t-10.297-1.0781q-13.094 0-20.734 7.6094-7.6406 7.625-7.6406 20.625 0 13.422 7.25 21.297 7.25 7.8906 19.562 7.8906 11.031 0 17.453-7.1094 6.4219-7.0938 6.4219-19.297zm-8.9844 2.6406q-0.094 7.3594-4.125 11.75-4.0312 4.4062-10.672 4.4062-7.5157 0-12.031-4.25t-5.2031-11.969z"/><path d="m1518.6 70.219v-15.531h18.5v-6.9844h-18.5v-29.688q0-6.6875 1.8282-8.5938 1.8281-1.9062 7.4531-1.9062h9.2187v-7.5156h-9.2187q-10.406 0-14.359 3.875-3.9531 3.8906-3.9531 14.141v29.688h-6.5938v6.9844h6.5938v15.531z"/><path d="m1595.7 29.594v-4.3906h-41.312q0.5938-9.2812 5.5938-14.141t13.938-4.8594q5.1719 0 10.031 1.2656 4.8594 1.2656 9.6563 3.8125v-8.5q-4.8438-2.0469-9.9219-3.125t-10.297-1.0781q-13.094 0-20.734 7.6094-7.6407 7.625-7.6407 20.625 0 13.422 7.25 21.297 7.25 7.8906 19.562 7.8906 11.031 0 17.453-7.1094 6.4218-7.0938 6.4218-19.297zm-8.9843 2.6406q-0.094 7.3594-4.125 11.75-4.0313 4.4062-10.672 4.4062-7.5156 0-12.031-4.25-4.5156-4.25-5.2031-11.969z"/><path d="m1686.3 70.516v-9.625q-5.6094 2.6875-10.594 4-4.9843 1.3281-9.625 1.3281-8.0468 0-12.422-3.125t-4.375-8.8906q0-4.8438 2.9062-7.3125 2.9063-2.4531 11.016-3.9688l5.9532-1.2188q11.031-2.1094 16.281-7.4062t5.25-14.172q0-10.609-7.1094-16.078-7.0937-5.4688-20.812-5.4688-5.1718 0-11.016 1.1719-5.8281 1.1719-12.078 3.4688v10.156q6-3.3594 11.766-5.0781 5.7656-1.7031 11.328-1.7031 8.4375 0 13.031 3.3125 4.5937 3.3281 4.5937 9.4844 0 5.3594-3.2968 8.3906-3.2969 3.0312-10.812 4.5469l-6.0157 1.1719q-11.031 2.1875-15.969 6.875-4.9219 4.6875-4.9219 13.047 0 9.6719 6.8125 15.234t18.766 5.5625q5.1407 0 10.453-0.9375 5.3281-0.92188 10.891-2.7656z"/><path d="m1705.7 54.688h8.9844v-54.688h-8.9844zm0 21.297h8.9844v-11.391h-8.9844z"/><path d="m1769.5 27.984q0 9.7656-4.0313 15.125-4.0156 5.375-11.297 5.375-7.2188 0-11.25-5.375-4.0313-5.3594-4.0313-15.125 0-9.7188 4.0313-15.094 4.0312-5.375 11.25-5.375 7.2812 0 11.297 5.375 4.0313 5.375 4.0313 15.094zm8.9844-21.203q0-13.953-6.2032-20.766-6.1875-6.8125-18.984-6.8125-4.7344 0-8.9375 0.70312-4.2032 0.70312-8.1563 2.1719v8.7344q3.9531-2.1406 7.8125-3.1562 3.8594-1.0312 7.8594-1.0312 8.8437 0 13.234 4.6094 4.3906 4.6094 4.3906 13.938v4.4531q-2.7813-4.8438-7.125-7.2344-4.3438-2.3906-10.406-2.3906-10.047 0-16.203 7.6562-6.1562 7.6719-6.1562 20.328 0 12.688 6.1562 20.344 6.1563 7.6719 16.203 7.6719 6.0625 0 10.406-2.3906 4.3437-2.3906 7.125-7.2188v8.2969h8.9844z"/><path d="m1842.4 33.016v-33.016h-8.9844v32.719q0 7.7656-3.0312 11.609-3.0313 3.8594-9.0781 3.8594-7.2813 0-11.484-4.6406-4.2031-4.625-4.2031-12.641v-30.906h-9.0313v54.688h9.0313v-8.5q3.2343 4.9375 7.5937 7.375 4.375 2.4375 10.094 2.4375 9.4218 0 14.25-5.8281 4.8437-5.8281 4.8437-17.156z"/><path d="m1885.2 27.484q-10.891 0-15.094-2.4844t-4.2031-8.5q0-4.7812 3.1562-7.5938 3.1563-2.7969 8.5625-2.7969 7.4844 0 12 5.2969 4.5157 5.2969 4.5157 14.078v2zm17.922 3.7188v-31.203h-8.9843v8.2969q-3.0782-4.9688-7.6719-7.3438-4.5938-2.375-11.234-2.375-8.3906 0-13.359 4.7188-4.9531 4.7188-4.9531 12.625 0 9.2188 6.1719 13.906 6.1875 4.6875 18.438 4.6875h12.609v0.89062q0 6.2031-4.0782 9.5938-4.0781 3.3906-11.453 3.3906-4.6875 0-9.1406-1.125-4.4375-1.125-8.5313-3.375v8.3125q4.9219 1.9062 9.5625 2.8438 4.6407 0.95312 9.0313 0.95312 11.875 0 17.734-6.1562 5.8593-6.1406 5.8593-18.641z"/><path d="m1921.6 75.984h8.9843v-75.984h-8.9843z"/></g></g></g></svg>
