<?xml version="1.0" encoding="UTF-8"?>
<svg width="196.83mm" height="97.369mm" version="1.1" viewBox="0 0 196.83 97.369" xmlns="http://www.w3.org/2000/svg" xmlns:xlink="http://www.w3.org/1999/xlink"><defs><clipPath id="p895a3dc146"><rect x="180" y="77.76" width="507.27" height="226.8"/></clipPath><path id="m4772596896" d="m0 0v3.5" stroke="#fff" stroke-width=".8"/><path id="DejaVuSans-48" d="m31.781 66.406q-7.6094 0-11.453-7.5-3.8281-7.4844-3.8281-22.531 0-14.984 3.8281-22.484 3.8438-7.5 11.453-7.5 7.6719 0 11.5 7.5 3.8438 7.5 3.8438 22.484 0 15.047-3.8438 22.531-3.8281 7.5-11.5 7.5zm0 7.8125q12.266 0 18.734-9.7031 6.4688-9.6875 6.4688-28.141 0-18.406-6.4688-28.109-6.4688-9.6875-18.734-9.6875-12.25 0-18.719 9.6875-6.4688 9.7031-6.4688 28.109 0 18.453 6.4688 28.141 6.4688 9.7031 18.719 9.7031z"/><path id="DejaVuSans-49" d="m12.406 8.2969h16.109v55.625l-17.531-3.5156v8.9844l17.438 3.5156h9.8594v-64.609h16.109v-8.2969h-41.984z"/><path id="DejaVuSans-50" d="m19.188 8.2969h34.422v-8.2969h-46.281v8.2969q5.6094 5.8125 15.297 15.594 9.7031 9.7969 12.188 12.641 4.7344 5.3125 6.6094 9 1.8906 3.6875 1.8906 7.25 0 5.8125-4.0781 9.4688-4.0781 3.6719-10.625 3.6719-4.6406 0-9.7969-1.6094-5.1406-1.6094-11-4.8906v9.9688q5.9531 2.3906 11.125 3.6094 5.1875 1.2188 9.4844 1.2188 11.328 0 18.062-5.6719 6.7344-5.6562 6.7344-15.125 0-4.5-1.6875-8.5312-1.6719-4.0156-6.125-9.4844-1.2188-1.4219-7.7656-8.1875-6.5312-6.7656-18.453-18.922z"/><path id="DejaVuSans-51" d="m40.578 39.312q7.0781-1.5156 11.047-6.3125 3.9844-4.7812 3.9844-11.812 0-10.781-7.4219-16.703-7.4219-5.9062-21.094-5.9062-4.5781 0-9.4375 0.90625t-10.031 2.7188v9.5156q4.0938-2.3906 8.9688-3.6094 4.8906-1.2188 10.219-1.2188 9.2656 0 14.125 3.6562t4.8594 10.641q0 6.4531-4.5156 10.078-4.5156 3.6406-12.562 3.6406h-8.5v8.1094h8.8906q7.2656 0 11.125 2.9062t3.8594 8.375q0 5.6094-3.9844 8.6094-3.9688 3.0156-11.391 3.0156-4.0625 0-8.7031-0.89062-4.6406-0.875-10.203-2.7188v8.7812q5.625 1.5625 10.531 2.3438t9.25 0.78125q11.234 0 17.766-5.1094 6.5469-5.0938 6.5469-13.781 0-6.0625-3.4688-10.234t-9.8594-5.7812z"/><path id="DejaVuSans-52" d="m37.797 64.312-24.906-38.922h24.906zm-2.5938 8.5938h12.406v-47.516h10.406v-8.2031h-10.406v-17.188h-9.8125v17.188h-32.906v9.5156z"/><path id="DejaVuSans-53" d="m10.797 72.906h38.719v-8.3125h-29.688v-17.859q2.1406 0.73438 4.2812 1.0938 2.1562 0.35938 4.3125 0.35938 12.203 0 19.328-6.6875 7.1406-6.6875 7.1406-18.109 0-11.766-7.3281-18.297-7.3281-6.5156-20.656-6.5156-4.5938 0-9.3594 0.78125-4.75 0.78125-9.8281 2.3438v9.9219q4.3906-2.3906 9.0781-3.5625t9.9062-1.1719q8.4531 0 13.375 4.4375 4.9375 4.4375 4.9375 12.062 0 7.6094-4.9375 12.047-4.9219 4.4531-13.375 4.4531-3.9531 0-7.8906-0.875-3.9219-0.875-8.0156-2.7344z"/><path id="DejaVuSans-54" d="m33.016 40.375q-6.6406 0-10.531-4.5469-3.875-4.5312-3.875-12.438 0-7.8594 3.875-12.438 3.8906-4.5625 10.531-4.5625t10.516 4.5625q3.875 4.5781 3.875 12.438 0 7.9062-3.875 12.438-3.875 4.5469-10.516 4.5469zm19.578 30.922v-8.9844q-3.7188 1.75-7.5 2.6719-3.7812 0.9375-7.5 0.9375-9.7656 0-14.922-6.5938-5.1406-6.5938-5.875-19.922 2.875 4.25 7.2188 6.5156 4.3594 2.2656 9.5781 2.2656 10.984 0 17.359-6.6719 6.375-6.6562 6.375-18.125 0-11.234-6.6406-18.031-6.6406-6.7812-17.672-6.7812-12.656 0-19.344 9.6875-6.6875 9.7031-6.6875 28.109 0 17.281 8.2031 27.562t22.016 10.281q3.7188 0 7.5-0.73438t7.8906-2.1875z"/><path id="DejaVuSans-55" d="m8.2031 72.906h46.875v-4.2031l-26.469-68.703h-10.297l24.906 64.594h-35.016z"/><path id="DejaVuSans-56" d="m31.781 34.625q-7.0312 0-11.062-3.7656-4.0156-3.7656-4.0156-10.344 0-6.5938 4.0156-10.359 4.0312-3.7656 11.062-3.7656t11.078 3.7812q4.0625 3.7969 4.0625 10.344 0 6.5781-4.0312 10.344-4.0156 3.7656-11.109 3.7656zm-9.8594 4.1875q-6.3438 1.5625-9.8906 5.9062-3.5312 4.3594-3.5312 10.609 0 8.7344 6.2188 13.812 6.2344 5.0781 17.062 5.0781 10.891 0 17.094-5.0781t6.2031-13.812q0-6.25-3.5469-10.609-3.5312-4.3438-9.8281-5.9062 7.125-1.6562 11.094-6.5 3.9844-4.8281 3.9844-11.797 0-10.609-6.4688-16.281-6.4688-5.6562-18.531-5.6562-12.047 0-18.531 5.6562-6.4688 5.6719-6.4688 16.281 0 6.9688 4 11.797 4.0156 4.8438 11.141 6.5zm-3.6094 15.578q0-5.6562 3.5312-8.8281 3.5469-3.1719 9.9375-3.1719 6.3594 0 9.9375 3.1719 3.5938 3.1719 3.5938 8.8281 0 5.6719-3.5938 8.8438-3.5781 3.1719-9.9375 3.1719-6.3906 0-9.9375-3.1719-3.5312-3.1719-3.5312-8.8438z"/><path id="DejaVuSans-57" d="m10.984 1.5156v8.9844q3.7188-1.7656 7.5156-2.6875 3.8125-0.92188 7.4844-0.92188 9.7656 0 14.906 6.5625 5.1562 6.5625 5.8906 19.953-2.8281-4.2031-7.1875-6.4531-4.3438-2.25-9.6094-2.25-10.938 0-17.312 6.6094-6.375 6.625-6.375 18.109 0 11.219 6.6406 18 6.6406 6.7969 17.672 6.7969 12.656 0 19.312-9.7031 6.6719-9.6875 6.6719-28.141 0-17.234-8.1875-27.516-8.1719-10.281-21.984-10.281-3.7188 0-7.5312 0.73438-3.7969 0.73438-7.9062 2.2031zm19.625 30.906q6.6406 0 10.516 4.5312 3.8906 4.5469 3.8906 12.469 0 7.8594-3.8906 12.422-3.875 4.5625-10.516 4.5625t-10.516-4.5625-3.875-12.422q0-7.9219 3.875-12.469 3.875-4.5312 10.516-4.5312z"/><path id="DejaVuSans-84" d="m-0.29688 72.906h61.672v-8.3125h-25.875v-64.594h-9.9062v64.594h-25.891z"/><path id="DejaVuSans-105" d="m9.4219 54.688h8.9844v-54.688h-8.9844zm0 21.297h8.9844v-11.391h-8.9844z"/><path id="DejaVuSans-109" d="m52 44.188q3.375 6.0625 8.0625 8.9375t11.031 2.875q8.5469 0 13.188-5.9844 4.6406-5.9688 4.6406-17v-33.016h-9.0312v32.719q0 7.8594-2.7969 11.656-2.7812 3.8125-8.4844 3.8125-6.9844 0-11.047-4.6406-4.0469-4.625-4.0469-12.641v-30.906h-9.0312v32.719q0 7.9062-2.7812 11.688t-8.5938 3.7812q-6.8906 0-10.953-4.6562-4.0469-4.6562-4.0469-12.625v-30.906h-9.0312v54.688h9.0312v-8.5q3.0781 5.0312 7.375 7.4219t10.203 2.3906q5.9688 0 10.141-3.0312 4.1719-3.0156 6.1719-8.7812z"/><path id="DejaVuSans-101" d="m56.203 29.594v-4.3906h-41.312q0.59375-9.2812 5.5938-14.141t13.938-4.8594q5.1719 0 10.031 1.2656t9.6562 3.8125v-8.5q-4.8438-2.0469-9.9219-3.125t-10.297-1.0781q-13.094 0-20.734 7.6094-7.6406 7.625-7.6406 20.625 0 13.422 7.25 21.297 7.25 7.8906 19.562 7.8906 11.031 0 17.453-7.1094 6.4219-7.0938 6.4219-19.297zm-8.9844 2.6406q-0.09375 7.3594-4.125 11.75-4.0312 4.4062-10.672 4.4062-7.5156 0-12.031-4.25t-5.2031-11.969z"/><path id="m189d79b39d" d="m0 0h-3.5" stroke="#fff" stroke-width=".8"/><path id="DejaVuSans-8722" d="m10.594 35.5h62.594v-8.2969h-62.594z"/><path id="DejaVuSans-46" d="M 10.688,12.406 H 21 V 0 H 10.688 Z"/><path id="DejaVuSans-65" d="m34.188 63.188-13.391-36.281h26.812zm-5.5781 9.7188h11.188l27.781-72.906h-10.25l-6.6406 18.703h-32.859l-6.6406-18.703h-10.406z"/><path id="DejaVuSans-112" d="m18.109 8.2031v-29h-9.0312v75.484h9.0312v-8.2969q2.8438 4.875 7.1562 7.2344 4.3281 2.375 10.328 2.375 9.9688 0 16.188-7.9062 6.2344-7.9062 6.2344-20.797t-6.2344-20.812q-6.2188-7.9062-16.188-7.9062-6 0-10.328 2.375-4.3125 2.375-7.1562 7.25zm30.578 19.094q0 9.9062-4.0781 15.547t-11.203 5.6406q-7.1406 0-11.219-5.6406t-4.0781-15.547 4.0781-15.547 11.219-5.6406q7.125 0 11.203 5.6406t4.0781 15.547z"/><path id="DejaVuSans-108" d="m9.4219 75.984h8.9844v-75.984h-8.9844z"/><path id="DejaVuSans-116" d="m18.312 70.219v-15.531h18.5v-6.9844h-18.5v-29.688q0-6.6875 1.8281-8.5938t7.4531-1.9062h9.2188v-7.5156h-9.2188q-10.406 0-14.359 3.875-3.9531 3.8906-3.9531 14.141v29.688h-6.5938v6.9844h6.5938v15.531z"/><path id="DejaVuSans-117" d="m8.5 21.578v33.109h8.9844v-32.766q0-7.7656 3.0156-11.656 3.0312-3.875 9.0938-3.875 7.2656 0 11.484 4.6406 4.2344 4.6406 4.2344 12.656v31h8.9844v-54.688h-8.9844v8.4062q-3.2656-4.9844-7.5938-7.4062-4.3125-2.4219-10.031-2.4219-9.4219 0-14.312 5.8594-4.875 5.8594-4.875 17.141z"/><path id="DejaVuSans-100" d="m45.406 46.391v29.594h8.9844v-75.984h-8.9844v8.2031q-2.8281-4.875-7.1562-7.25-4.3125-2.375-10.375-2.375-9.9062 0-16.141 7.9062-6.2188 7.9219-6.2188 20.812t6.2188 20.797q6.2344 7.9062 16.141 7.9062 6.0625 0 10.375-2.375 4.3281-2.3594 7.1562-7.2344zm-30.609-19.094q0-9.9062 4.0781-15.547t11.203-5.6406 11.219 5.6406q4.1094 5.6406 4.1094 15.547t-4.1094 15.547q-4.0938 5.6406-11.219 5.6406t-11.203-5.6406-4.0781-15.547z"/><path id="DejaVuSans-110" d="m54.891 33.016v-33.016h-8.9844v32.719q0 7.7656-3.0312 11.609-3.0312 3.8594-9.0781 3.8594-7.2812 0-11.484-4.6406-4.2031-4.625-4.2031-12.641v-30.906h-9.0312v54.688h9.0312v-8.5q3.2344 4.9375 7.5938 7.375 4.375 2.4375 10.094 2.4375 9.4219 0 14.25-5.8281 4.8438-5.8281 4.8438-17.156z"/><path id="DejaVuSans-97" d="m34.281 27.484q-10.891 0-15.094-2.4844t-4.2031-8.5q0-4.7812 3.1562-7.5938 3.1562-2.7969 8.5625-2.7969 7.4844 0 12 5.2969t4.5156 14.078v2zm17.922 3.7188v-31.203h-8.9844v8.2969q-3.0781-4.9688-7.6719-7.3438t-11.234-2.375q-8.3906 0-13.359 4.7188-4.9531 4.7188-4.9531 12.625 0 9.2188 6.1719 13.906 6.1875 4.6875 18.438 4.6875h12.609v0.89062q0 6.2031-4.0781 9.5938t-11.453 3.3906q-4.6875 0-9.1406-1.125-4.4375-1.125-8.5312-3.375v8.3125q4.9219 1.9062 9.5625 2.8438 4.6406 0.95312 9.0312 0.95312 11.875 0 17.734-6.1562 5.8594-6.1406 5.8594-18.641z"/><path id="DejaVuSans-111" d="m30.609 48.391q-7.2188 0-11.422-5.6406t-4.2031-15.453 4.1719-15.453q4.1875-5.6406 11.453-5.6406 7.1875 0 11.375 5.6562 4.2031 5.6719 4.2031 15.438 0 9.7188-4.2031 15.406-4.1875 5.6875-11.375 5.6875zm0 7.6094q11.719 0 18.406-7.625 6.7031-7.6094 6.7031-21.078 0-13.422-6.7031-21.078-6.6875-7.6406-18.406-7.6406-11.766 0-18.438 7.6406-6.6562 7.6562-6.6562 21.078 0 13.469 6.6562 21.078 6.6719 7.625 18.438 7.625z"/><path id="DejaVuSans-103" d="m45.406 27.984q0 9.7656-4.0312 15.125-4.0156 5.375-11.297 5.375-7.2188 0-11.25-5.375-4.0312-5.3594-4.0312-15.125 0-9.7188 4.0312-15.094t11.25-5.375q7.2812 0 11.297 5.375 4.0312 5.375 4.0312 15.094zm8.9844-21.203q0-13.953-6.2031-20.766-6.1875-6.8125-18.984-6.8125-4.7344 0-8.9375 0.70312t-8.1562 2.1719v8.7344q3.9531-2.1406 7.8125-3.1562 3.8594-1.0312 7.8594-1.0312 8.8438 0 13.234 4.6094t4.3906 13.938v4.4531q-2.7812-4.8438-7.125-7.2344t-10.406-2.3906q-10.047 0-16.203 7.6562-6.1562 7.6719-6.1562 20.328 0 12.688 6.1562 20.344 6.1562 7.6719 16.203 7.6719 6.0625 0 10.406-2.3906t7.125-7.2188v8.2969h8.9844z"/><path id="DejaVuSans-83" d="m53.516 70.516v-9.625q-5.6094 2.6875-10.594 4-4.9844 1.3281-9.625 1.3281-8.0469 0-12.422-3.125t-4.375-8.8906q0-4.8438 2.9062-7.3125 2.9062-2.4531 11.016-3.9688l5.9531-1.2188q11.031-2.1094 16.281-7.4062t5.25-14.172q0-10.609-7.1094-16.078-7.0938-5.4688-20.812-5.4688-5.1719 0-11.016 1.1719-5.8281 1.1719-12.078 3.4688v10.156q6-3.3594 11.766-5.0781 5.7656-1.7031 11.328-1.7031 8.4375 0 13.031 3.3125 4.5938 3.3281 4.5938 9.4844 0 5.3594-3.2969 8.3906t-10.812 4.5469l-6.0156 1.1719q-11.031 2.1875-15.969 6.875-4.9219 4.6875-4.9219 13.047 0 9.6719 6.8125 15.234t18.766 5.5625q5.1406 0 10.453-0.9375 5.3281-0.92188 10.891-2.7656z"/></defs><g transform="translate(36.425,-89.899)"><g transform="matrix(.35278 0 0 .35278 -84.064 67.8)" stroke-linejoin="round"><path d="m180 304.56h507.27v-226.8h-507.27z" fill="none"/><path d="m180 304.56v-226.8" clip-path="url(#p895a3dc146)" fill="none" stroke="#404040" stroke-dasharray="2.96, 1.28" stroke-width=".8"/><use x="180" y="304.56" width="100%" height="100%" fill="#ffffff" stroke="#ffffff" stroke-width=".8" xlink:href="#m4772596896"/><g transform="matrix(.1 0 0 -.1 176.82 319.16)" fill="#fff"><use width="100%" height="100%" xlink:href="#DejaVuSans-48"/></g><path d="m230.73 304.56v-226.8" clip-path="url(#p895a3dc146)" fill="none" stroke="#404040" stroke-dasharray="2.96, 1.28" stroke-width=".8"/><use x="230.72728" y="304.56" width="100%" height="100%" fill="#ffffff" stroke="#ffffff" stroke-width=".8" xlink:href="#m4772596896"/><g transform="matrix(.1 0 0 -.1 227.55 319.16)" fill="#fff"><use width="100%" height="100%" xlink:href="#DejaVuSans-49"/></g><path d="m281.45 304.56v-226.8" clip-path="url(#p895a3dc146)" fill="none" stroke="#404040" stroke-dasharray="2.96, 1.28" stroke-width=".8"/><use x="281.45456" y="304.56" width="100%" height="100%" fill="#ffffff" stroke="#ffffff" stroke-width=".8" xlink:href="#m4772596896"/><g transform="matrix(.1 0 0 -.1 278.27 319.16)" fill="#fff"><use width="100%" height="100%" xlink:href="#DejaVuSans-50"/></g><path d="m332.18 304.56v-226.8" clip-path="url(#p895a3dc146)" fill="none" stroke="#404040" stroke-dasharray="2.96, 1.28" stroke-width=".8"/><use x="332.18182" y="304.56" width="100%" height="100%" fill="#ffffff" stroke="#ffffff" stroke-width=".8" xlink:href="#m4772596896"/><g transform="matrix(.1 0 0 -.1 329 319.16)" fill="#fff"><use width="100%" height="100%" xlink:href="#DejaVuSans-51"/></g><path d="m382.91 304.56v-226.8" clip-path="url(#p895a3dc146)" fill="none" stroke="#404040" stroke-dasharray="2.96, 1.28" stroke-width=".8"/><use x="382.90909" y="304.56" width="100%" height="100%" fill="#ffffff" stroke="#ffffff" stroke-width=".8" xlink:href="#m4772596896"/><g transform="matrix(.1 0 0 -.1 379.73 319.16)" fill="#fff"><use width="100%" height="100%" xlink:href="#DejaVuSans-52"/></g><path d="m433.64 304.56v-226.8" clip-path="url(#p895a3dc146)" fill="none" stroke="#404040" stroke-dasharray="2.96, 1.28" stroke-width=".8"/><use x="433.63635" y="304.56" width="100%" height="100%" fill="#ffffff" stroke="#ffffff" stroke-width=".8" xlink:href="#m4772596896"/><g transform="matrix(.1 0 0 -.1 430.46 319.16)" fill="#fff"><use width="100%" height="100%" xlink:href="#DejaVuSans-53"/></g><path d="m484.36 304.56v-226.8" clip-path="url(#p895a3dc146)" fill="none" stroke="#404040" stroke-dasharray="2.96, 1.28" stroke-width=".8"/><use x="484.36365" y="304.56" width="100%" height="100%" fill="#ffffff" stroke="#ffffff" stroke-width=".8" xlink:href="#m4772596896"/><g transform="matrix(.1 0 0 -.1 481.18 319.16)" fill="#fff"><use width="100%" height="100%" xlink:href="#DejaVuSans-54"/></g><path d="m535.09 304.56v-226.8" clip-path="url(#p895a3dc146)" fill="none" stroke="#404040" stroke-dasharray="2.96, 1.28" stroke-width=".8"/><use x="535.09088" y="304.56" width="100%" height="100%" fill="#ffffff" stroke="#ffffff" stroke-width=".8" xlink:href="#m4772596896"/><g transform="matrix(.1 0 0 -.1 531.91 319.16)" fill="#fff"><use width="100%" height="100%" xlink:href="#DejaVuSans-55"/></g><path d="m585.82 304.56v-226.8" clip-path="url(#p895a3dc146)" fill="none" stroke="#404040" stroke-dasharray="2.96, 1.28" stroke-width=".8"/><use x="585.81818" y="304.56" width="100%" height="100%" fill="#ffffff" stroke="#ffffff" stroke-width=".8" xlink:href="#m4772596896"/><g transform="matrix(.1 0 0 -.1 582.64 319.16)" fill="#fff"><use width="100%" height="100%" xlink:href="#DejaVuSans-56"/></g><path d="m636.55 304.56v-226.8" clip-path="url(#p895a3dc146)" fill="none" stroke="#404040" stroke-dasharray="2.96, 1.28" stroke-width=".8"/><use x="636.54547" y="304.56" width="100%" height="100%" fill="#ffffff" stroke="#ffffff" stroke-width=".8" xlink:href="#m4772596896"/><g transform="matrix(.1 0 0 -.1 633.36 319.16)" fill="#fff"><use width="100%" height="100%" xlink:href="#DejaVuSans-57"/></g><path d="m687.27 304.56v-226.8" clip-path="url(#p895a3dc146)" fill="none" stroke="#404040" stroke-dasharray="2.96, 1.28" stroke-width=".8"/><use x="687.27271" y="304.56" width="100%" height="100%" fill="#ffffff" stroke="#ffffff" stroke-width=".8" xlink:href="#m4772596896"/><g transform="matrix(.1 0 0 -.1 680.91 319.16)" fill="#fff"><use width="100%" height="100%" xlink:href="#DejaVuSans-49"/><use x="63.623047" width="100%" height="100%" xlink:href="#DejaVuSans-48"/></g><g transform="matrix(.1 0 0 -.1 421.4 332.84)" fill="#fff"><use width="100%" height="100%" xlink:href="#DejaVuSans-84"/><use x="57.958984" width="100%" height="100%" xlink:href="#DejaVuSans-105"/><use x="85.742188" width="100%" height="100%" xlink:href="#DejaVuSans-109"/><use x="183.1543" width="100%" height="100%" xlink:href="#DejaVuSans-101"/></g><path d="m180 294.25h507.27" clip-path="url(#p895a3dc146)" fill="none" stroke="#404040" stroke-dasharray="2.96, 1.28" stroke-width=".8"/><use x="180" y="294.25092" width="100%" height="100%" fill="#ffffff" stroke="#ffffff" stroke-width=".8" xlink:href="#m189d79b39d"/><g transform="matrix(.1 0 0 -.1 148.72 298.05)" fill="#fff"><use width="100%" height="100%" xlink:href="#DejaVuSans-8722"/><use x="83.789062" width="100%" height="100%" xlink:href="#DejaVuSans-49"/><use x="147.41211" width="100%" height="100%" xlink:href="#DejaVuSans-46"/><use x="179.19922" width="100%" height="100%" xlink:href="#DejaVuSans-48"/></g><path d="m180 273.63h507.27" clip-path="url(#p895a3dc146)" fill="none" stroke="#404040" stroke-dasharray="2.96, 1.28" stroke-width=".8"/><use x="180" y="273.63272" width="100%" height="100%" fill="#ffffff" stroke="#ffffff" stroke-width=".8" xlink:href="#m189d79b39d"/><g transform="matrix(.1 0 0 -.1 148.72 277.43)" fill="#fff"><use width="100%" height="100%" xlink:href="#DejaVuSans-8722"/><use x="83.789062" width="100%" height="100%" xlink:href="#DejaVuSans-48"/><use x="147.41211" width="100%" height="100%" xlink:href="#DejaVuSans-46"/><use x="179.19922" width="100%" height="100%" xlink:href="#DejaVuSans-56"/></g><path d="m180 253.01h507.27" clip-path="url(#p895a3dc146)" fill="none" stroke="#404040" stroke-dasharray="2.96, 1.28" stroke-width=".8"/><use x="180" y="253.01456" width="100%" height="100%" fill="#ffffff" stroke="#ffffff" stroke-width=".8" xlink:href="#m189d79b39d"/><g transform="matrix(.1 0 0 -.1 148.72 256.81)" fill="#fff"><use width="100%" height="100%" xlink:href="#DejaVuSans-8722"/><use x="83.789062" width="100%" height="100%" xlink:href="#DejaVuSans-48"/><use x="147.41211" width="100%" height="100%" xlink:href="#DejaVuSans-46"/><use x="179.19922" width="100%" height="100%" xlink:href="#DejaVuSans-54"/></g><path d="m180 232.4h507.27" clip-path="url(#p895a3dc146)" fill="none" stroke="#404040" stroke-dasharray="2.96, 1.28" stroke-width=".8"/><use x="180" y="232.39636" width="100%" height="100%" fill="#ffffff" stroke="#ffffff" stroke-width=".8" xlink:href="#m189d79b39d"/><g transform="matrix(.1 0 0 -.1 148.72 236.2)" fill="#fff"><use width="100%" height="100%" xlink:href="#DejaVuSans-8722"/><use x="83.789062" width="100%" height="100%" xlink:href="#DejaVuSans-48"/><use x="147.41211" width="100%" height="100%" xlink:href="#DejaVuSans-46"/><use x="179.19922" width="100%" height="100%" xlink:href="#DejaVuSans-52"/></g><path d="m180 211.78h507.27" clip-path="url(#p895a3dc146)" fill="none" stroke="#404040" stroke-dasharray="2.96, 1.28" stroke-width=".8"/><use x="180" y="211.77818" width="100%" height="100%" fill="#ffffff" stroke="#ffffff" stroke-width=".8" xlink:href="#m189d79b39d"/><g transform="matrix(.1 0 0 -.1 148.72 215.58)" fill="#fff"><use width="100%" height="100%" xlink:href="#DejaVuSans-8722"/><use x="83.789062" width="100%" height="100%" xlink:href="#DejaVuSans-48"/><use x="147.41211" width="100%" height="100%" xlink:href="#DejaVuSans-46"/><use x="179.19922" width="100%" height="100%" xlink:href="#DejaVuSans-50"/></g><path d="m180 191.16h507.27" clip-path="url(#p895a3dc146)" fill="none" stroke="#404040" stroke-dasharray="2.96, 1.28" stroke-width=".8"/><use x="180" y="191.16" width="100%" height="100%" fill="#ffffff" stroke="#ffffff" stroke-width=".8" xlink:href="#m189d79b39d"/><g transform="matrix(.1 0 0 -.1 157.1 194.96)" fill="#fff"><use width="100%" height="100%" xlink:href="#DejaVuSans-48"/><use x="63.623047" width="100%" height="100%" xlink:href="#DejaVuSans-46"/><use x="95.410156" width="100%" height="100%" xlink:href="#DejaVuSans-48"/></g><path d="m180 170.54h507.27" clip-path="url(#p895a3dc146)" fill="none" stroke="#404040" stroke-dasharray="2.96, 1.28" stroke-width=".8"/><use x="180" y="170.54182" width="100%" height="100%" fill="#ffffff" stroke="#ffffff" stroke-width=".8" xlink:href="#m189d79b39d"/><g transform="matrix(.1 0 0 -.1 157.1 174.34)" fill="#fff"><use width="100%" height="100%" xlink:href="#DejaVuSans-48"/><use x="63.623047" width="100%" height="100%" xlink:href="#DejaVuSans-46"/><use x="95.410156" width="100%" height="100%" xlink:href="#DejaVuSans-50"/></g><path d="m180 149.92h507.27" clip-path="url(#p895a3dc146)" fill="none" stroke="#404040" stroke-dasharray="2.96, 1.28" stroke-width=".8"/><use x="180" y="149.92365" width="100%" height="100%" fill="#ffffff" stroke="#ffffff" stroke-width=".8" xlink:href="#m189d79b39d"/><g transform="matrix(.1 0 0 -.1 157.1 153.72)" fill="#fff"><use width="100%" height="100%" xlink:href="#DejaVuSans-48"/><use x="63.623047" width="100%" height="100%" xlink:href="#DejaVuSans-46"/><use x="95.410156" width="100%" height="100%" xlink:href="#DejaVuSans-52"/></g><path d="m180 129.31h507.27" clip-path="url(#p895a3dc146)" fill="none" stroke="#404040" stroke-dasharray="2.96, 1.28" stroke-width=".8"/><use x="180" y="129.30545" width="100%" height="100%" fill="#ffffff" stroke="#ffffff" stroke-width=".8" xlink:href="#m189d79b39d"/><g transform="matrix(.1 0 0 -.1 157.1 133.1)" fill="#fff"><use width="100%" height="100%" xlink:href="#DejaVuSans-48"/><use x="63.623047" width="100%" height="100%" xlink:href="#DejaVuSans-46"/><use x="95.410156" width="100%" height="100%" xlink:href="#DejaVuSans-54"/></g><path d="m180 108.69h507.27" clip-path="url(#p895a3dc146)" fill="none" stroke="#404040" stroke-dasharray="2.96, 1.28" stroke-width=".8"/><use x="180" y="108.68727" width="100%" height="100%" fill="#ffffff" stroke="#ffffff" stroke-width=".8" xlink:href="#m189d79b39d"/><g transform="matrix(.1 0 0 -.1 157.1 112.49)" fill="#fff"><use width="100%" height="100%" xlink:href="#DejaVuSans-48"/><use x="63.623047" width="100%" height="100%" xlink:href="#DejaVuSans-46"/><use x="95.410156" width="100%" height="100%" xlink:href="#DejaVuSans-56"/></g><path d="m180 88.069h507.27" clip-path="url(#p895a3dc146)" fill="none" stroke="#404040" stroke-dasharray="2.96, 1.28" stroke-width=".8"/><use x="180" y="88.069092" width="100%" height="100%" fill="#ffffff" stroke="#ffffff" stroke-width=".8" xlink:href="#m189d79b39d"/><g transform="matrix(.1 0 0 -.1 157.1 91.868)" fill="#fff"><use width="100%" height="100%" xlink:href="#DejaVuSans-49"/><use x="63.623047" width="100%" height="100%" xlink:href="#DejaVuSans-46"/><use x="95.410156" width="100%" height="100%" xlink:href="#DejaVuSans-48"/></g><g transform="matrix(0 -.1 -.1 0 142.64 216.78)" fill="#fff"><use width="100%" height="100%" xlink:href="#DejaVuSans-65"/><use x="68.408203" width="100%" height="100%" xlink:href="#DejaVuSans-109"/><use x="165.82031" width="100%" height="100%" xlink:href="#DejaVuSans-112"/><use x="229.29688" width="100%" height="100%" xlink:href="#DejaVuSans-108"/><use x="257.08008" width="100%" height="100%" xlink:href="#DejaVuSans-105"/><use x="284.86328" width="100%" height="100%" xlink:href="#DejaVuSans-116"/><use x="324.07227" width="100%" height="100%" xlink:href="#DejaVuSans-117"/><use x="387.45117" width="100%" height="100%" xlink:href="#DejaVuSans-100"/><use x="450.92773" width="100%" height="100%" xlink:href="#DejaVuSans-101"/></g><g fill="none" stroke-linecap="square"><path d="m180 191.16 12.377-24.905 6.5946-12.758 5.4785-10.125 4.8191-8.4493 4.3625-7.2135 4.0582-6.2902 3.8046-5.4926 3.5509-4.7454 3.3987-4.1754 3.1958-3.582 3.0436-3.088 2.9422-2.6744 2.8407-2.2839 2.7393-1.918 2.6378-1.5779 2.5364-1.2641 2.4856-0.99503 2.4349-0.73841 2.3842-0.49474 2.3842-0.26776 2.3335-0.04171 2.3334 0.17637 2.3842 0.40506 2.3842 0.63144 2.4349 0.87707 2.4856 1.1353 2.5364 1.4055 2.6378 1.7227 2.6886 2.0249 2.79 2.3824 2.8914 2.7636 3.0436 3.2231 3.1451 3.6568 3.348 4.2415 3.5002 4.7991 3.7031 5.4583 3.9567 6.2328 4.2611 7.1323 4.6669 8.2532 5.2249 9.7038 6.0873 11.791 8.0149 16.046 18.718 37.648 6.1887 11.84 5.2756 9.6244 4.7176 8.151 4.3118 7.0112 3.9567 6.0204 3.7031 5.2425 3.5002 4.581 3.348 4.0209 3.1958 3.4926 3.0436 2.9996 2.8914 2.5444 2.79 2.1653 2.6886 1.811 2.5871 1.4826 2.5364 1.202 2.4856 0.93351 2.4349 0.67765 2.3842 0.43491 2.3842 0.20773 2.3334-0.0171 2.3335-0.23515 2.3842-0.46493 2.3842-0.69098 2.4349-0.93742 2.4856-1.1963 2.5364-1.4669 2.6378-1.7856 2.7393-2.1296 2.8407-2.4983 2.9422-2.8904 3.0436-3.304 3.1958-3.8 3.348-4.3282 3.5509-4.958 3.7538-5.6262 4.0582-6.4923 4.3625-7.4079 4.8191-8.6348 5.4278-10.199 6.4424-12.6 9.1309-18.4 14.051-28.295 6.5438-12.647 5.4278-10.02 4.8191-8.4403 4.3625-7.2041 4.0582-6.2805 3.8046-5.4828 3.5509-4.7356 3.3987-4.1654 3.1958-3.5722 3.0436-3.0782 2.9422-2.6647 2.8407-2.2743 2.7393-1.9086 2.6378-1.5686 2.5364-1.255 2.4856-0.98605 2.4349-0.72953 2.3842-0.486 2.3842-0.25898 2.3335-0.0331 2.3334 0.18497 2.3842 0.41382 2.3842 0.64015 2.4349 0.88591 2.4856 1.1442 2.5364 1.4145 2.6378 1.7319 2.6886 2.0341 2.79 2.3918 2.8914 2.773 3.0436 3.2327 3.1958 3.7281 3.348 4.2564 3.5002 4.8139 3.7538 5.5504 4.0074 6.3347 4.3118 7.2434 4.7176 8.3724 5.2756 9.8294 6.1887 12.02 8.2686 16.586 17.349 34.916 6.2902 12.081 5.3264 9.7625 3.8553 6.7336" clip-path="url(#p895a3dc146)" stroke="#dc5d1e" stroke-width="1.5"/><g stroke="#fff"><path d="m180 191.16h507.27" clip-path="url(#p895a3dc146)" stroke-width="1.5"/><g stroke-linejoin="miter" stroke-width=".8"><path d="m180 304.56v-226.8"/><path d="m687.27 304.56v-226.8"/><path d="m180 304.56h507.27"/><path d="m180 77.76h507.27"/></g></g></g><g transform="matrix(.12 0 0 -.12 392.57 71.76)" fill="#fff"><use width="100%" height="100%" xlink:href="#DejaVuSans-65"/><use x="68.408203" width="100%" height="100%" xlink:href="#DejaVuSans-110"/><use x="131.78711" width="100%" height="100%" xlink:href="#DejaVuSans-97"/><use x="193.06641" width="100%" height="100%" xlink:href="#DejaVuSans-108"/><use x="220.84961" width="100%" height="100%" xlink:href="#DejaVuSans-111"/><use x="282.03125" width="100%" height="100%" xlink:href="#DejaVuSans-103"/><use x="345.50781" width="100%" height="100%" xlink:href="#DejaVuSans-32"/><use x="377.29492" width="100%" height="100%" xlink:href="#DejaVuSans-83"/><use x="440.77148" width="100%" height="100%" xlink:href="#DejaVuSans-105"/><use x="468.55469" width="100%" height="100%" xlink:href="#DejaVuSans-103"/><use x="532.03125" width="100%" height="100%" xlink:href="#DejaVuSans-110"/><use x="595.41016" width="100%" height="100%" xlink:href="#DejaVuSans-97"/><use x="656.68945" width="100%" height="100%" xlink:href="#DejaVuSans-108"/></g></g></g></svg>
