<?xml version="1.0" encoding="UTF-8"?>
<svg width="1440pt" height="648pt" version="1.1" viewBox="0 0 1440 648" xmlns="http://www.w3.org/2000/svg" xmlns:xlink="http://www.w3.org/1999/xlink"><defs><style type="text/css">*{stroke-linecap:butt;stroke-linejoin:round;}</style></defs><path d="m0 648h1440v-648h-1440z" fill="none"/><path d="m100.52 576.69h1317.9v-555.09h-1317.9z" fill="none"/><path d="m100.52 576.69v-555.09" clip-path="url(#pd4a8ec81cd)" fill="none" stroke="#404040" stroke-dasharray="2.96,1.28" stroke-width=".8"/><defs><path id="m5c58a94169" d="m0 0v3.5" stroke="#fff" stroke-width=".8"/></defs><use x="100.521875" y="576.6875" fill="#ffffff" stroke="#ffffff" stroke-width=".8" xlink:href="#m5c58a94169"/><g transform="translate(94.159 598.88) scale(.2 -.2)" fill="#fff"><defs><path id="DejaVuSans-30" transform="scale(.015625)" d="m2034 4250q-487 0-733-480-245-479-245-1442 0-959 245-1439 246-480 733-480 491 0 736 480 246 480 246 1439 0 963-246 1442-245 480-736 480zm0 500q785 0 1199-621 414-620 414-1801 0-1178-414-1799-414-620-1199-620-784 0-1198 620-414 621-414 1799 0 1181 414 1801 414 621 1198 621z"/></defs><use xlink:href="#DejaVuSans-30"/></g><path d="m155.43 576.69v-555.09" clip-path="url(#pd4a8ec81cd)" fill="none" stroke="#404040" stroke-dasharray="2.96,1.28" stroke-width=".8"/><use x="155.433464" y="576.6875" fill="#ffffff" stroke="#ffffff" stroke-width=".8" xlink:href="#m5c58a94169"/><g transform="translate(149.07 598.88) scale(.2 -.2)" fill="#fff"><defs><path id="DejaVuSans-31" transform="scale(.015625)" d="m794 531h1031v3560l-1122-225v575l1116 225h631v-4135h1031v-531h-2687v531z"/></defs><use xlink:href="#DejaVuSans-31"/></g><path d="m210.35 576.69v-555.09" clip-path="url(#pd4a8ec81cd)" fill="none" stroke="#404040" stroke-dasharray="2.96,1.28" stroke-width=".8"/><use x="210.345052" y="576.6875" fill="#ffffff" stroke="#ffffff" stroke-width=".8" xlink:href="#m5c58a94169"/><g transform="translate(203.98 598.88) scale(.2 -.2)" fill="#fff"><defs><path id="DejaVuSans-32" transform="scale(.015625)" d="m1228 531h2203v-531h-2962v531q359 372 979 998 621 627 780 809 303 340 423 576 121 236 121 464 0 372-261 606-261 235-680 235-297 0-627-103-329-103-704-313v638q381 153 712 231 332 78 607 78 725 0 1156-363 431-362 431-968 0-288-108-546-107-257-392-607-78-91-497-524-418-433-1181-1211z"/></defs><use xlink:href="#DejaVuSans-32"/></g><path d="m265.26 576.69v-555.09" clip-path="url(#pd4a8ec81cd)" fill="none" stroke="#404040" stroke-dasharray="2.96,1.28" stroke-width=".8"/><use x="265.256641" y="576.6875" fill="#ffffff" stroke="#ffffff" stroke-width=".8" xlink:href="#m5c58a94169"/><g transform="translate(258.89 598.88) scale(.2 -.2)" fill="#fff"><defs><path id="DejaVuSans-33" transform="scale(.015625)" d="m2597 2516q453-97 707-404 255-306 255-756 0-690-475-1069-475-378-1350-378-293 0-604 58t-642 174v609q262-153 574-231 313-78 654-78 593 0 904 234t311 681q0 413-289 645-289 233-804 233h-544v519h569q465 0 712 186t247 536q0 359-255 551-254 193-729 193-260 0-557-57-297-56-653-174v562q360 100 674 150t592 50q719 0 1137-327 419-326 419-882 0-388-222-655t-631-370z"/></defs><use xlink:href="#DejaVuSans-33"/></g><path d="m320.17 576.69v-555.09" clip-path="url(#pd4a8ec81cd)" fill="none" stroke="#404040" stroke-dasharray="2.96,1.28" stroke-width=".8"/><use x="320.168229" y="576.6875" fill="#ffffff" stroke="#ffffff" stroke-width=".8" xlink:href="#m5c58a94169"/><g transform="translate(313.81 598.88) scale(.2 -.2)" fill="#fff"><defs><path id="DejaVuSans-34" transform="scale(.015625)" d="m2419 4116-1594-2491h1594v2491zm-166 550h794v-3041h666v-525h-666v-1100h-628v1100h-2106v609l1940 2957z"/></defs><use xlink:href="#DejaVuSans-34"/></g><path d="m375.08 576.69v-555.09" clip-path="url(#pd4a8ec81cd)" fill="none" stroke="#404040" stroke-dasharray="2.96,1.28" stroke-width=".8"/><use x="375.079818" y="576.6875" fill="#ffffff" stroke="#ffffff" stroke-width=".8" xlink:href="#m5c58a94169"/><g transform="translate(368.72 598.88) scale(.2 -.2)" fill="#fff"><defs><path id="DejaVuSans-35" transform="scale(.015625)" d="m691 4666h2478v-532h-1900v-1143q137 47 274 70 138 23 276 23 781 0 1237-428 457-428 457-1159 0-753-469-1171-469-417-1322-417-294 0-599 50-304 50-629 150v635q281-153 581-228t634-75q541 0 856 284 316 284 316 772 0 487-316 771-315 285-856 285-253 0-505-56-251-56-513-175v2344z"/></defs><use xlink:href="#DejaVuSans-35"/></g><path d="m429.99 576.69v-555.09" clip-path="url(#pd4a8ec81cd)" fill="none" stroke="#404040" stroke-dasharray="2.96,1.28" stroke-width=".8"/><use x="429.991406" y="576.6875" fill="#ffffff" stroke="#ffffff" stroke-width=".8" xlink:href="#m5c58a94169"/><g transform="translate(423.63 598.88) scale(.2 -.2)" fill="#fff"><defs><path id="DejaVuSans-36" transform="scale(.015625)" d="m2113 2584q-425 0-674-291-248-290-248-796 0-503 248-796 249-292 674-292t673 292q248 293 248 796 0 506-248 796-248 291-673 291zm1253 1979v-575q-238 112-480 171-242 60-480 60-625 0-955-422-329-422-376-1275 184 272 462 417 279 145 613 145 703 0 1111-427 408-426 408-1160 0-719-425-1154-425-434-1131-434-810 0-1238 620-428 621-428 1799 0 1106 525 1764t1409 658q238 0 480-47t505-140z"/></defs><use xlink:href="#DejaVuSans-36"/></g><path d="m484.9 576.69v-555.09" clip-path="url(#pd4a8ec81cd)" fill="none" stroke="#404040" stroke-dasharray="2.96,1.28" stroke-width=".8"/><use x="484.902995" y="576.6875" fill="#ffffff" stroke="#ffffff" stroke-width=".8" xlink:href="#m5c58a94169"/><g transform="translate(478.54 598.88) scale(.2 -.2)" fill="#fff"><defs><path id="DejaVuSans-37" transform="scale(.015625)" d="m525 4666h3e3v-269l-1694-4397h-659l1594 4134h-2241v532z"/></defs><use xlink:href="#DejaVuSans-37"/></g><path d="m539.81 576.69v-555.09" clip-path="url(#pd4a8ec81cd)" fill="none" stroke="#404040" stroke-dasharray="2.96,1.28" stroke-width=".8"/><use x="539.814583" y="576.6875" fill="#ffffff" stroke="#ffffff" stroke-width=".8" xlink:href="#m5c58a94169"/><g transform="translate(533.45 598.88) scale(.2 -.2)" fill="#fff"><defs><path id="DejaVuSans-38" transform="scale(.015625)" d="m2034 2216q-450 0-708-241-257-241-257-662 0-422 257-663 258-241 708-241t709 242q260 243 260 662 0 421-258 662-257 241-711 241zm-631 268q-406 100-633 378-226 279-226 679 0 559 398 884 399 325 1092 325 697 0 1094-325t397-884q0-400-227-679-226-278-629-378 456-106 710-416 255-309 255-755 0-679-414-1042-414-362-1186-362-771 0-1186 362-414 363-414 1042 0 446 256 755 257 310 713 416zm-231 997q0-362 226-565 227-203 636-203 407 0 636 203 230 203 230 565 0 363-230 566-229 203-636 203-409 0-636-203-226-203-226-566z"/></defs><use xlink:href="#DejaVuSans-38"/></g><path d="m594.73 576.69v-555.09" clip-path="url(#pd4a8ec81cd)" fill="none" stroke="#404040" stroke-dasharray="2.96,1.28" stroke-width=".8"/><use x="594.726172" y="576.6875" fill="#ffffff" stroke="#ffffff" stroke-width=".8" xlink:href="#m5c58a94169"/><g transform="translate(588.36 598.88) scale(.2 -.2)" fill="#fff"><defs><path id="DejaVuSans-39" transform="scale(.015625)" d="m703 97v575q238-113 481-172 244-59 479-59 625 0 954 420 330 420 377 1277-181-269-460-413-278-144-615-144-700 0-1108 423-408 424-408 1159 0 718 425 1152 425 435 1131 435 810 0 1236-621 427-620 427-1801 0-1103-524-1761-523-658-1407-658-238 0-482 47-243 47-506 141zm1256 1978q425 0 673 290 249 291 249 798 0 503-249 795-248 292-673 292t-673-292-248-795q0-507 248-798 248-290 673-290z"/></defs><use xlink:href="#DejaVuSans-39"/></g><path d="m649.64 576.69v-555.09" clip-path="url(#pd4a8ec81cd)" fill="none" stroke="#404040" stroke-dasharray="2.96,1.28" stroke-width=".8"/><use x="649.63776" y="576.6875" fill="#ffffff" stroke="#ffffff" stroke-width=".8" xlink:href="#m5c58a94169"/><g transform="translate(636.91 598.88) scale(.2 -.2)" fill="#fff"><use xlink:href="#DejaVuSans-31"/><use x="63.623047" xlink:href="#DejaVuSans-30"/></g><path d="m704.55 576.69v-555.09" clip-path="url(#pd4a8ec81cd)" fill="none" stroke="#404040" stroke-dasharray="2.96,1.28" stroke-width=".8"/><use x="704.549349" y="576.6875" fill="#ffffff" stroke="#ffffff" stroke-width=".8" xlink:href="#m5c58a94169"/><g transform="translate(691.82 598.88) scale(.2 -.2)" fill="#fff"><use xlink:href="#DejaVuSans-31"/><use x="63.623047" xlink:href="#DejaVuSans-31"/></g><path d="m759.46 576.69v-555.09" clip-path="url(#pd4a8ec81cd)" fill="none" stroke="#404040" stroke-dasharray="2.96,1.28" stroke-width=".8"/><use x="759.460938" y="576.6875" fill="#ffffff" stroke="#ffffff" stroke-width=".8" xlink:href="#m5c58a94169"/><g transform="translate(746.74 598.88) scale(.2 -.2)" fill="#fff"><use xlink:href="#DejaVuSans-31"/><use x="63.623047" xlink:href="#DejaVuSans-32"/></g><path d="m814.37 576.69v-555.09" clip-path="url(#pd4a8ec81cd)" fill="none" stroke="#404040" stroke-dasharray="2.96,1.28" stroke-width=".8"/><use x="814.372526" y="576.6875" fill="#ffffff" stroke="#ffffff" stroke-width=".8" xlink:href="#m5c58a94169"/><g transform="translate(801.65 598.88) scale(.2 -.2)" fill="#fff"><use xlink:href="#DejaVuSans-31"/><use x="63.623047" xlink:href="#DejaVuSans-33"/></g><path d="m869.28 576.69v-555.09" clip-path="url(#pd4a8ec81cd)" fill="none" stroke="#404040" stroke-dasharray="2.96,1.28" stroke-width=".8"/><use x="869.284115" y="576.6875" fill="#ffffff" stroke="#ffffff" stroke-width=".8" xlink:href="#m5c58a94169"/><g transform="translate(856.56 598.88) scale(.2 -.2)" fill="#fff"><use xlink:href="#DejaVuSans-31"/><use x="63.623047" xlink:href="#DejaVuSans-34"/></g><path d="m924.2 576.69v-555.09" clip-path="url(#pd4a8ec81cd)" fill="none" stroke="#404040" stroke-dasharray="2.96,1.28" stroke-width=".8"/><use x="924.195703" y="576.6875" fill="#ffffff" stroke="#ffffff" stroke-width=".8" xlink:href="#m5c58a94169"/><g transform="translate(911.47 598.88) scale(.2 -.2)" fill="#fff"><use xlink:href="#DejaVuSans-31"/><use x="63.623047" xlink:href="#DejaVuSans-35"/></g><path d="m979.11 576.69v-555.09" clip-path="url(#pd4a8ec81cd)" fill="none" stroke="#404040" stroke-dasharray="2.96,1.28" stroke-width=".8"/><use x="979.107292" y="576.6875" fill="#ffffff" stroke="#ffffff" stroke-width=".8" xlink:href="#m5c58a94169"/><g transform="translate(966.38 598.88) scale(.2 -.2)" fill="#fff"><use xlink:href="#DejaVuSans-31"/><use x="63.623047" xlink:href="#DejaVuSans-36"/></g><path d="m1034 576.69v-555.09" clip-path="url(#pd4a8ec81cd)" fill="none" stroke="#404040" stroke-dasharray="2.96,1.28" stroke-width=".8"/><use x="1034.01888" y="576.6875" fill="#ffffff" stroke="#ffffff" stroke-width=".8" xlink:href="#m5c58a94169"/><g transform="translate(1021.3 598.88) scale(.2 -.2)" fill="#fff"><use xlink:href="#DejaVuSans-31"/><use x="63.623047" xlink:href="#DejaVuSans-37"/></g><path d="m1088.9 576.69v-555.09" clip-path="url(#pd4a8ec81cd)" fill="none" stroke="#404040" stroke-dasharray="2.96,1.28" stroke-width=".8"/><use x="1088.930469" y="576.6875" fill="#ffffff" stroke="#ffffff" stroke-width=".8" xlink:href="#m5c58a94169"/><g transform="translate(1076.2 598.88) scale(.2 -.2)" fill="#fff"><use xlink:href="#DejaVuSans-31"/><use x="63.623047" xlink:href="#DejaVuSans-38"/></g><path d="m1143.8 576.69v-555.09" clip-path="url(#pd4a8ec81cd)" fill="none" stroke="#404040" stroke-dasharray="2.96,1.28" stroke-width=".8"/><use x="1143.842057" y="576.6875" fill="#ffffff" stroke="#ffffff" stroke-width=".8" xlink:href="#m5c58a94169"/><g transform="translate(1131.1 598.88) scale(.2 -.2)" fill="#fff"><use xlink:href="#DejaVuSans-31"/><use x="63.623047" xlink:href="#DejaVuSans-39"/></g><path d="m1198.8 576.69v-555.09" clip-path="url(#pd4a8ec81cd)" fill="none" stroke="#404040" stroke-dasharray="2.96,1.28" stroke-width=".8"/><use x="1198.753646" y="576.6875" fill="#ffffff" stroke="#ffffff" stroke-width=".8" xlink:href="#m5c58a94169"/><g transform="translate(1186 598.88) scale(.2 -.2)" fill="#fff"><use xlink:href="#DejaVuSans-32"/><use x="63.623047" xlink:href="#DejaVuSans-30"/></g><path d="m1253.7 576.69v-555.09" clip-path="url(#pd4a8ec81cd)" fill="none" stroke="#404040" stroke-dasharray="2.96,1.28" stroke-width=".8"/><use x="1253.665234" y="576.6875" fill="#ffffff" stroke="#ffffff" stroke-width=".8" xlink:href="#m5c58a94169"/><g transform="translate(1240.9 598.88) scale(.2 -.2)" fill="#fff"><use xlink:href="#DejaVuSans-32"/><use x="63.623047" xlink:href="#DejaVuSans-31"/></g><path d="m1308.6 576.69v-555.09" clip-path="url(#pd4a8ec81cd)" fill="none" stroke="#404040" stroke-dasharray="2.96,1.28" stroke-width=".8"/><use x="1308.576823" y="576.6875" fill="#ffffff" stroke="#ffffff" stroke-width=".8" xlink:href="#m5c58a94169"/><g transform="translate(1295.9 598.88) scale(.2 -.2)" fill="#fff"><use xlink:href="#DejaVuSans-32"/><use x="63.623047" xlink:href="#DejaVuSans-32"/></g><path d="m1363.5 576.69v-555.09" clip-path="url(#pd4a8ec81cd)" fill="none" stroke="#404040" stroke-dasharray="2.96,1.28" stroke-width=".8"/><use x="1363.488411" y="576.6875" fill="#ffffff" stroke="#ffffff" stroke-width=".8" xlink:href="#m5c58a94169"/><g transform="translate(1350.8 598.88) scale(.2 -.2)" fill="#fff"><use xlink:href="#DejaVuSans-32"/><use x="63.623047" xlink:href="#DejaVuSans-33"/></g><g transform="translate(732.13 622.24) scale(.2 -.2)" fill="#fff"><defs><path id="DejaVuSans-43" transform="scale(.015625)" d="m4122 4306v-665q-319 297-680 443-361 147-767 147-800 0-1225-489t-425-1414q0-922 425-1411t1225-489q406 0 767 147t680 444v-660q-331-225-702-338-370-112-782-112-1060 0-1670 648-609 649-609 1771 0 1125 609 1773 610 649 1670 649 418 0 788-111 371-111 696-333z"/><path id="DejaVuSans-79" transform="scale(.015625)" d="m2059-325q-243-625-475-815-231-191-618-191h-460v481h338q237 0 368 113 132 112 291 531l103 262-1415 3444h609l1094-2737 1094 2737h609l-1538-3825z"/><path id="DejaVuSans-63" transform="scale(.015625)" d="m3122 3366v-538q-244 135-489 202t-495 67q-560 0-870-355-309-354-309-995t309-996q310-354 870-354 250 0 495 67t489 202v-532q-241-112-499-168-257-57-548-57-791 0-1257 497-465 497-465 1341 0 856 470 1346 471 491 1290 491 265 0 518-55 253-54 491-163z"/><path id="DejaVuSans-6c" transform="scale(.015625)" d="m603 4863h575v-4863h-575v4863z"/><path id="DejaVuSans-65" transform="scale(.015625)" d="m3597 1894v-281h-2644q38-594 358-905t892-311q331 0 642 81t618 244v-544q-310-131-635-200t-659-69q-838 0-1327 487-489 488-489 1320 0 859 464 1363 464 505 1252 505 706 0 1117-455 411-454 411-1235zm-575 169q-6 471-264 752-258 282-683 282-481 0-770-272t-333-766l2050 4z"/></defs><use xlink:href="#DejaVuSans-43"/><use x="69.824219" xlink:href="#DejaVuSans-79"/><use x="129.003906" xlink:href="#DejaVuSans-63"/><use x="183.984375" xlink:href="#DejaVuSans-6c"/><use x="211.767578" xlink:href="#DejaVuSans-65"/></g><path d="m100.52 552.55h1317.9" clip-path="url(#pd4a8ec81cd)" fill="none" stroke="#404040" stroke-dasharray="2.96,1.28" stroke-width=".8"/><defs><path id="m89bc52e9ec" d="m0 0h-3.5" stroke="#fff" stroke-width=".8"/></defs><use x="100.521875" y="552.553261" fill="#ffffff" stroke="#ffffff" stroke-width=".8" xlink:href="#m89bc52e9ec"/><g transform="translate(44.956 560.15) scale(.2 -.2)" fill="#fff"><defs><path id="DejaVuSans-2212" transform="scale(.015625)" d="m678 2272h4006v-531h-4006v531z"/><path id="DejaVuSans-2e" transform="scale(.015625)" d="m684 794h660v-794h-660v794z"/></defs><use xlink:href="#DejaVuSans-2212"/><use x="83.789062" xlink:href="#DejaVuSans-31"/><use x="147.412109" xlink:href="#DejaVuSans-2e"/><use x="179.199219" xlink:href="#DejaVuSans-30"/></g><path d="m100.52 504.28h1317.9" clip-path="url(#pd4a8ec81cd)" fill="none" stroke="#404040" stroke-dasharray="2.96,1.28" stroke-width=".8"/><use x="100.521875" y="504.284783" fill="#ffffff" stroke="#ffffff" stroke-width=".8" xlink:href="#m89bc52e9ec"/><g transform="translate(44.956 511.88) scale(.2 -.2)" fill="#fff"><use xlink:href="#DejaVuSans-2212"/><use x="83.789062" xlink:href="#DejaVuSans-30"/><use x="147.412109" xlink:href="#DejaVuSans-2e"/><use x="179.199219" xlink:href="#DejaVuSans-38"/></g><path d="m100.52 456.02h1317.9" clip-path="url(#pd4a8ec81cd)" fill="none" stroke="#404040" stroke-dasharray="2.96,1.28" stroke-width=".8"/><use x="100.521875" y="456.016304" fill="#ffffff" stroke="#ffffff" stroke-width=".8" xlink:href="#m89bc52e9ec"/><g transform="translate(44.956 463.61) scale(.2 -.2)" fill="#fff"><use xlink:href="#DejaVuSans-2212"/><use x="83.789062" xlink:href="#DejaVuSans-30"/><use x="147.412109" xlink:href="#DejaVuSans-2e"/><use x="179.199219" xlink:href="#DejaVuSans-36"/></g><path d="m100.52 407.75h1317.9" clip-path="url(#pd4a8ec81cd)" fill="none" stroke="#404040" stroke-dasharray="2.96,1.28" stroke-width=".8"/><use x="100.521875" y="407.747826" fill="#ffffff" stroke="#ffffff" stroke-width=".8" xlink:href="#m89bc52e9ec"/><g transform="translate(44.956 415.35) scale(.2 -.2)" fill="#fff"><use xlink:href="#DejaVuSans-2212"/><use x="83.789062" xlink:href="#DejaVuSans-30"/><use x="147.412109" xlink:href="#DejaVuSans-2e"/><use x="179.199219" xlink:href="#DejaVuSans-34"/></g><path d="m100.52 359.48h1317.9" clip-path="url(#pd4a8ec81cd)" fill="none" stroke="#404040" stroke-dasharray="2.96,1.28" stroke-width=".8"/><use x="100.521875" y="359.479348" fill="#ffffff" stroke="#ffffff" stroke-width=".8" xlink:href="#m89bc52e9ec"/><g transform="translate(44.956 367.08) scale(.2 -.2)" fill="#fff"><use xlink:href="#DejaVuSans-2212"/><use x="83.789062" xlink:href="#DejaVuSans-30"/><use x="147.412109" xlink:href="#DejaVuSans-2e"/><use x="179.199219" xlink:href="#DejaVuSans-32"/></g><path d="m100.52 311.21h1317.9" clip-path="url(#pd4a8ec81cd)" fill="none" stroke="#404040" stroke-dasharray="2.96,1.28" stroke-width=".8"/><use x="100.521875" y="311.21087" fill="#ffffff" stroke="#ffffff" stroke-width=".8" xlink:href="#m89bc52e9ec"/><g transform="translate(61.716 318.81) scale(.2 -.2)" fill="#fff"><use xlink:href="#DejaVuSans-30"/><use x="63.623047" xlink:href="#DejaVuSans-2e"/><use x="95.410156" xlink:href="#DejaVuSans-30"/></g><path d="m100.52 262.94h1317.9" clip-path="url(#pd4a8ec81cd)" fill="none" stroke="#404040" stroke-dasharray="2.96,1.28" stroke-width=".8"/><use x="100.521875" y="262.942391" fill="#ffffff" stroke="#ffffff" stroke-width=".8" xlink:href="#m89bc52e9ec"/><g transform="translate(61.716 270.54) scale(.2 -.2)" fill="#fff"><use xlink:href="#DejaVuSans-30"/><use x="63.623047" xlink:href="#DejaVuSans-2e"/><use x="95.410156" xlink:href="#DejaVuSans-32"/></g><path d="m100.52 214.67h1317.9" clip-path="url(#pd4a8ec81cd)" fill="none" stroke="#404040" stroke-dasharray="2.96,1.28" stroke-width=".8"/><use x="100.521875" y="214.673913" fill="#ffffff" stroke="#ffffff" stroke-width=".8" xlink:href="#m89bc52e9ec"/><g transform="translate(61.716 222.27) scale(.2 -.2)" fill="#fff"><use xlink:href="#DejaVuSans-30"/><use x="63.623047" xlink:href="#DejaVuSans-2e"/><use x="95.410156" xlink:href="#DejaVuSans-34"/></g><path d="m100.52 166.41h1317.9" clip-path="url(#pd4a8ec81cd)" fill="none" stroke="#404040" stroke-dasharray="2.96,1.28" stroke-width=".8"/><use x="100.521875" y="166.405435" fill="#ffffff" stroke="#ffffff" stroke-width=".8" xlink:href="#m89bc52e9ec"/><g transform="translate(61.716 174) scale(.2 -.2)" fill="#fff"><use xlink:href="#DejaVuSans-30"/><use x="63.623047" xlink:href="#DejaVuSans-2e"/><use x="95.410156" xlink:href="#DejaVuSans-36"/></g><path d="m100.52 118.14h1317.9" clip-path="url(#pd4a8ec81cd)" fill="none" stroke="#404040" stroke-dasharray="2.96,1.28" stroke-width=".8"/><use x="100.521875" y="118.136957" fill="#ffffff" stroke="#ffffff" stroke-width=".8" xlink:href="#m89bc52e9ec"/><g transform="translate(61.716 125.74) scale(.2 -.2)" fill="#fff"><use xlink:href="#DejaVuSans-30"/><use x="63.623047" xlink:href="#DejaVuSans-2e"/><use x="95.410156" xlink:href="#DejaVuSans-38"/></g><path d="m100.52 69.868h1317.9" clip-path="url(#pd4a8ec81cd)" fill="none" stroke="#404040" stroke-dasharray="2.96,1.28" stroke-width=".8"/><use x="100.521875" y="69.868478" fill="#ffffff" stroke="#ffffff" stroke-width=".8" xlink:href="#m89bc52e9ec"/><g transform="translate(61.716 77.467) scale(.2 -.2)" fill="#fff"><use xlink:href="#DejaVuSans-31"/><use x="63.623047" xlink:href="#DejaVuSans-2e"/><use x="95.410156" xlink:href="#DejaVuSans-30"/></g><g transform="translate(36.797 350.39) rotate(-90) scale(.2 -.2)" fill="#fff"><defs><path id="DejaVuSans-41" transform="scale(.015625)" d="m2188 4044-857-2322h1716l-859 2322zm-357 622h716l1778-4666h-656l-425 1197h-2103l-425-1197h-666l1781 4666z"/><path id="DejaVuSans-6d" transform="scale(.015625)" d="m3328 2828q216 388 516 572t706 184q547 0 844-383 297-382 297-1088v-2113h-578v2094q0 503-179 746-178 244-543 244-447 0-707-297-259-296-259-809v-1978h-578v2094q0 506-178 748t-550 242q-441 0-701-298-259-298-259-808v-1978h-578v3500h578v-544q197 322 472 475t653 153q382 0 649-194 267-193 395-562z"/><path id="DejaVuSans-70" transform="scale(.015625)" d="m1159 525v-1856h-578v4831h578v-531q182 312 458 463 277 152 661 152 638 0 1036-506 399-506 399-1331t-399-1332q-398-506-1036-506-384 0-661 152-276 152-458 464zm1957 1222q0 634-261 995t-717 361q-457 0-718-361t-261-995 261-995 718-361q456 0 717 361t261 995z"/><path id="DejaVuSans-69" transform="scale(.015625)" d="m603 3500h575v-3500h-575v3500zm0 1363h575v-729h-575v729z"/><path id="DejaVuSans-74" transform="scale(.015625)" d="m1172 4494v-994h1184v-447h-1184v-1900q0-428 117-550t477-122h590v-481h-590q-666 0-919 248-253 249-253 905v1900h-422v447h422v994h578z"/><path id="DejaVuSans-75" transform="scale(.015625)" d="m544 1381v2119h575v-2097q0-497 193-746 194-248 582-248 465 0 735 297 271 297 271 810v1984h575v-3500h-575v538q-209-319-486-474-276-155-642-155-603 0-916 375-312 375-312 1097z"/><path id="DejaVuSans-64" transform="scale(.015625)" d="m2906 2969v1894h575v-4863h-575v525q-181-312-458-464-276-152-664-152-634 0-1033 506-398 507-398 1332t398 1331q399 506 1033 506 388 0 664-152 277-151 458-463zm-1959-1222q0-634 261-995t717-361 718 361q263 361 263 995t-263 995q-262 361-718 361t-717-361-261-995z"/></defs><use xlink:href="#DejaVuSans-41"/><use x="68.408203" xlink:href="#DejaVuSans-6d"/><use x="165.820312" xlink:href="#DejaVuSans-70"/><use x="229.296875" xlink:href="#DejaVuSans-6c"/><use x="257.080078" xlink:href="#DejaVuSans-69"/><use x="284.863281" xlink:href="#DejaVuSans-74"/><use x="324.072266" xlink:href="#DejaVuSans-75"/><use x="387.451172" xlink:href="#DejaVuSans-64"/><use x="450.927734" xlink:href="#DejaVuSans-65"/></g><path d="m100.52 311.21 3.6791-78.899 1.9219-36.54 1.5375-25.305 1.3179-18.258 1.1531-13.027 0.98841-8.7932 0.82367-5.5667 0.71385-3.4876 0.60403-1.9628 0.4942-0.92487 0.38438-0.29337 0.27456 0.019055 0.32947 0.27432 0.38438 0.66621 0.4942 1.4022 0.54912 2.2728 0.65894 3.7079 0.76876 5.6507 0.87858 8.1504 1.0433 11.912 1.2081 16.608 1.3728 22.15 1.6473 30.436 2.0866 42.969 7.3032 154.36 1.6473 28.145 1.3728 19.821 1.1531 13.708 1.0433 9.8735 0.87858 6.3422 0.76876 4.0153 0.60403 2.1285 0.4942 1.0615 0.38438 0.39999 0.32947 0.04573 0.32947-0.22862 0.38438-0.61301 0.43929-1.1557 0.54912-2.1229 0.65894-3.5308 0.76876-5.449 0.87859-7.9285 0.98841-10.991 1.1531-15.413 1.3179-20.697 1.5924-28.743 1.9768-39.995 3.4045-74.361 3.0201-64.037 1.867-35.169 1.5375-25.019 1.3179-17.972 1.0982-12.211 0.98841-8.6676 0.82367-5.4577 0.71385-3.3909 0.60403-1.8799 0.4942-0.85651 0.38438-0.24005 0.27456 0.057163 0.32947 0.32001 0.38438 0.71938 0.4942 1.4702 0.60403 2.6234 0.71385 4.2557 0.82367 6.4297 0.9335 9.1847 1.0433 12.526 1.2081 17.255 1.4277 23.763 1.7023 32.258 2.2514 47.221 6.0952 130.12 1.7572 31.637 1.4277 21.996 1.263 16.173 1.0982 11.278 0.9335 7.4073 0.76876 4.5315 0.65894 2.7271 0.54912 1.4446 0.43929 0.60932 0.32947 0.13718 0.27456-0.095271 0.32947-0.36569 0.38438-0.77253 0.4942-1.5382 0.60403-2.7055 0.71385-4.351 0.82367-6.5365 0.9335-9.3005 1.0982-13.375 1.263-18.37 1.4277-24.149 1.7572-33.723 2.3612-49.986 5.4362-116.54 1.8121-33.4 1.4826-23.493 1.263-16.738 1.0982-11.814 0.9335-7.8883 0.82367-5.2393 0.71385-3.1972 0.54912-1.5958 0.43929-0.73097 0.38438-0.24005 0.27456 0.057163 0.32947 0.32001 0.38438 0.71938 0.4942 1.4702 0.60403 2.6234 0.71385 4.2557 0.82367 6.4297 0.9335 9.1847 1.0433 12.526 1.2081 17.255 1.4277 23.763 1.7023 32.258 2.2514 47.221 6.0952 130.12 1.7572 31.637 1.4277 21.996 1.263 16.173 1.0982 11.278 0.9335 7.4073 0.76876 4.5315 0.65894 2.7271 0.54912 1.4446 0.43929 0.60932 0.32947 0.13718 0.27456-0.095271 0.32947-0.36569 0.38438-0.77253 0.4942-1.5382 0.60403-2.7055 0.71385-4.351 0.82367-6.5365 0.9335-9.3005 1.0982-13.375 1.263-18.37 1.4277-24.149 1.7572-33.723 2.3612-49.986 5.4362-116.54 1.8121-33.4 1.4826-23.493 1.263-16.738 1.0982-11.814 0.9335-7.8883 0.82367-5.2393 0.71385-3.1972 0.54912-1.5958 0.43929-0.73097 0.38438-0.24005 0.27456 0.057163 0.32947 0.32001 0.38438 0.71938 0.4942 1.4702 0.60403 2.6234 0.71385 4.2557 0.82367 6.4297 0.9335 9.1847 1.0433 12.526 1.2081 17.255 1.4277 23.763 1.7023 32.258 2.2514 47.221 6.0952 130.12 1.7572 31.637 1.4277 21.996 1.263 16.173 1.0982 11.278 0.9335 7.4073 0.76876 4.5315 0.65894 2.7271 0.54912 1.4446 0.43929 0.60932 0.32947 0.13718 0.27456-0.095271 0.32947-0.36569 0.38438-0.77253 0.4942-1.5382 0.60403-2.7055 0.71385-4.351 0.82367-6.5365 0.9335-9.3005 1.0982-13.375 1.263-18.37 1.4277-24.149 1.7572-33.723 2.3612-49.986 5.4362-116.54 1.8121-33.4 1.4826-23.493 1.263-16.738 1.0982-11.814 0.9335-7.8883 0.82367-5.2393 0.71385-3.1972 0.54912-1.5958 0.43929-0.73097 0.38438-0.24005 0.27456 0.057163 0.32947 0.32001 0.38438 0.71938 0.4942 1.4702 0.60403 2.6234 0.71385 4.2557 0.82367 6.4297 0.9335 9.1847 1.0433 12.526 1.2081 17.255 1.4277 23.763 1.7023 32.258 2.2514 47.221 6.0952 130.12 1.7572 31.637 1.4277 21.996 1.263 16.173 1.0982 11.278 0.9335 7.4073 0.76876 4.5315 0.65894 2.7271 0.54912 1.4446 0.43929 0.60932 0.32947 0.13718 0.27456-0.095271 0.32947-0.36569 0.38438-0.77253 0.4942-1.5382 0.60403-2.7055 0.71385-4.351 0.82367-6.5365 0.9335-9.3005 1.0982-13.375 1.263-18.37 1.4277-24.149 1.7572-33.723 2.3612-49.986 1.6473-38.416 3.3496-89.395 1.9219-45.506 1.5375-31.453 1.3179-22.644 1.1531-16.112 0.98841-10.834 0.82367-6.8222 0.71385-4.2387 0.60403-2.3498 0.43929-0.98969 0.32947-0.3429 0.27456-0.023818 0.27456 0.21434 0.32947 0.57126 0.43929 1.2932 0.54912 2.4658 0.65894 4.1914 0.76876 6.5582 0.87859 9.6317 0.98841 13.442 1.1531 18.946 1.3179 25.548 1.5375 34.306 1.9219 48.136 3.0201 82.085 3.4594 92.559 1.9219 45.675 1.5375 31.631 1.3179 22.822 1.1531 16.284 0.98841 10.992 0.82367 6.9583 0.71385 4.3595 0.60403 2.4535 0.4942 1.1561 0.32947 0.3429 0.27456 0.023818 0.27456-0.21434 0.32947-0.57126 0.43929-1.2932 0.54912-2.4658 0.65894-4.1914 0.76876-6.5582 0.87858-9.6317 0.98841-13.442 1.1531-18.946 1.3179-25.548 1.5375-34.306 1.9219-48.136 4.0635-103.82 2.8005-58.766 1.867-34.62 1.4826-23.636 1.263-16.878 1.0982-11.947 0.98841-8.4152 0.82367-5.2393 0.71385-3.1972 0.54912-1.5958 0.43929-0.73097 0.38438-0.24005 0.27456 0.057163 0.32947 0.32001 0.38438 0.71938 0.4942 1.4702 0.60403 2.6234 0.71385 4.2557 0.82367 6.4297 0.9335 9.1847 1.0433 12.526 1.2081 17.255 1.4277 23.763 1.7023 32.258 2.2514 47.221 6.0952 130.12 1.7572 31.637 1.4277 21.996 1.263 16.173 1.0982 11.278 0.9335 7.4073 0.76876 4.5315 0.65894 2.7271 0.54912 1.4446 0.43929 0.60932 0.32947 0.13718 0.27456-0.095271 0.32947-0.36569 0.38438-0.77253 0.4942-1.5382 0.60403-2.7055 0.71385-4.351 0.82367-6.5365 0.9335-9.3005 1.0982-13.375 1.263-18.37 1.4277-24.149 1.7572-33.723 2.3612-49.986 1.6473-38.416 3.3496-89.395 1.9219-45.506 1.5375-31.453 1.3179-22.644 1.1531-16.112 0.98841-10.834 0.82367-6.8222 0.71385-4.2387 0.60403-2.3498 0.43929-0.98969 0.32947-0.3429 0.27456-0.023818 0.27456 0.21434 0.32947 0.57126 0.43929 1.2932 0.54912 2.4658 0.65894 4.1914 0.76876 6.5582 0.87859 9.6317 0.98841 13.442 1.1531 18.946 1.3179 25.548 1.5375 34.306 1.9219 48.136 3.0201 82.085 3.4594 92.559 1.9219 45.675 1.5375 31.631 1.3179 22.822 1.1531 16.284 0.98841 10.992 0.82367 6.9583 0.71385 4.3595 0.60403 2.4535 0.4942 1.1561 0.32947 0.3429 0.27456 0.023818 0.27456-0.21434 0.32947-0.57126 0.43929-1.2932 0.54912-2.4658 0.65894-4.1914 0.76876-6.5582 0.87858-9.6317 0.98841-13.442 1.1531-18.946 1.3179-25.548 1.5375-34.306 1.9219-48.136 4.0635-103.82 2.8005-58.766 1.867-34.62 1.4826-23.636 1.263-16.878 1.0982-11.947 0.98841-8.4152 0.82367-5.2393 0.71385-3.1972 0.54912-1.5958 0.43929-0.73097 0.38438-0.24005 0.27456 0.057163 0.32947 0.32001 0.38438 0.71938 0.4942 1.4702 0.60403 2.6234 0.71385 4.2557 0.82367 6.4297 0.9335 9.1847 1.0433 12.526 1.2081 17.255 1.4277 23.763 1.7023 32.258 2.2514 47.221 6.0952 130.12 1.7572 31.637 1.4277 21.996 1.263 16.173 1.0982 11.278 0.9335 7.4073 0.76876 4.5315 0.65894 2.7271 0.54912 1.4446 0.43929 0.60932 0.32947 0.13718 0.27456-0.095271 0.32947-0.36569 0.38438-0.77253 0.4942-1.5382 0.60403-2.7055 0.71385-4.351 0.82367-6.5365 0.9335-9.3005 1.0982-13.375 1.263-18.37 1.4277-24.149 1.7572-33.723 2.3612-49.986 5.4362-116.54 1.8121-33.4 1.4826-23.493 1.263-16.738 1.0982-11.814 0.9335-7.8883 0.82367-5.2393 0.71385-3.1972 0.54912-1.5958 0.43929-0.73097 0.38438-0.24005 0.27456 0.057163 0.32947 0.32001 0.38438 0.71938 0.4942 1.4702 0.60403 2.6234 0.71385 4.2557 0.82367 6.4297 0.9335 9.1847 1.0433 12.526 1.2081 17.255 1.4277 23.763 1.7023 32.258 2.2514 47.221 6.0952 130.12 1.7572 31.637 1.4277 21.996 1.263 16.173 1.0982 11.278 0.9335 7.4073 0.76876 4.5315 0.65894 2.7271 0.54912 1.4446 0.43929 0.60932 0.32947 0.13718 0.27456-0.095271 0.32947-0.36569 0.38438-0.77253 0.4942-1.5382 0.60403-2.7055 0.71385-4.351 0.82367-6.5365 0.9335-9.3005 1.0982-13.375 1.263-18.37 1.4277-24.149 1.7572-33.723 2.3612-49.986 1.6473-38.416 3.3496-89.395 1.9219-45.506 1.5375-31.453 1.3179-22.644 1.1531-16.112 0.98841-10.834 0.82367-6.8222 0.71385-4.2387 0.60403-2.3498 0.43929-0.98969 0.32947-0.3429 0.27456-0.023818 0.27456 0.21434 0.32947 0.57126 0.43929 1.2932 0.54912 2.4658 0.65894 4.1914 0.76876 6.5582 0.87859 9.6317 0.98841 13.442 1.1531 18.946 1.3179 25.548 1.5375 34.306 1.9219 48.136 3.0201 82.085 3.4594 92.559 1.9219 45.675 1.5375 31.631 1.3179 22.822 1.1531 16.284 0.98841 10.992 0.82367 6.9583 0.71385 4.3595 0.60403 2.4535 0.4942 1.1561 0.32947 0.3429 0.27456 0.023818 0.27456-0.21434 0.32947-0.57126 0.43929-1.2932 0.54912-2.4658 0.65894-4.1914 0.76876-6.5582 0.87859-9.6317 0.98841-13.442 1.1531-18.946 1.3179-25.548 1.5375-34.306 1.9219-48.136 3.0201-82.085 3.4594-92.559 1.9219-45.675 1.5375-31.631 1.3179-22.822 1.1531-16.284 0.98841-10.992 0.82367-6.9583 0.71385-4.3595 0.60403-2.4535 0.4942-1.1561 0.32947-0.3429 0.27456-0.023818 0.27456 0.21434 0.32947 0.57126 0.43929 1.2932 0.54912 2.4658 0.65894 4.1914 0.76876 6.5582 0.87858 9.6317 0.98841 13.442 1.1531 18.946 1.3179 25.548 1.5375 34.306 1.9219 48.136 3.0201 82.085 3.4594 92.559 1.9219 45.675 1.5375 31.631 1.3179 22.822 1.1531 16.284 0.98841 10.992 0.82367 6.9583 0.71385 4.3595 0.60403 2.4535 0.4942 1.1561 0.32947 0.3429 0.27456 0.023818 0.27456-0.21434 0.32947-0.57126 0.43929-1.2932 0.54912-2.4658 0.65894-4.1914 0.76876-6.5582 0.87858-9.6317 0.98841-13.442 1.1531-18.946 1.3179-25.548 1.5375-34.306 1.9219-48.136 3.0201-82.085 3.4594-92.559 1.9219-45.675 1.5375-31.631 1.3179-22.822 1.1531-16.284 0.98841-10.992 0.82367-6.9583 0.71385-4.3595 0.60403-2.4535 0.4942-1.1561 0.32947-0.3429 0.27456-0.023818 0.27456 0.21434 0.32947 0.57126 0.43929 1.2932 0.54912 2.4658 0.65894 4.1914 0.76876 6.5582 0.87859 9.6317 0.98841 13.442 1.1531 18.946 1.3179 25.548 1.5375 34.306 1.9219 48.136 3.0201 82.085 3.4594 92.559 1.9219 45.675 1.5375 31.631 1.3179 22.822 1.1531 16.284 0.98841 10.992 0.82367 6.9583 0.71385 4.3595 0.60403 2.4535 0.4942 1.1561 0.32947 0.3429 0.27456 0.023818 0.27456-0.21434 0.32947-0.57126 0.43929-1.2932 0.54912-2.4658 0.65894-4.1914 0.76876-6.5582 0.87859-9.6317 0.98841-13.442 1.1531-18.946 1.3179-25.548 1.5375-34.306 1.9219-48.136 4.0635-103.82 2.8005-58.766 1.867-34.62 1.4826-23.636 1.263-16.878 1.0982-11.947 0.98841-8.4152 0.82367-5.2393 0.71385-3.1972 0.54912-1.5958 0.43929-0.73097 0.38438-0.24005 0.27456 0.057163 0.32947 0.32001 0.38438 0.71938 0.4942 1.4702 0.60403 2.6234 0.71385 4.2557 0.82367 6.4297 0.9335 9.1847 1.0433 12.526 1.2081 17.255 1.4277 23.763 1.7023 32.258 2.2514 47.221 6.0952 130.12 1.7572 31.637 1.4277 21.996 1.263 16.173 1.0982 11.278 0.9335 7.4073 0.76876 4.5315 0.65894 2.7271 0.54912 1.4446 0.43929 0.60932 0.32947 0.13718 0.27456-0.095271 0.32947-0.36569 0.38438-0.77253 0.4942-1.5382 0.60403-2.7055 0.71385-4.351 0.82367-6.5365 0.9335-9.3005 1.0982-13.375 1.263-18.37 1.4277-24.149 1.7572-33.723 2.3612-49.986 5.4362-116.54 1.8121-33.4 1.4826-23.493 1.263-16.738 1.0982-11.814 0.9335-7.8883 0.82367-5.2393 0.71385-3.1972 0.54912-1.5958 0.43929-0.73097 0.38438-0.24005 0.27456 0.057163 0.32947 0.32001 0.38438 0.71938 0.4942 1.4702 0.60403 2.6234 0.71385 4.2557 0.82367 6.4297 0.9335 9.1847 1.0433 12.526 1.2081 17.255 1.4277 23.763 1.7023 32.258 2.2514 47.221 6.0952 130.12 1.7572 31.637 1.4277 21.996 1.263 16.173 1.0982 11.278 0.9335 7.4073 0.76876 4.5315 0.65894 2.7271 0.54912 1.4446 0.43929 0.60932 0.32947 0.13718 0.27456-0.095271 0.32947-0.36569 0.38438-0.77253 0.4942-1.5382 0.60403-2.7055 0.71385-4.351 0.82367-6.5365 0.9335-9.3005 1.0982-13.375 1.263-18.37 1.4277-24.149 1.7572-33.723 2.3612-49.986 1.6473-38.416 3.3496-89.395 1.9219-45.506 1.5375-31.453 1.3179-22.644 1.1531-16.112 0.98841-10.834 0.82367-6.8222 0.71385-4.2387 0.60403-2.3498 0.43929-0.98969 0.32947-0.3429 0.27456-0.023818 0.27456 0.21434 0.32947 0.57126 0.43929 1.2932 0.54912 2.4658 0.65894 4.1914 0.76876 6.5582 0.87858 9.6317 0.98841 13.442 1.1531 18.946 1.3179 25.548 1.5375 34.306 1.9219 48.136 3.0201 82.085 3.4594 92.559 1.9219 45.675 1.5375 31.631 1.3179 22.822 1.1531 16.284 0.98841 10.992 0.82367 6.9583 0.71385 4.3595 0.60403 2.4535 0.4942 1.1561 0.32947 0.3429 0.27456 0.023818 0.27456-0.21434 0.32947-0.57126 0.43929-1.2932 0.54912-2.4658 0.65894-4.1914 0.76876-6.5582 0.87858-9.6317 0.98841-13.442 1.1531-18.946 1.3179-25.548 1.5375-34.306 1.9219-48.136 4.0635-103.82 2.8005-58.766 1.867-34.62 1.4826-23.636 1.263-16.878 1.0982-11.947 0.98841-8.4152 0.82367-5.2393 0.71385-3.1972 0.54912-1.5958 0.43929-0.73097 0.38438-0.24005 0.27456 0.057163 0.32947 0.32001 0.38438 0.71938 0.4942 1.4702 0.60403 2.6234 0.71385 4.2557 0.82367 6.4297 0.9335 9.1847 1.0433 12.526 1.2081 17.255 1.4277 23.763 1.7023 32.258 2.2514 47.221 6.0952 130.12 1.7572 31.637 1.4277 21.996 1.263 16.173 1.0982 11.278 0.9335 7.4073 0.76876 4.5315 0.65894 2.7271 0.54912 1.4446 0.43929 0.60932 0.32947 0.13718 0.27456-0.095271 0.32947-0.36569 0.38438-0.77253 0.4942-1.5382 0.60403-2.7055 0.71385-4.351 0.82367-6.5365 0.9335-9.3005 1.0982-13.375 1.263-18.37 1.4277-24.149 1.7572-33.723 2.3612-49.986 1.6473-38.416 3.3496-89.395 1.9219-45.506 1.5375-31.453 1.3179-22.644 1.1531-16.112 0.98841-10.834 0.82367-6.8222 0.71385-4.2387 0.60403-2.3498 0.43929-0.98969 0.32947-0.3429 0.27456-0.023818 0.27456 0.21434 0.32947 0.57126 0.43929 1.2932 0.54912 2.4658 0.65894 4.1914 0.76876 6.5582 0.87858 9.6317 0.98841 13.442 1.1531 18.946 1.3179 25.548 1.5375 34.306 1.9219 48.136 3.0201 82.085 3.4594 92.559 1.9219 45.675 1.5375 31.631 1.3179 22.822 1.1531 16.284 0.98841 10.992 0.82367 6.9583 0.71385 4.3595 0.60403 2.4535 0.4942 1.1561 0.32947 0.3429 0.27456 0.023818 0.27456-0.21434 0.32947-0.57126 0.43929-1.2932 0.54912-2.4658 0.65894-4.1914 0.76876-6.5582 0.87859-9.6317 0.98841-13.442 1.1531-18.946 1.3179-25.548 1.5375-34.306 1.9219-48.136 3.0201-82.085 3.4594-92.559 1.9219-45.675 1.5375-31.631 1.3179-22.822 1.1531-16.284 0.98841-10.992 0.82367-6.9583 0.71385-4.3595 0.60403-2.4535 0.4942-1.1561 0.32947-0.3429 0.27456-0.023818 0.27456 0.21434 0.32947 0.57126 0.43929 1.2932 0.54912 2.4658 0.65894 4.1914 0.76876 6.5582 0.87859 9.6317 0.98841 13.442 1.1531 18.946 1.3179 25.548 1.5375 34.306 1.9219 48.136 3.0201 82.085 3.4594 92.559 1.9219 45.675 1.5375 31.631 1.3179 22.822 1.1531 16.284 0.98841 10.992 0.82367 6.9583 0.71385 4.3595 0.60403 2.4535 0.4942 1.1561 0.32947 0.3429 0.27456 0.023818 0.27456-0.21434 0.32947-0.57126 0.43929-1.2932 0.54912-2.4658 0.65894-4.1914 0.76876-6.5582 0.87858-9.6317 0.98841-13.442 1.1531-18.946 1.3179-25.548 1.5375-34.306 1.9219-48.136 3.0201-82.085 3.4594-92.559 1.9219-45.675 1.5375-31.631 1.3179-22.822 1.1531-16.284 0.98841-10.992 0.82367-6.9583 0.71385-4.3595 0.60403-2.4535 0.4942-1.1561 0.32947-0.3429 0.27456-0.023818 0.27456 0.21434 0.32947 0.57126 0.43929 1.2932 0.54912 2.4658 0.65894 4.1914 0.76876 6.5582 0.87858 9.6317 0.98841 13.442 1.1531 18.946 1.3179 25.548 1.5375 34.306 1.9219 48.136 3.0201 82.085 3.4594 92.559 1.9219 45.675 1.5375 31.631 1.3179 22.822 1.1531 16.284 0.98841 10.992 0.82367 6.9583 0.71385 4.3595 0.60403 2.4535 0.4942 1.1561 0.32947 0.3429 0.27456 0.023818 0.27456-0.21434 0.32947-0.57126 0.43929-1.2932 0.54912-2.4658 0.65894-4.1914 0.76876-6.5582 0.87859-9.6317 0.98841-13.442 1.1531-18.946 1.3179-25.548 1.5375-34.306 1.9219-48.136 4.0635-103.82 2.8005-58.766 1.867-34.62 1.4826-23.636 1.263-16.878 1.0982-11.947 0.98841-8.4152 0.82367-5.2393 0.71385-3.1972 0.54912-1.5958 0.43929-0.73097 0.38438-0.24005 0.27456 0.057163 0.32947 0.32001 0.38438 0.71938 0.4942 1.4702 0.60403 2.6234 0.71385 4.2557 0.82367 6.4297 0.9335 9.1847 1.0433 12.526 1.2081 17.255 1.4277 23.763 1.7023 32.258 2.2514 47.221 6.0952 130.12 1.7572 31.637 1.4277 21.996 1.263 16.173 1.0982 11.278 0.9335 7.4073 0.76876 4.5315 0.65894 2.7271 0.54912 1.4446 0.43929 0.60932 0.32947 0.13718 0.27456-0.095271 0.32947-0.36569 0.38438-0.77253 0.4942-1.5382 0.60403-2.7055 0.71385-4.351 0.82367-6.5365 0.9335-9.3005 1.0982-13.375 1.263-18.37 1.4277-24.149 1.7572-33.723 2.3612-49.986 1.6473-38.416 3.3496-89.395 1.9219-45.506 1.5375-31.453 1.3179-22.644 1.1531-16.112 0.98841-10.834 0.82367-6.8222 0.71385-4.2387 0.60403-2.3498 0.43929-0.98969 0.32947-0.3429 0.27456-0.023818 0.27456 0.21434 0.32947 0.57126 0.43929 1.2932 0.54912 2.4658 0.65894 4.1914 0.76876 6.5582 0.87858 9.6317 0.98841 13.442 1.1531 18.946 1.3179 25.548 1.5375 34.306 1.9219 48.136 3.0201 82.085 3.4594 92.559 1.9219 45.675 1.5375 31.631 1.3179 22.822 1.1531 16.284 0.98841 10.992 0.82367 6.9583 0.71385 4.3595 0.60403 2.4535 0.4942 1.1561 0.32947 0.3429 0.27456 0.023818 0.27456-0.21434 0.32947-0.57126 0.43929-1.2932 0.54912-2.4658 0.65894-4.1914 0.76876-6.5582 0.87859-9.6317 0.98841-13.442 1.1531-18.946 1.3179-25.548 1.5375-34.306 1.9219-48.136 3.0201-82.085 3.4594-92.559 1.9219-45.675 1.5375-31.631 1.3179-22.822 1.1531-16.284 0.98841-10.992 0.82367-6.9583 0.71385-4.3595 0.60403-2.4535 0.4942-1.1561 0.32947-0.3429 0.27456-0.023818 0.27456 0.21434 0.32947 0.57126 0.43929 1.2932 0.54912 2.4658 0.65894 4.1914 0.76876 6.5582 0.87858 9.6317 0.98841 13.442 1.1531 18.946 1.3179 25.548 1.5375 34.306 1.9219 48.136 3.0201 82.085 3.4594 92.559 1.9219 45.675 1.5375 31.631 1.3179 22.822 1.1531 16.284 0.98841 10.992 0.82367 6.9583 0.71385 4.3595 0.60403 2.4535 0.4942 1.1561 0.32947 0.3429 0.27456 0.023818 0.27456-0.21434 0.32947-0.57126 0.43929-1.2932 0.54912-2.4658 0.65894-4.1914 0.76876-6.5582 0.87858-9.6317 0.98841-13.442 1.1531-18.946 1.3179-25.548 1.5375-34.306 1.9219-48.136 3.0201-82.085 3.4594-92.559 1.9219-45.675 1.5375-31.631 1.3179-22.822 1.1531-16.284 0.98841-10.992 0.82367-6.9583 0.71385-4.3595 0.60403-2.4535 0.4942-1.1561 0.32947-0.3429 0.27456-0.023818 0.27456 0.21434 0.32947 0.57126 0.43929 1.2932 0.54912 2.4658 0.65894 4.1914 0.76876 6.5582 0.87859 9.6317 0.98841 13.442 1.1531 18.946 1.3179 25.548 1.5375 34.306 1.9219 48.136 3.0201 82.085 3.4594 92.559 1.9219 45.675 1.5375 31.631 1.3179 22.822 1.1531 16.284 0.98841 10.992 0.82367 6.9583 0.71385 4.3595 0.60403 2.4535 0.4942 1.1561 0.32947 0.3429 0.27456 0.023818 0.27456-0.21434 0.32947-0.57126 0.43929-1.2932 0.54912-2.4658 0.65894-4.1914 0.76876-6.5582 0.87859-9.6317 0.98841-13.442 1.1531-18.946 1.3179-25.548 1.5375-34.306 1.9219-48.136 2.7456-74.503v0" clip-path="url(#pd4a8ec81cd)" fill="none" stroke="#dc5d1e" stroke-linecap="square" stroke-width="1.5"/><path d="m100.52 311.21h1317.9" clip-path="url(#pd4a8ec81cd)" fill="none" stroke="#fff" stroke-linecap="square" stroke-width="1.5"/><path d="m265.26 576.69v-555.09" clip-path="url(#pd4a8ec81cd)" fill="none" stroke="#fff" stroke-linecap="square" stroke-width="1.5"/><path d="m429.99 576.69v-555.09" clip-path="url(#pd4a8ec81cd)" fill="none" stroke="#fff" stroke-linecap="square" stroke-width="1.5"/><path d="m594.73 576.69v-555.09" clip-path="url(#pd4a8ec81cd)" fill="none" stroke="#fff" stroke-linecap="square" stroke-width="1.5"/><path d="m759.46 576.69v-555.09" clip-path="url(#pd4a8ec81cd)" fill="none" stroke="#fff" stroke-linecap="square" stroke-width="1.5"/><path d="m924.2 576.69v-555.09" clip-path="url(#pd4a8ec81cd)" fill="none" stroke="#fff" stroke-linecap="square" stroke-width="1.5"/><path d="m1088.9 576.69v-555.09" clip-path="url(#pd4a8ec81cd)" fill="none" stroke="#fff" stroke-linecap="square" stroke-width="1.5"/><path d="m1253.7 576.69v-555.09" clip-path="url(#pd4a8ec81cd)" fill="none" stroke="#fff" stroke-linecap="square" stroke-width="1.5"/><path d="m100.52 576.69v-555.09" fill="none" stroke="#fff" stroke-linecap="square" stroke-width=".8"/><path d="m1418.4 576.69v-555.09" fill="none" stroke="#fff" stroke-linecap="square" stroke-width=".8"/><path d="m100.52 576.69h1317.9" fill="none" stroke="#fff" stroke-linecap="square" stroke-width=".8"/><path d="m100.52 21.6h1317.9" fill="none" stroke="#fff" stroke-linecap="square" stroke-width=".8"/><g transform="translate(111.5 45.734) scale(.2 -.2)" fill="#fff"><use xlink:href="#DejaVuSans-30"/></g><g transform="translate(166.42 45.734) scale(.2 -.2)" fill="#fff"><use xlink:href="#DejaVuSans-30"/></g><g transform="translate(221.33 45.734) scale(.2 -.2)" fill="#fff"><use xlink:href="#DejaVuSans-30"/></g><g transform="translate(276.24 45.734) scale(.2 -.2)" fill="#fff"><use xlink:href="#DejaVuSans-30"/></g><g transform="translate(331.15 45.734) scale(.2 -.2)" fill="#fff"><use xlink:href="#DejaVuSans-30"/></g><g transform="translate(386.06 45.734) scale(.2 -.2)" fill="#fff"><use xlink:href="#DejaVuSans-31"/></g><g transform="translate(440.97 45.734) scale(.2 -.2)" fill="#fff"><use xlink:href="#DejaVuSans-30"/></g><g transform="translate(495.89 45.734) scale(.2 -.2)" fill="#fff"><use xlink:href="#DejaVuSans-31"/></g><g transform="translate(550.8 45.734) scale(.2 -.2)" fill="#fff"><use xlink:href="#DejaVuSans-30"/></g><g transform="translate(605.71 45.734) scale(.2 -.2)" fill="#fff"><use xlink:href="#DejaVuSans-30"/></g><g transform="translate(660.62 45.734) scale(.2 -.2)" fill="#fff"><use xlink:href="#DejaVuSans-31"/></g><g transform="translate(715.53 45.734) scale(.2 -.2)" fill="#fff"><use xlink:href="#DejaVuSans-31"/></g><g transform="translate(770.44 45.734) scale(.2 -.2)" fill="#fff"><use xlink:href="#DejaVuSans-31"/></g><g transform="translate(825.35 45.734) scale(.2 -.2)" fill="#fff"><use xlink:href="#DejaVuSans-30"/></g><g transform="translate(880.27 45.734) scale(.2 -.2)" fill="#fff"><use xlink:href="#DejaVuSans-30"/></g><g transform="translate(935.18 45.734) scale(.2 -.2)" fill="#fff"><use xlink:href="#DejaVuSans-31"/></g><g transform="translate(990.09 45.734) scale(.2 -.2)" fill="#fff"><use xlink:href="#DejaVuSans-30"/></g><g transform="translate(1045 45.734) scale(.2 -.2)" fill="#fff"><use xlink:href="#DejaVuSans-31"/></g><g transform="translate(1099.9 45.734) scale(.2 -.2)" fill="#fff"><use xlink:href="#DejaVuSans-31"/></g><g transform="translate(1154.8 45.734) scale(.2 -.2)" fill="#fff"><use xlink:href="#DejaVuSans-31"/></g><g transform="translate(1209.7 45.734) scale(.2 -.2)" fill="#fff"><use xlink:href="#DejaVuSans-30"/></g><g transform="translate(1264.6 45.734) scale(.2 -.2)" fill="#fff"><use xlink:href="#DejaVuSans-31"/></g><g transform="translate(1319.6 45.734) scale(.2 -.2)" fill="#fff"><use xlink:href="#DejaVuSans-31"/></g><g transform="translate(1374.5 45.734) scale(.2 -.2)" fill="#fff"><use xlink:href="#DejaVuSans-31"/></g><defs><clipPath id="pd4a8ec81cd"><rect x="100.52" y="21.6" width="1317.9" height="555.09"/></clipPath></defs></svg>
