<?xml version="1.0" encoding="UTF-8"?>
<svg enable-background="new 0 0 438.529 438.529" version="1.1" viewBox="0 0 438.53 438.53" xml:space="preserve" xmlns="http://www.w3.org/2000/svg"><defs><filter id="filter1198" x="-1.0355e-5" y="-9.4922e-6" width="1" height="1" color-interpolation-filters="sRGB"><feGaussianBlur stdDeviation="0.0017344131"/></filter></defs>
<g fill="#fff" filter="url(#filter1198)">
	<g fill="#fff">
		<path d="m219.26 219.27c30.271 0 56.108-10.71 77.518-32.121 21.412-21.411 32.12-47.248 32.12-77.515 0-30.262-10.708-56.1-32.12-77.516-21.417-21.41-47.255-32.115-77.518-32.115s-56.105 10.705-77.515 32.115c-21.414 21.416-32.121 47.253-32.121 77.516 0 30.267 10.707 56.104 32.121 77.515 21.416 21.411 47.251 32.121 77.515 32.121z"/>
		<path d="m419.26 335.04c-0.668-9.609-2.002-19.985-3.997-31.121-1.999-11.136-4.524-21.457-7.57-30.978-3.046-9.514-7.139-18.794-12.278-27.836-5.137-9.041-11.037-16.748-17.703-23.127-6.666-6.377-14.801-11.465-24.406-15.271-9.617-3.805-20.229-5.711-31.84-5.711-1.711 0-5.709 2.046-11.991 6.139-6.276 4.093-13.367 8.662-21.266 13.708-7.898 5.037-18.182 9.609-30.834 13.695-12.658 4.093-25.361 6.14-38.118 6.14-12.752 0-25.456-2.047-38.112-6.14-12.655-4.086-22.936-8.658-30.835-13.695-7.898-5.046-14.987-9.614-21.267-13.708-6.283-4.093-10.278-6.139-11.991-6.139-11.61 0-22.222 1.906-31.833 5.711-9.613 3.806-17.749 8.898-24.412 15.271-6.661 6.379-12.562 14.086-17.699 23.127-5.137 9.042-9.229 18.326-12.275 27.836-3.045 9.521-5.568 19.842-7.566 30.978-2 11.136-3.332 21.505-3.999 31.121-0.666 9.616-0.998 19.466-0.998 29.554 0 22.836 6.949 40.875 20.842 54.104 13.896 13.224 32.36 19.835 55.39 19.835h249.53c23.028 0 41.49-6.611 55.388-19.835 13.901-13.229 20.845-31.265 20.845-54.104-2e-3 -10.088-0.334-19.938-1.008-29.554z"/>
	</g>
</g>















</svg>
