<?xml version="1.0" encoding="UTF-8"?>
<svg enable-background="new 0 0 511.634 511.634" version="1.1" viewBox="0 0 511.63 511.63" xml:space="preserve" xmlns="http://www.w3.org/2000/svg">
<g fill="#fff">
	<path d="m482.51 83.942c-7.225-7.233-15.797-10.85-25.694-10.85h-36.541v-27.41c0-12.56-4.477-23.315-13.422-32.261-8.95-8.946-19.699-13.421-32.265-13.421h-18.268c-12.565 0-23.318 4.475-32.264 13.422-8.949 8.945-13.422 19.701-13.422 32.261v27.41h-109.63v-27.41c0-12.56-4.475-23.315-13.422-32.261-8.945-8.947-19.699-13.422-32.264-13.422h-18.271c-12.562 0-23.317 4.475-32.264 13.422-8.945 8.945-13.421 19.701-13.421 32.261v27.41h-36.542c-9.9 0-18.464 3.617-25.697 10.85-7.233 7.232-10.85 15.8-10.85 25.697v365.45c0 9.89 3.617 18.456 10.85 25.693 7.232 7.231 15.796 10.849 25.697 10.849h401.99c9.897 0 18.47-3.617 25.694-10.849 7.234-7.234 10.852-15.804 10.852-25.693v-365.45c-1e-3 -9.9-3.615-18.464-10.845-25.697zm-345.47 391.15h-82.224v-82.23h82.224v82.23zm0-100.5h-82.224v-91.358h82.224v91.358zm0-109.64h-82.224v-82.223h82.224v82.223zm-6.42-130.62c-1.809-1.809-2.712-3.946-2.712-6.423v-82.224c0-2.474 0.903-4.617 2.712-6.423 1.809-1.809 3.946-2.712 6.423-2.712h18.271c2.474 0 4.617 0.903 6.423 2.712 1.809 1.807 2.714 3.949 2.714 6.423v82.224c0 2.478-0.909 4.615-2.714 6.423-1.807 1.809-3.946 2.712-6.423 2.712h-18.271c-2.474 1e-3 -4.614-0.903-6.423-2.712zm116.06 340.76h-91.365v-82.23h91.365v82.23zm0-100.5h-91.365v-91.358h91.365v91.358zm0-109.64h-91.365v-82.223h91.365v82.223zm109.64 210.14h-91.364v-82.23h91.364v82.23zm0-100.5h-91.364v-91.358h91.364v91.358zm0-109.64h-91.364v-82.223h91.364v82.223zm-6.427-130.62c-1.807-1.809-2.707-3.946-2.707-6.423v-82.224c0-2.474 0.9-4.617 2.707-6.423 1.808-1.809 3.949-2.712 6.427-2.712h18.268c2.478 0 4.617 0.903 6.427 2.712 1.808 1.807 2.707 3.949 2.707 6.423v82.224c0 2.478-0.903 4.615-2.707 6.423-1.807 1.809-3.949 2.712-6.427 2.712h-18.268c-2.477 1e-3 -4.626-0.903-6.427-2.712zm106.92 340.76h-82.228v-82.23h82.228v82.23zm0-100.5h-82.228v-91.358h82.228v91.358zm0-109.64h-82.228v-82.223h82.228v82.223z" fill="#fff"/>
</g>















</svg>
