<?xml version="1.0" encoding="UTF-8"?>
<svg enable-background="new 0 0 31.586 31.586" version="1.1" viewBox="0 0 30 30" xml:space="preserve" xmlns="http://www.w3.org/2000/svg">
<text x="24.396877" y="14.365981" font-family="sans-serif" font-size="40px" text-align="center" text-anchor="middle" style="line-height:1.25" xml:space="preserve"><tspan x="24.396877" y="14.365981"/></text>
<path d="m14.997 3.6e-5c-1.3353 3.2736-2.1406 5.4151-3.6272 8.5916 0.91145 0.96615 2.0301 2.0912 3.8471 3.362-1.9532-0.80386-3.2855-1.611-4.2814-2.4482-1.9025 3.97-4.8835 9.6254-10.933 20.495 4.7546-2.7439 8.4399-4.4372 11.875-5.0817-0.14748-0.63544-0.23124-1.3214-0.22565-2.0363l6e-3 -0.15344c0.0755-3.0454 1.6599-5.3877 3.537-5.2286 1.8771 0.15904 3.3357 2.7591 3.2598 5.8045-0.0126 0.57406-0.0776 1.1246-0.19135 1.6355 3.3974 0.66432 7.044 2.3522 11.734 5.06-0.92427-1.7023-1.7511-3.2368-2.5381-4.699-1.242-0.96218-2.5363-2.215-5.1792-3.5707 1.816 0.47297 3.1158 1.0163 4.1303 1.6247-8.0152-14.923-8.6638-16.906-11.413-23.354l1.8e-4 -9.39e-4z" fill="#fff" stroke-width=".18052"/></svg>
