<?xml version="1.0" encoding="UTF-8"?>
<svg version="1.1" viewBox="0 0 192.05 212.93" xmlns="http://www.w3.org/2000/svg"><g transform="translate(-1212.6 -168.15)" fill="#4a90d9"><g transform="matrix(.65356 0 0 .65356 1084 58.477)" fill="#fff" style="mix-blend-mode:normal"><path d="m474.61 255.12 1e-5 151.18-130.93 75.591v-151.18z" stroke-width="1.0007"/><path d="m343.68 330.71v-151.18l-130.93 75.591z"/><path d="m218.61 233.26c-13.541 7.818-21.856 22.221-21.856 37.856v119.18c0 15.636 8.3153 30.038 21.856 37.856l103.21 59.591c13.541 7.8179 30.172 7.8179 43.713 0l103.21-59.591c13.541-7.818 21.856-22.221 21.856-37.856v-119.18c0-15.636-8.3153-30.038-21.856-37.856l-103.21-59.591c-13.541-7.8179-30.172-7.8179-43.713 0zm130.93-31.878 103.21 59.591c3.6077 2.0829 5.8564 5.9778 5.8564 10.144v119.18c0 4.1658-2.2487 8.0607-5.8564 10.144l-103.21 59.591c-3.6077 2.0829-8.1052 2.0829-11.713 0l-103.21-59.591c-3.6077-2.0829-5.8564-5.9778-5.8564-10.144v-119.18c0-4.1658 2.2487-8.0607 5.8564-10.144l103.21-59.591c3.6077-2.0829 8.1052-2.0829 11.713 0z"/></g></g></svg>
