<?xml version="1.0" encoding="UTF-8"?>
<svg enable-background="new 0 0 31.586 31.586" version="1.1" viewBox="0 0 30 30" xml:space="preserve" xmlns="http://www.w3.org/2000/svg">
<text x="24.396877" y="14.365981" font-family="sans-serif" font-size="40px" text-align="center" text-anchor="middle" style="line-height:1.25" xml:space="preserve"><tspan x="24.396877" y="14.365981"/></text><g transform="matrix(1.0889 0 0 1.0889 -2.5521 -1.7393)" fill="#fff" stroke-width="1.3468" aria-label="+"><path d="m16.118 1.5972c-7.6042 0-13.769 6.1625-13.774 13.766l-3.625e-4 -7.07e-4v10.66l3.625e-4 3.62e-4c0.0042 1.7263 1.404 3.1237 3.1315 3.1237l0.015221-3.63e-4 7.069e-4 3.63e-4h10.633c7.6051-0.0029 13.769-6.168 13.769-13.774 0-7.6076-6.1676-13.775-13.775-13.775zm4.0444 3.2653c0.5419 0 0.92664 0.060801 1.4284 0.19222 0.73095 0.19155 1.3281 0.79074 1.3286 1.4882 1.81e-4 0.84289-0.61173 1.4553-1.5261 1.4553-0.43578 0-0.59309-0.08319-1.2312-0.08319-1.8823 0-3.4085 1.5243-3.4118 3.4069v2.9502c0 0.26603 0.21528 0.48179 0.48179 0.48179h2.2419c0.83512 0 1.5095 0.66813 1.5102 1.5052 0 0.83778-0.67526 1.5048-1.5102 1.5048h-2.7236v3.4408c0 3.5701-2.8946 6.4651-6.4651 6.4651-0.54167 0-0.92673-0.06116-1.428-0.19222-0.73122-0.19128-1.3287-0.79063-1.3289-1.4879 0-0.84284 0.61176-1.456 1.5261-1.456 0.43532 0 0.5934 0.0839 1.2309 0.0839 1.8825 0 3.4094-1.5249 3.4125-3.4072v-2.9651c0-0.26571-0.21607-0.48108-0.48215-0.48108h-0.0011l-2.2408-3.62e-4c-0.83511 0-1.5098-0.66627-1.5098-1.5038-4.713e-4 -0.8427 0.68193-1.5063 1.5261-1.5063h2.7074v-3.4263c0-3.5706 2.8944-6.4651 6.4651-6.4651z" fill="#fff"/></g>
</svg>
