<?xml version="1.0" encoding="UTF-8"?>
<svg enable-background="new 0 0 31.586 31.586" version="1.1" viewBox="0 0 30 30" xml:space="preserve" xmlns="http://www.w3.org/2000/svg">
<text x="24.396877" y="14.365981" font-family="sans-serif" font-size="40px" text-align="center" text-anchor="middle" style="line-height:1.25" xml:space="preserve"><tspan x="24.396877" y="14.365981"/></text>
<g transform="matrix(2.1736 0 0 2.1736 -.021866 0)" fill="#fff"><g fill="#fff"><path d="m10.668 7.333c-0.018-1.749 1.426-2.586 1.49-2.628-0.811-1.185-2.073-1.348-2.524-1.366-1.073-0.11-2.096 0.632-2.642 0.632-0.544 0-1.386-0.617-2.277-0.601-1.172 0.018-2.251 0.682-2.855 1.73-1.217 2.112-0.312 5.24 0.874 6.955 0.58 0.838 1.272 1.779 2.179 1.746 0.874-0.035 1.204-0.566 2.261-0.566s1.354 0.566 2.278 0.549c0.941-0.018 1.536-0.855 2.111-1.695 0.666-0.973 0.94-1.916 0.957-1.963-0.022-0.012-1.833-0.705-1.852-2.793z"/><path d="M 8.93,2.204 C 9.411,1.621 9.737,0.809 9.648,0 8.953,0.028 8.114,0.461 7.615,1.045 7.168,1.562 6.779,2.387 6.883,3.18 7.657,3.241 8.449,2.786 8.93,2.204 Z"/></g></g></svg>
