<?xml version="1.0" encoding="UTF-8"?>
<svg enable-background="new 0 0 31.586 31.586" version="1.1" viewBox="0 0 30 30" xml:space="preserve" xmlns="http://www.w3.org/2000/svg">
<text x="24.396877" y="14.365981" font-family="sans-serif" font-size="40px" text-align="center" text-anchor="middle" style="line-height:1.25" xml:space="preserve"><tspan x="24.396877" y="14.365981"/></text>
<g transform="matrix(.32615 0 0 .32615 -.56587 -.25547)"><path d="m47.729 0.78328c-25.4 0-45.994 20.593-45.994 45.994 0 25.399 20.594 45.988 45.994 45.988 25.401 0 45.988-20.589 45.988-45.988 0-25.401-20.587-45.994-45.988-45.994zm15.209 12.785c1.1794-0.08336 2.3936 0.17224 3.4947 0.80788 2.937 1.6956 3.9418 5.4479 2.2461 8.3848-1.6947 2.9358-5.4482 3.9421-8.3848 2.2462-2.9361-1.695-3.9412-5.449-2.2462-8.3848 1.0598-1.8356 2.9245-2.9151 4.8901-3.054zm-15.209 6.5304c2.4694 0 4.8552 0.34538 7.124 0.97313 0.40148 2.4664 1.8642 4.736 4.1985 6.0836 2.3307 1.3458 5.0284 1.4815 7.3627 0.59979 4.5408 4.4641 7.4951 10.538 7.9258 17.302l-8.752 0.12853c-0.80533-9.1613-8.4886-16.347-17.859-16.347-2.7001 0-5.262 0.60238-7.5586 1.6708l-4.2658-7.6443c3.5635-1.7652 7.5783-2.7664 11.824-2.7664zm-14.799 4.4801 4.4862 7.5219c-4.611 3.2455-7.6259 8.6082-7.6259 14.676 0 6.0692 3.0149 11.425 7.6259 14.67l-4.4862 7.5219c-5.3736-3.5904-9.375-9.0801-11.035-15.509 1.9396-1.5806 3.1826-3.9848 3.1826-6.6834 0-2.6989-1.243-5.1086-3.1826-6.6895 1.6602-6.4285 5.6616-11.918 11.035-15.509zm-16.476 16.06c3.3907 0 6.1387 2.7468 6.1387 6.1387 0 3.3909-2.748 6.1387-6.1387 6.1387-3.3918 0-6.1387-2.7477-6.1387-6.1387 0-3.3918 2.7468-6.1387 6.1387-6.1387zm49.134 7.7299 8.752 0.1224c-0.43009 6.7642-3.3856 12.838-7.9258 17.302-2.3346-0.88233-5.0323-0.74567-7.3627 0.59979-2.3346 1.3481-3.7971 3.6236-4.1985 6.0897-2.2691 0.62834-4.6546 0.96701-7.124 0.96701-4.2461 0-8.2606-0.99561-11.824-2.7603l4.2658-7.6443c2.2968 1.0685 4.8585 1.6647 7.5586 1.6647 9.3705 0 17.054-7.1787 17.859-16.341zm-1.7994 19.365c1.9656 0.13897 3.8307 1.2194 4.8901 3.054 1.6956 2.9367 0.68992 6.6895-2.2461 8.3848-2.937 1.6956-6.6892 0.6908-8.3848-2.2462-1.6953-2.9358-0.69081-6.6892 2.2462-8.3848 1.101-0.63564 2.3153-0.89126 3.4947-0.80788z" fill="#fff"/></g></svg>
