<?xml version="1.0" encoding="UTF-8"?>
<svg enable-background="new 0 0 432.544 432.544" version="1.1" viewBox="0 0 432.54 432.54" xml:space="preserve" xmlns="http://www.w3.org/2000/svg">
<g fill="#ccc">
	<path d="m421.98 229.83-204.14-203.85c-7.235-7.238-16.94-13.374-29.121-18.416-12.185-5.043-23.319-7.565-33.408-7.565h-118.77c-9.899 0-18.464 3.619-25.697 10.848-7.233 7.233-10.848 15.798-10.848 25.697v118.77c0 10.088 2.519 21.219 7.564 33.404s11.182 21.792 18.417 28.837l204.14 204.42c7.043 7.043 15.602 10.564 25.697 10.564 9.89 0 18.558-3.521 25.98-10.564l140.19-140.47c7.043-7.046 10.561-15.604 10.561-25.693 0-9.898-3.518-18.559-10.557-25.984zm-304.78-112.63c-7.142 7.138-15.752 10.709-25.841 10.709-10.085 0-18.699-3.571-25.837-10.709-7.138-7.139-10.706-15.749-10.706-25.837 0-10.089 3.568-18.702 10.706-25.837 7.139-7.139 15.752-10.71 25.837-10.71 10.089 0 18.702 3.571 25.841 10.71 7.135 7.135 10.706 15.749 10.706 25.837s-3.567 18.698-10.706 25.837z" fill="#ccc"/>
</g>















</svg>
