<?xml version="1.0" encoding="UTF-8"?>
<svg enable-background="new 0 0 31.586 31.586" version="1.1" viewBox="0 0 30 30" xml:space="preserve" xmlns="http://www.w3.org/2000/svg">
<g transform="matrix(.94979 0 0 .94979 0 .00022832)" fill="#fff"><g stroke-width=".37418" aria-label="_"><path d="m17.248 18.324h-7.6756v-1.6349h7.6756z" fill="#fff" stroke-width=".37418"/></g>
	<path d="m29.328 2.255h-27.072c-1.246 0-2.256 1.009-2.256 2.255v22.564c0 1.245 1.01 2.256 2.256 2.256h27.072c1.244 0 2.258-1.012 2.258-2.256v-22.564c0-1.246-1.014-2.255-2.258-2.255zm-21.995 1.694c0.622 0 1.128 0.502 1.128 1.128 0 0.623-0.506 1.125-1.128 1.125-0.626 0-1.131-0.502-1.131-1.125 0-0.626 0.505-1.128 1.131-1.128zm-3.386 0c0.623 0 1.127 0.502 1.127 1.128 0 0.623-0.504 1.125-1.127 1.125-0.624 0-1.129-0.502-1.129-1.125 0-0.626 0.505-1.128 1.129-1.128zm25.381 23.126h-27.072v-19.155h27.072z"/>
<g stroke-width=".37418" aria-label="&gt;"><path d="m3.2748 10.327 0.9134-1.4737 5.9716 3.692v1.5888l-5.9256 3.692-0.95945-1.4046 5.1426-3.0779z" fill="#fff" stroke-width=".37418"/></g></g><text x="24.396877" y="14.365981" font-family="sans-serif" font-size="40px" text-align="center" text-anchor="middle" style="line-height:1.25" xml:space="preserve"><tspan x="24.396877" y="14.365981"/></text>
</svg>
