<?xml version="1.0" encoding="UTF-8"?>
<svg version="1.1" viewBox="0 0 448 448" xmlns="http://www.w3.org/2000/svg"><path d="m225.74 19.271c-112.05 0-206.47 90.026-206.47 201.16 0 3.5645 0.0914 208.29 0.0914 208.29l206.37-0.18279c112.14 0 202.99-93.499 202.99-204.64 0-111.14-90.849-204.64-202.99-204.64zm-1.7365 321.72c-17.731 0-34.639-3.9301-49.72-11.059l-74.123 18.371 20.93-68.548c-8.9569-16.543-14.075-35.553-14.075-55.752 0-64.618 52.371-116.99 116.99-116.99s116.99 52.371 116.99 116.99-52.371 116.99-116.99 116.99z" fill="#fff" stroke-width=".91397"/></svg>
