<?xml version="1.0" encoding="UTF-8"?>
<svg version="1.1" viewBox="0 0 40 40" xmlns="http://www.w3.org/2000/svg"><g transform="translate(-297.14 -466.65)"><path d="m317.73 467.75c-10.718 0-19.37 8.6517-19.37 19.37 0 8.5226 5.5526 15.754 13.3 18.337 1.033 0.12913 1.2913-0.3874 1.2913-0.90392v-3.3574c-5.4235 1.1622-6.5856-2.5826-6.5856-2.5826-0.90391-2.1952-2.1952-2.8409-2.1952-2.8409-1.8078-1.1622 0.12913-1.1622 0.12913-1.1622 1.937 0.12913 2.97 1.937 2.97 1.937 1.6787 2.97 4.5196 2.0661 5.6817 1.5496 0.12913-1.2913 0.64565-2.0661 1.2913-2.5826-4.2613-0.51652-8.7809-2.1952-8.7809-9.5556 0-2.0661 0.77478-3.8739 1.937-5.1652-0.25827-0.51652-0.90392-2.4535 0.12913-5.1652 0 0 1.6787-0.51652 5.2943 1.937 1.5496-0.38739 3.2283-0.64565 4.907-0.64565s3.3574 0.25826 4.907 0.64565c3.7448-2.4535 5.2943-1.937 5.2943-1.937 1.033 2.7117 0.38739 4.6487 0.12913 5.1652 1.2913 1.2913 1.937 3.0991 1.937 5.1652 0 7.4896-4.5196 9.0391-8.7809 9.5556 0.64566 0.64565 1.2913 1.8078 1.2913 3.6156v5.2943c0 0.51652 0.38739 1.1622 1.2913 0.90392 7.7478-2.5826 13.171-9.8139 13.171-18.337 0.12913-10.589-8.5226-19.24-19.24-19.24z" clip-rule="evenodd" fill="#fff" fill-rule="evenodd" stroke-width="1.2913"/></g></svg>
