<?xml version="1.0" encoding="UTF-8"?>
<svg width="61.077mm" height="65.478mm" version="1.1" viewBox="0 0 216.41 232.01" xmlns="http://www.w3.org/2000/svg"><path transform="scale(.9375)" d="m115.06 0c-31.639 0.25867-62.073 3.6847-79.809 11.83 0 0-35.176 15.735-35.176 69.42 0 12.293-0.23894 26.992 0.15039 42.58 1.2773 52.501 9.6247 104.24 58.166 117.09 22.381 5.924 41.598 7.1651 57.074 6.3144 28.065-1.556 43.82-10.016 43.82-10.016l-0.92578-20.363s-20.056 6.3234-42.58 5.5527c-22.316-0.76534-45.875-2.406-49.484-29.805-0.33333-2.4067-0.5-4.9809-0.5-7.6836 0-1e-5 21.907 5.355 49.67 6.627 16.976 0.77866 32.895-0.9945 49.064-2.9238 31.008-3.7027 58.007-22.808 61.4-40.266 5.3467-27.5 4.9062-67.109 4.9062-67.109 0-53.685-35.174-69.42-35.174-69.42-17.735-8.1453-48.188-11.571-79.826-11.83h-0.77734zm-35.807 41.947c13.179 0 23.157 5.0653 29.756 15.197l6.416 10.754 6.416-10.754c6.5973-10.132 16.576-15.197 29.756-15.197 11.389 0 20.566 4.0038 27.574 11.814 6.7933 7.8107 10.176 18.369 10.176 31.654v65.004h-25.754v-63.094c0-13.3-5.5957-20.051-16.789-20.051-12.376 0-18.578 8.0071-18.578 23.842v34.535h-25.602v-34.535c0-15.835-6.2041-23.842-18.58-23.842-11.193 0-16.789 6.7508-16.789 20.051v63.094h-25.754v-65.004c0-13.285 3.3831-23.844 10.178-31.654 7.0067-7.8107 16.184-11.814 27.574-11.814z" fill="#fff" stroke-width="1.0667"/></svg>
