<?xml version="1.0" encoding="UTF-8"?>
<svg version="1.1" viewBox="0 0 236 48" xml:space="preserve" xmlns="http://www.w3.org/2000/svg"><g transform="matrix(.87716 0 0 .87716 -11.565 1.1689)" stroke-width=".62362"><path d="m242.26 6.0408c4.0901-3.4923 9.7534-7.2364 11.83-7.3308 2.0765-0.094388 4.3104 0.88095 6.1037 2.0765 1.7934 1.1956 3.4294 2.7687 3.9643 4.3104 0.53487 1.5417 0.72364 11.578 0.72364 11.578s-2.2338-0.09439-2.2024-0.2517c0.0315-0.15731-1.1327-4.3733-1.7619-5.443-0.62925-1.0697-0.56632-0.34609-0.56632-0.34609s0.0315 2.7372-0.81803 4.4048c-0.84948 1.6675-17.273-8.9983-17.273-8.9983z" fill="#a40d0d"/><path d="m240.88 6.4813c2.0136-1.8248 3.1777-1.1012 5.0025-0.5034 2.7798 0.91063 11.909 6.2925 13.482 8.1803 1.7129 2.0555 1.1484 3.7755 0.26743 5.6003s-1.636 3.6497-4.0901 3.5867c-2.4541-0.06292-7.7452-1.7203-11.86-4.549-3.6625-2.5179-6.0109-4.7009-5.8851-6.5887 0.12585-1.8878 3.0833-5.7262 3.0833-5.7262z" fill="#dadade"/><path d="m263.53 15.857c2.6114 0 3.8699 1.29 3.9643 3.0519s-1.1012 3.398-3.3665 3.5867c-2.2653 0.18878-3.9014-1.4473-3.8699-3.2721s1.29-3.3036 3.2721-3.3665z" fill="#dadade"/><path d="m239.05 13.372c0.72364-0.69218 4.7537-0.08139 10.728 3.7063 5.1317 3.2533 6.4984 4.9466 6.2152 5.45-0.28316 0.5034-3.5156 0.73227-10.827-3.5575-4.5462-2.6675-6.4943-5.0324-6.1168-5.5987z" fill="#b0b0b0"/><path d="m244.59 5.4023c-0.7551-0.062925-1.5121 0.22945-2.5504 2.2745-1.0383 2.0451-2.0136 4.3418-0.94387 4.6879 1.0697 0.34609 5.8877 2.0908 8.84 3.8569 4.7283 2.8285 6.9228 5.5734 7.2227 5.8632 0.28357 0.27391 0.76242 0.73667 1.6119-0.67914 0.84949-1.4158 2.0217-3.9618 1.7063-5.5485-0.28986-1.4583-1.7512-3.7355-6.7015-6.5127-4.9203-2.7604-7.8726-3.7752-9.1852-3.942z" fill="#fff"/><path d="m265.1 16.109c-2.3597-0.28316-3.6182 1.0697-3.6811 2.5485-0.0629 1.4787 0.62925 3.0833 2.517 3.2406 1.8878 0.15731 3.3665-0.7551 3.4609-2.2653s-0.72363-3.398-2.2968-3.5238z" fill="#fff"/><path d="m260.42 10.257c-0.0315-2.6114-2.0451-5.5059-3.807-6.7015s-2.6114-1.9192-2.2338-2.2653c0.37755-0.34609 6.5757 1.7619 7.3308 3.6811s0.12585 8.432 0.12585 8.432-0.56633-2.0136-0.88095-2.3597c-0.31463-0.34609-0.53487-0.78656-0.53487-0.78656z" fill="#7c0a0a"/><path d="m244.97 3.853c3.2406-0.37755 7.8001 1.3697 8.1777 0.96072 0.37755-0.40901-1.8328-3.963-3.0913-3.9945-1.2585-0.031463-5.0864 3.0338-5.0864 3.0338z" fill="#7c0a0a"/></g><g fill="#bbb"><path d="m134.28 9.9104 23.452 34.211h10.38l-23.463-34.211zm23.493 0 23.463 34.211h10.38l-23.463-34.211zm23.502 0 23.463 34.211h10.371l-23.463-34.211zm-59.411 0h8.8741v34.216h-8.8741zm-35.572 34.21v-20.035l11.245 17.066h0.22844l11.354-17.234v20.205h8.8211v-34.211h-9.5654l-10.608 17.055-10.608-17.055c4.4145 1.9646-4.7964 0.40843-9.5655 0v34.211zm77.263-8.4232 5.1874 7.5659 5.3474-7.7995-5.1874-7.5642zm-11.75-17.138 5.1883 7.5685 5.3466-7.7978-5.1891-7.566-5.3448 7.7961zm50.998-4.9158-3.9984 4.9192 5.1866 7.5634 5.8877-8.4481c-2.3158-1.6122-4.5927-2.9997-7.0758-4.0345zm-68.528 30.479h10.379l5.9335-8.6543-5.1891-7.5685-11.123 16.222zm52.78-8.4258 5.1874 7.5642 5.3448-7.7961-5.1874-7.5642zm-11.749-17.135 5.1866 7.5634 5.3448-7.7961-5.1866-7.5625-5.3448 7.7944z" stroke-width=".85559"/><path d="m35.717 15.042c-1.118 0-2.0316 0.91357-2.0316 2.0316v7.057c0 1.118 0.91357 2.0316 2.0316 2.0316h6.2016c1.118 0 2.0316-0.91357 2.0316-2.0316v-7.057c0-1.118-0.91357-2.0316-2.0316-2.0316zm2.8254 1.7091h0.55002c0.32163 0 0.58167 0.26004 0.58167 0.58167v6.5378c0 0.32163-0.26004 0.57996-0.58167 0.57996h-0.55002c-0.32163 0-0.57996-0.25833-0.57996-0.57996v-6.5378c0-0.32163 0.25833-0.58167 0.57996-0.58167zm-16.344-6.8415c-1.2112 0-2.1984 0.9341-2.1984 2.0803v25.777c0 1.1454 0.98799 2.082 2.1984 2.082h33.238c1.2112 0 2.2001-0.93581 2.2001-2.082v-25.777c0-1.1454-0.98884-2.0803-2.2001-2.0803zm10.953 3.4216h11.334c1.118 0 2.0316 0.91357 2.0316 2.0316v5.667h5.7209c0.61503 0 1.1231 0.50811 1.1231 1.1231v0.32078c0 0.61418-0.50811 1.1231-1.1231 1.1231h-5.7209v4.8116c0 1.118-0.91357 2.0316-2.0316 2.0316h-11.334c-1.118 0-2.0316-0.91357-2.0316-2.0316v-4.8116h-5.7209c-0.61503 0-1.1231-0.50811-1.1231-1.1231v-0.32078c0-0.61503 0.50811-1.1231 1.1231-1.1231h5.7209v-5.667c0-1.118 0.91357-2.0316 2.0316-2.0316zm-8.0194 18.817h0.8554v5.1324h-0.8554zm3.4216 0h0.8554v4.277h-0.8554zm3.4216 0h0.8554v3.4216h-0.8554zm3.4216 0h0.8554v2.5662h-0.8554zm3.4216 0h0.8554v5.1324h-0.8554zm3.4216 0h0.8554v2.5662h-0.8554zm3.4216 0h0.8554v3.4216h-0.8554zm2.5662 0h0.8554v4.277h-0.8554zm3.4216 0h0.8554v5.1324h-0.8554zm-31.65 7.211v2.5662c0 1.2121 0.99226 2.2001 2.2052 2.2001h33.227c1.213 0 2.2052-0.98799 2.2052-2.2001v-2.5662c0 1.2112-0.98884 2.2001-2.2001 2.2001h-33.238c-1.2112 0-2.1984-0.98884-2.1984-2.2001z" color="#000000" solid-color="#000000" stroke-width=".8554" style="isolation:auto;mix-blend-mode:normal;text-decoration-color:#000000;text-decoration-line:none;text-decoration-style:solid;text-indent:0;text-transform:none;white-space:normal"/></g><path d="m19.875 9.4789c-0.18216 0.33509-0.4453 0.79511-0.31225 1.1929 0.60889 1.8205 0.93733-0.44062 1.9776-0.02593 0.33298 0.13274 0.86226 1.2819 1.301 1.0632 0.75337-0.37541 1.0239-1.4869 1.9255-1.7116 0.38444-0.095786 0.6197 1.1151 1.1709 1.1151 0.40233 0 0.68287-0.54213 1.1189-0.59645 0.45471-0.05664 0.80864 0.20796 1.223 0.31119 0.46939 0.11695 0.99845-0.34768 1.4572-0.23339 0.51955 0.12945 0.47351 2.8704 3.6949 2.4117 0.64326-0.09158 0.38632-1.2428 0.91072-1.5041 0.13085-0.06521 0.6896 0.52156 0.85868 0.59645 0.31138 0.13792 1.2138-0.0826 1.5612-0.18153 0.61992-0.17652 0.89093-1.5074 1.3791-1.4263 0.46895 0.0779 0.96004 0.49682 1.4051 0.67425 0.41157 0.16407 0.85833 0.02582 1.249 0.1556 0.96048 0.31908 1.8766 1.0181 2.8623 1.2448 0.71106 0.16354 0.92739-0.44936 1.5352-0.57052 0.77911-0.1553 1.664 0.71185 2.3939 0.77798 0.67196 0.06088 0.88271-0.59138 1.4832-0.70018 0.57184-0.10362 1.0834 0.20881 1.6393 0.12966 0.31191-0.04441 0.52001-0.35276 0.85868-0.28526 0.72803 0.14512 1.249 0.74407 2.0296 0.80391 0.81979 0.06285 1.4167-0.94279 2.2898-0.85578 0.53217 0.05303 1.8505 0.37676 2.0556-0.44086 0.31917-1.2724-2.6033-2.4535-3.4347-2.6192-0.66346-0.13224-1.3916 0.34049-2.0296 0.18153-0.45879-0.11431-0.65235-0.56147-1.1969-0.44085-0.40286 0.089222-0.75172 0.38863-1.1709 0.44085-1.3779 0.17166-2.5604-0.77383-3.9031-0.90764-0.95862-0.095538-1.7529 0.90259-2.6281 0.77798-0.76413-0.10879-1.0437-1.0859-1.7954-1.1929-0.50316-0.071637-0.79741 0.55295-1.1969 0.75205-0.16924 0.084336-1.1902-0.74878-1.4832-0.77798-0.78584-0.078318-1.0484 0.72244-1.7174 0.85578-0.55637 0.1109-1.2329-0.91231-1.9776-0.82984-0.5444 0.060285-0.96202 0.65471-1.5352 0.72611-0.71976 0.089666-1.396-0.31806-2.1077-0.38899-1.0178-0.10143-2.1052 0.20393-3.1485 0.12966-0.51446-0.036623-0.98297-0.3176-1.5092-0.25933-0.8577 0.094978-1.6651 0.6742-2.498 0.88171-0.52807 0.13157-0.94904-0.0076369-1.4311-0.10373-1.0913-0.21752-2.4947 0.36863-3.3046 0.82984z" fill="#b7c5d9" stroke-width=".5152"/><path d="m20.184 8.8872c-0.17945 0.29926-0.43866 0.71009-0.3076 1.0654 0.59982 1.6258 0.92337-0.39351 1.9481-0.02316 0.32802 0.11855 0.84942 1.1448 1.2817 0.94955 0.74215-0.33527 1.0086-1.3279 1.8968-1.5285 0.37872-0.085545 0.61047 0.99587 1.1535 0.99587 0.39634 0 0.6727-0.48417 1.1022-0.53268 0.44794-0.050591 0.7966 0.18572 1.2048 0.27792 0.4624 0.10445 0.98358-0.31051 1.4355-0.20844 0.51181 0.11561 0.46646 2.5635 3.6399 2.1539 0.63368-0.08179 0.38057-1.1099 0.89716-1.3433 0.1289-0.05824 0.67934 0.46579 0.84589 0.53268 0.30674 0.12318 1.1957-0.07377 1.538-0.16212 0.61069-0.15765 0.87767-1.3462 1.3586-1.2738 0.46197 0.069565 0.94574 0.4437 1.3842 0.60216 0.40544 0.14653 0.84555 0.02306 1.2304 0.13896 0.94618 0.28496 1.8486 0.90922 2.8196 1.1117 0.70048 0.14605 0.91358-0.40132 1.5124-0.50952 0.76751-0.13869 1.6392 0.63573 2.3582 0.69479 0.66196 0.05437 0.86956-0.52814 1.4611-0.62531 0.56332-0.09253 1.0673 0.18648 1.6149 0.1158 0.30726-0.03965 0.51226-0.31504 0.84589-0.25476 0.71719 0.1296 1.2304 0.66451 1.9994 0.71795 0.80758 0.05612 1.3956-0.84198 2.2557-0.76427 0.52424 0.04736 1.823 0.33648 2.025-0.39372 0.31442-1.1363-2.5645-2.1911-3.3836-2.3391-0.65358-0.1181-1.3709 0.30409-1.9994 0.16212-0.45196-0.10209-0.64263-0.50143-1.1791-0.39372-0.39686 0.079682-0.74052 0.34708-1.1535 0.39372-1.3574 0.1533-2.5223-0.69108-3.845-0.81059-0.94434-0.085323-1.7268 0.80608-2.5889 0.69479-0.75275-0.09716-1.0282-0.96977-1.7687-1.0654-0.49567-0.063977-0.78554 0.49383-1.1791 0.67163-0.16672 0.07532-1.1725-0.66872-1.4611-0.69479-0.77413-0.069944-1.0328 0.64519-1.6918 0.76427-0.54809 0.099041-1.2145-0.81476-1.9481-0.74111-0.5363 0.05384-0.9477 0.5847-1.5124 0.64847-0.70904 0.080078-1.3752-0.28405-2.0763-0.3474-1.0026-0.090586-2.0738 0.18213-3.1016 0.1158-0.5068-0.032707-0.96833-0.28364-1.4867-0.2316-0.84492 0.084823-1.6403 0.60211-2.4608 0.78743-0.52021 0.1175-0.9349-0.00683-1.4098-0.09264-1.075-0.19426-2.4576 0.32921-3.2554 0.74111z" fill="#fff" stroke-width=".48324"/><path d="m78.133 9.6109c-3.1418 0.63378-0.92044 2.503-0.51169 4.138 0.13035 0.5214 0.05378 2.107 0.55618 2.3582 0.50813 0.25407 0.86698-0.51035 1.0234-0.82315 0.26485-0.5297 0.28922-1.1582 0.28922-1.7353 0-0.07742-0.06674-0.2999-0.06674-0.22247 0 0.47875 1.353-0.62795 1.4683-0.8009 0.2621-0.39316 0.13118-1.2731 0.73416-1.4238 0.54104-0.13526 1.1947 0.67132 1.713 0.8009 1.1631 0.29078 1.8054-1.201 3.0034-1.0679 0.67126 0.07458 2.5677 1.2402 2.9367 0.13348 0.25685-0.77055-1.3023-0.5288-1.5351-0.64517-0.2185-0.10925-0.27627-0.52531-0.48944-0.66742-0.99501-0.66334-1.8377 0.11344-2.8254-0.13348-3.167-0.79175-3.2462-2.0895-6.296 0.088989z" fill="#b7c5d9" stroke-width=".624"/><path d="m108.12 9.8778c-0.64284-0.092438-1.8599 0.68297-0.86764 1.1791 0.80411 0.40206 1.6196-0.36596 2.3805-0.55618 0.77492-0.19373 1.5788 0.582 2.3582 0.71192 0.44501 0.07417 0.80856-0.36804 1.2459-0.4227 0.23082-0.02885 3.2804 0.07177 3.3148 0.08899 0.70359 0.35179 0.82819 1.2186 1.7353 0.31146 1.266-1.266-0.56027-2.2935-1.5796-2.8032-1.8686-0.93429-3.191 1.0859-4.8054 1.6241-0.98531 0.32844-0.72096-0.80392-1.3126-1.0011-0.47561-0.15854-1.8204 0.70538-2.4695 0.86765z" fill="#b7c5d9" stroke-width=".624"/><path d="m122.72 8.1648c-4.7031-0.092801-1.2825 2.0731-1.5351 4.0935-0.16487 1.319-1.1906 2.8468-0.51168 4.2048 0.29257 0.58516 0.98239 0.91378 1.5128 0.48944 0.86906-0.69525 1.0381-4.6882 1.2903-4.7387 1.6952-0.33904 1.4642 1.9456 3.0924 1.713 1.3841-0.19773 0.92365-2.8698 2.5584-2.4027 1.3254 0.3787 0.64764 1.0579 0.8454 2.0468 0.0989 0.4945 0.78997 0.61991 1.0901 0.24472 0.74253-0.92816-0.4414-1.4158-0.22247-2.2915 0.21943-0.87772 1.3781-1.2952 1.1346-2.2692-0.31153-1.2461-2.3584-0.28937-2.9366-0.86765-0.17034-0.17034-0.14035-0.36823-0.46719-0.4227-0.68844-0.11474-1.4769 0.43466-2.1135 0.22247-0.56796-0.18932-1.224-0.52941-1.8688-0.40045-0.55395 0.11079-1.1019 0.31538-1.6241 0.48944" fill="#b7c5d9" stroke-width=".624"/><path d="m134.95 9.1882c-0.5738-0.12328-1.0621-0.14072-1.4238 0.31146-0.79923 0.99904 0.91553 1.6286 1.4461 2.336 0.19209 0.25612-0.14168 0.81769 0.13348 1.0011 0.17245 0.11497 0.45496 0.19822 0.66742 0.15573 1.3623-0.27247 2.1012-2.2659 3.6263-1.7575 1.4538 0.48458 0.89364 3.2385 3.0701 2.8032 0.95212-0.19042-0.53386-2.6029 0.77866-2.6029 1.1651 0 2.8492 2.201 3.5596 1.4906 0.73027-0.73027-1.349-2.5989-1.891-2.8699-0.59323-0.29661-0.77611-0.96648-1.3793-1.2681-1.348-0.67399-2.698 0.087781-4.0268-0.17798-2.0487-0.40975-1.1121-1.2237-3.5596 0" fill="#b7c5d9" stroke-width=".624"/><path d="m159.61 9.2185c-1.7602-0.035701-2.6412 0.65847-3.8699 2.2968-0.0797 0.10628-0.50594 0.65817-0.34609 0.81803 0.75188 0.75188 2.0154-0.78472 2.926 0.12585 0.23448 0.23448 2.2057 2.1676 2.8002 1.5731 0.16008-0.16008-1.8999-3.9227 2.1394-3.1148 1.394 0.2788 4.896 2.2399 6.1037 1.6361 0.70704-0.35352-0.46572-1.8124-0.69217-2.2653-0.16247-0.32493 0.23601-1.0539 0-1.29-0.27446-0.27446-0.94405-0.26752-1.29-0.44048-0.65093-0.32547-0.6622-1.1751-1.3844-1.4158-1.8564-0.6188-3.3348 1.8523-4.8767 2.0451" fill="#b7c5d9" stroke-width=".624"/><path d="m181.83 9.8357c-0.31571-1.0811-4.0469 1.0946-2.1395 1.7304 1.5695 0.52318 3.5704-2.6038 7.0791-0.84949 0.70169 0.35084 1.3425 0.74116 2.0451 0.97534 1.1384 0.37947 2.2418 0.0892 3.335 0.81803 0.27359 0.18239 1.7256 1.7982 1.9821 1.5417 0.60318-0.60318-1.5023-2.4776-1.9507-2.926-0.39819-0.39819-0.7036-1.0804-1.29-1.227-0.90067-0.22517-1.7785 0.053322-2.6743-0.12585-0.66894-0.13379-2.2253-1.2156-2.8946-0.88095-0.77307 0.38654-1.2373 0.52042-2.108 0.62925" fill="#b7c5d9" stroke-width=".624"/><path d="m78.218 9.0364c-3.1418 0.63378-0.92044 2.503-0.51169 4.138 0.13035 0.5214 0.0538 2.107 0.55619 2.3582 0.50813 0.25407 0.86697-0.51035 1.0234-0.82315 0.26485-0.5297 0.28921-1.1582 0.28921-1.7353 0-0.07742-0.0667-0.2999-0.0667-0.22247 0 0.47875 1.353-0.62795 1.4683-0.8009 0.2621-0.39316 0.13118-1.2731 0.73416-1.4238 0.54105-0.13526 1.1947 0.67132 1.713 0.8009 1.1631 0.29078 1.8054-1.201 3.0034-1.0679 0.67126 0.07458 2.5677 1.2402 2.9366 0.13348 0.25685-0.77055-1.3023-0.5288-1.5351-0.64517-0.2185-0.10925-0.27627-0.52531-0.48944-0.66742-0.99501-0.66334-1.8377 0.11344-2.8254-0.13348-3.167-0.79175-3.2462-2.0895-6.296 0.088989z" fill="#fff" stroke-width=".624"/><path d="m108.21 9.3034c-0.64284-0.092438-1.8599 0.68297-0.86764 1.1791 0.80411 0.40206 1.6196-0.36596 2.3805-0.55618 0.77492-0.19373 1.5788 0.58201 2.3582 0.71192 0.44501 0.07417 0.80856-0.36804 1.2459-0.4227 0.23082-0.02885 3.2804 0.07177 3.3148 0.08899 0.70359 0.35179 0.82819 1.2186 1.7353 0.31146 1.266-1.266-0.56027-2.2935-1.5796-2.8032-1.8686-0.93429-3.191 1.0859-4.8054 1.6241-0.98531 0.32844-0.72096-0.80392-1.3126-1.0011-0.47561-0.15854-1.8204 0.70538-2.4695 0.86765z" fill="#fff" stroke-width=".624"/><path d="m122.74 7.6126c-4.7031-0.092801-1.2825 2.0731-1.5351 4.0935-0.16487 1.319-1.1906 2.8468-0.51168 4.2048 0.29257 0.58516 0.98239 0.91378 1.5128 0.48944 0.86906-0.69525 1.0381-4.6882 1.2903-4.7387 1.6952-0.33904 1.4642 1.9456 3.0924 1.713 1.3841-0.19773 0.92365-2.8698 2.5584-2.4027 1.3254 0.3787 0.64764 1.0579 0.8454 2.0468 0.0989 0.4945 0.78997 0.61991 1.0901 0.24472 0.74253-0.92816-0.4414-1.4158-0.22247-2.2915 0.21943-0.87772 1.3781-1.2952 1.1346-2.2692-0.31153-1.2461-2.3584-0.28937-2.9366-0.86765-0.17034-0.17034-0.14035-0.36823-0.46719-0.4227-0.68844-0.11474-1.4769 0.43466-2.1135 0.22247-0.56796-0.18932-1.224-0.52941-1.8688-0.40045-0.55395 0.11079-1.1019 0.31538-1.6241 0.48944" fill="#fff" stroke-width=".624"/><path d="m135.04 8.6137c-0.5738-0.12328-1.0621-0.14072-1.4238 0.31146-0.79923 0.99904 0.91553 1.6286 1.4461 2.336 0.19209 0.25612-0.14168 0.81769 0.13348 1.0011 0.17245 0.11497 0.45496 0.19822 0.66742 0.15573 1.3623-0.27247 2.1012-2.2659 3.6263-1.7575 1.4538 0.48458 0.89364 3.2385 3.0701 2.8032 0.95212-0.19042-0.53386-2.6029 0.77866-2.6029 1.1651 0 2.8492 2.201 3.5596 1.4906 0.73027-0.73027-1.349-2.5989-1.891-2.8699-0.59323-0.29661-0.77611-0.96648-1.3793-1.2681-1.348-0.67399-2.698 0.087781-4.0268-0.17798-2.0487-0.40975-1.1121-1.2237-3.5596 0" fill="#fff" stroke-width=".624"/><path d="m159.69 8.644c-1.7602-0.035701-2.6412 0.65847-3.8699 2.2968-0.0797 0.10628-0.50594 0.65817-0.34609 0.81803 0.75188 0.75188 2.0154-0.78472 2.926 0.12585 0.23448 0.23448 2.2057 2.1676 2.8002 1.5731 0.16008-0.16008-1.8999-3.9227 2.1394-3.1148 1.394 0.2788 4.896 2.2399 6.1037 1.6361 0.70704-0.35352-0.46572-1.8124-0.69217-2.2653-0.16247-0.32493 0.23601-1.0539 0-1.29-0.27446-0.27446-0.94405-0.26752-1.29-0.44048-0.65093-0.32547-0.6622-1.1751-1.3844-1.4158-1.8564-0.6188-3.3348 1.8523-4.8767 2.0451" fill="#fff" stroke-width=".624"/><path d="m181.91 9.2612c-0.31571-1.0811-4.0469 1.0946-2.1395 1.7304 1.5695 0.52318 3.5704-2.6038 7.0791-0.84949 0.70169 0.35085 1.3425 0.74116 2.0451 0.97534 1.1384 0.37947 2.2418 0.0892 3.335 0.81803 0.27359 0.18239 1.7256 1.7982 1.9821 1.5417 0.60318-0.60318-1.5023-2.4776-1.9507-2.926-0.39819-0.39819-0.7036-1.0804-1.29-1.227-0.90067-0.22517-1.7785 0.053322-2.6743-0.12585-0.66894-0.13379-2.2253-1.2156-2.8946-0.88095-0.77307 0.38654-1.2373 0.52042-2.108 0.62925" fill="#fff" stroke-width=".624"/></svg>
