<?xml version="1.0" encoding="UTF-8"?>
<svg version="1.1" viewBox="0 0 32 32" xmlns="http://www.w3.org/2000/svg" xmlns:xlink="http://www.w3.org/1999/xlink"><defs><radialGradient id="radialGradient3860" cx="422.82" cy="489.91" r="117.14" gradientTransform="matrix(-2.7949 0 0 2.0016 -839.45 -893.93)" gradientUnits="userSpaceOnUse" xlink:href="#linearGradient5060"/><radialGradient id="radialGradient3858" cx="576.93" cy="486.67" r="117.14" gradientTransform="matrix(2.9485 -1.3567e-7 8.3868e-6 1.9847 -1724.9 -879.26)" gradientUnits="userSpaceOnUse" xlink:href="#linearGradient5060"/><linearGradient id="linearGradient3856" x1="302.86" x2="302.86" y1="366.65" y2="609.51" gradientTransform="matrix(5.4518 0 0 1.9847 -3212.5 -882)" gradientUnits="userSpaceOnUse" xlink:href="#linearGradient5048"/><linearGradient id="linearGradient3862" x1="25.125" x2="25.125" y1="6" y2="43.642" gradientTransform="matrix(1 0 0 .87805 7.0097e-7 1.4268)" gradientUnits="userSpaceOnUse"><stop stop-color="#f1f1f1" offset="0"/><stop stop-color="#ddd" stop-opacity=".93694" offset="1"/></linearGradient><linearGradient id="linearGradient3864" x1="18.385" x2="24.66" y1="3.629" y2="22.5" gradientUnits="userSpaceOnUse"><stop stop-color="#fff" stop-opacity="0" offset="0"/><stop stop-color="#fff" offset=".5"/><stop stop-color="#fff" stop-opacity="0" offset="1"/></linearGradient><radialGradient id="radialGradient3871" cx="422.82" cy="489.91" r="117.14" gradientTransform="matrix(-1.7848 0 0 1.9864 -371.35 -888.32)" gradientUnits="userSpaceOnUse" xlink:href="#linearGradient5060"/><linearGradient id="linearGradient5060"><stop offset="0"/><stop stop-opacity="0" offset="1"/></linearGradient><radialGradient id="radialGradient3869" cx="576.93" cy="486.67" r="117.14" gradientTransform="matrix(2.0207 .00036413 -.00027703 1.9847 -996.46 -879.47)" gradientUnits="userSpaceOnUse" xlink:href="#linearGradient5060"/><linearGradient id="linearGradient5048"><stop stop-opacity="0" offset="0"/><stop offset=".5"/><stop stop-opacity="0" offset="1"/></linearGradient><linearGradient id="linearGradient3867" x1="302.86" x2="302.86" y1="366.65" y2="609.51" gradientTransform="matrix(3.5307 0 0 1.9697 -1897.5 -872.89)" gradientUnits="userSpaceOnUse" xlink:href="#linearGradient5048"/><linearGradient id="linearGradient3873" x1="24.375" x2="27.195" y1="-43.625" y2="-43.625" gradientTransform="matrix(.8 0 0 .74468 -2.3 -6.1277)" gradientUnits="userSpaceOnUse"><stop stop-color="#797979" offset="0"/><stop stop-color="#babdb6" offset="1"/></linearGradient><linearGradient id="linearGradient3875" x1="12.979" x2="12.979" y1="10.432" y2="42.633" gradientTransform="matrix(.65517 0 0 .45946 1.6207 12.973)" gradientUnits="userSpaceOnUse"><stop stop-color="#6b6d68" offset="0"/><stop stop-color="#4d4e4b" offset=".10345"/><stop stop-color="#454643" offset="1"/></linearGradient><linearGradient id="linearGradient3877" x1="14" x2="45.125" y1="-10.188" y2="-40.313" gradientTransform="matrix(.73913 0 0 .65217 -1.2174 -8.3478)" gradientUnits="userSpaceOnUse"><stop stop-color="#fff" offset="0"/><stop stop-color="#fff" stop-opacity="0" offset="1"/></linearGradient><linearGradient id="linearGradient3881" x1="23.156" x2="23.156" y1="37.015" y2="10" gradientTransform="matrix(.63158 0 0 .42308 -.28947 14.058)" gradientUnits="userSpaceOnUse"><stop stop-color="#2e3436" offset="0"/><stop stop-color="#3e3e3e" offset="1"/></linearGradient><linearGradient id="linearGradient3879" x1="24.986" x2="24.986" y1="37.924" y2="9" gradientTransform="matrix(.52109 0 0 .37931 2.4801 14.897)" gradientUnits="userSpaceOnUse"><stop stop-color="#6b6d68" offset="0"/><stop stop-color="#4d4e4b" offset=".58621"/><stop stop-color="#454643" offset="1"/></linearGradient><linearGradient id="linearGradient3862-2" x1="25.125" x2="25.125" y1="6" y2="43.642" gradientTransform="matrix(.66667 0 0 .58537 4.6731e-7 16.951)" gradientUnits="userSpaceOnUse"><stop stop-color="#f1f1f1" offset="0"/><stop stop-color="#ddd" stop-opacity=".93694" offset="1"/></linearGradient><linearGradient id="linearGradient3873-8" x1="24.375" x2="27.195" y1="-43.625" y2="-43.625" gradientTransform="matrix(.53333 0 0 .49645 14.467 -4.0851)" gradientUnits="userSpaceOnUse"><stop stop-color="#797979" offset="0"/><stop stop-color="#babdb6" offset="1"/></linearGradient><linearGradient id="linearGradient3875-4" x1="12.979" x2="12.979" y1="10.432" y2="42.633" gradientTransform="matrix(.43678 0 0 .30631 17.08 8.6487)" gradientUnits="userSpaceOnUse"><stop stop-color="#6b6d68" offset="0"/><stop stop-color="#4d4e4b" offset=".10345"/><stop stop-color="#454643" offset="1"/></linearGradient><linearGradient id="linearGradient3877-5" x1="14" x2="45.125" y1="-10.188" y2="-40.313" gradientTransform="matrix(.49275 0 0 .43478 15.188 -5.5652)" gradientUnits="userSpaceOnUse"><stop stop-color="#fff" offset="0"/><stop stop-color="#fff" stop-opacity="0" offset="1"/></linearGradient><linearGradient id="linearGradient3879-8" x1="24.986" x2="24.986" y1="37.924" y2="9" gradientTransform="matrix(.34739 0 0 .25287 17.653 9.931)" gradientUnits="userSpaceOnUse"><stop stop-color="#6b6d68" offset="0"/><stop stop-color="#4d4e4b" offset=".58621"/><stop stop-color="#454643" offset="1"/></linearGradient><linearGradient id="linearGradient3881-8" x1="23.156" x2="23.156" y1="37.015" y2="10" gradientTransform="matrix(.42105 0 0 .28205 15.807 9.3718)" gradientUnits="userSpaceOnUse"><stop stop-color="#2e3436" offset="0"/><stop stop-color="#3e3e3e" offset="1"/></linearGradient><linearGradient id="linearGradient3347" x1="18.385" x2="24.66" y1="3.629" y2="22.5" gradientTransform="matrix(.66667 0 0 .66667 0 16)" gradientUnits="userSpaceOnUse"><stop stop-color="#fff" stop-opacity="0" offset="0"/><stop stop-color="#fff" offset=".5"/><stop stop-color="#fff" stop-opacity="0" offset="1"/></linearGradient><linearGradient id="linearGradient3461-0" x1="25.125" x2="25.125" y1="6" y2="43.642" gradientTransform="matrix(.99938 0 0 .92618 .014916 1.2717)" gradientUnits="userSpaceOnUse"><stop stop-color="#f1f1f1" offset="0"/><stop stop-color="#ddd" stop-opacity=".93694" offset="1"/></linearGradient><linearGradient id="linearGradient3463-3" x1="18.385" x2="24.66" y1="3.629" y2="22.5" gradientTransform="matrix(1 0 0 1.0286 .0065688 .85715)" gradientUnits="userSpaceOnUse"><stop stop-color="#fff" stop-opacity="0" offset="0"/><stop stop-color="#fff" offset=".5"/><stop stop-color="#fff" stop-opacity="0" offset="1"/></linearGradient><linearGradient id="linearGradient3867-3" x1="302.86" x2="302.86" y1="366.65" y2="609.51" gradientTransform="matrix(3.5307 0 0 1.9697 -1897.5 -872.89)" gradientUnits="userSpaceOnUse"><stop stop-opacity="0" offset="0"/><stop offset=".5"/><stop stop-opacity="0" offset="1"/></linearGradient><linearGradient id="linearGradient4458-9-9-0" x1="12.979" x2="12.979" y1="10.432" y2="42.633" gradientTransform="matrix(.65517 0 0 .45946 2.6207 12.973)" gradientUnits="userSpaceOnUse"><stop stop-color="#6b6d68" offset="0"/><stop stop-color="#4d4e4b" offset=".10345"/><stop stop-color="#454643" offset="1"/></linearGradient><linearGradient id="linearGradient4456-2-2-5" x1="14" x2="45.125" y1="-10.188" y2="-40.313" gradientTransform="matrix(.73913 0 0 .65217 -.21739 -8.3478)" gradientUnits="userSpaceOnUse"><stop stop-color="#fff" offset="0"/><stop stop-color="#fff" stop-opacity="0" offset="1"/></linearGradient><linearGradient id="linearGradient4803-7-6-9" x1="24.986" x2="24.986" y1="37.924" y2="9" gradientTransform="matrix(.52109 0 0 .37931 3.4801 14.897)" gradientUnits="userSpaceOnUse"><stop stop-color="#6b6d68" offset="0"/><stop stop-color="#4d4e4b" offset=".58621"/><stop stop-color="#454643" offset="1"/></linearGradient></defs><g transform="translate(0,-16)" display="none"><g transform="matrix(-.017501 0 0 .016598 5.6277 42.562)" display="inline" opacity=".35371"><rect x="-2021.2" y="-154.33" width="1999.9" height="481.99" color="#000000" display="inline" fill="url(#linearGradient3856)" opacity=".40206"/><path d="m-23.829-154.33v481.98c142.87 0.90732 345.4-107.99 345.4-241.02s-159.44-240.96-345.4-240.96z" color="#000000" display="inline" fill="url(#radialGradient3858)" opacity=".40206"/><path d="m-2021.2-154.33v481.98c-141.82 0.90732-342.84-107.99-342.84-241.02s158.26-240.96 342.84-240.96z" color="#000000" display="inline" fill="url(#radialGradient3860)" opacity=".40206"/></g><rect x="2.5" y="7.5" width="42.88" height="36" rx="2.0714" ry="2.0714" color="#000000" display="inline" fill="#b8b8b8" stroke="#888a85" stroke-linecap="round"/><rect x="2.5" y="4.5" width="43" height="36" rx="2.0714" ry="2.0714" color="#000000" display="inline" fill="url(#linearGradient3862)" stroke="#888a85" stroke-linecap="round"/><rect x="3.5" y="5.5" width="41" height="34" rx="1.0108" ry="1.0108" color="#000000" display="inline" fill="none" opacity=".82533" stroke="#fff" stroke-linecap="round"/><rect x="3" y="5" width="42" height="35" rx="1.0108" ry="1.0108" color="#000000" display="inline" fill="url(#linearGradient3864)"/><g transform="matrix(-.012353 0 0 .01231 18.09 25.9)" display="inline" opacity=".35371"><rect x="-1126" y="-150.7" width="1295.2" height="478.36" color="#000000" display="inline" fill="url(#linearGradient3867)" opacity=".40206"/><path d="m169.2-154.33v481.98c133.94 0.90732 323.8-107.99 323.8-241.02s-149.46-240.96-323.8-240.96z" color="#000000" display="inline" fill="url(#radialGradient3869)" opacity=".40206"/><path d="m-1126-154.33v478.33c-133.94 0.90045-323.8-107.17-323.8-239.2s149.46-239.13 323.8-239.13z" color="#000000" display="inline" fill="url(#radialGradient3871)" opacity=".40206"/></g><g transform="translate(1 -2)" fill="#888a85"><rect transform="matrix(0,-1,-1,0,0,0)" x="-38" y="-8" width="6" height="1" color="#000000" display="inline"/><rect transform="matrix(0,-1,-1,0,0,0)" x="-37" y="-12" width="5" height="1" color="#000000" display="inline"/><rect transform="matrix(0,-1,-1,0,0,0)" x="-36" y="-16" width="4" height="1" color="#000000" display="inline"/><rect transform="matrix(0,-1,-1,0,0,0)" x="-35" y="-20" width="3" height="1" color="#000000" display="inline"/><rect transform="matrix(0,-1,-1,0,0,0)" x="-38" y="-24" width="6" height="1" color="#000000" display="inline"/><rect transform="matrix(0,-1,-1,0,0,0)" x="-35" y="-28" width="3" height="1" color="#000000" display="inline"/><rect transform="matrix(0,-1,-1,0,0,0)" x="-36" y="-32" width="4" height="1" color="#000000" display="inline"/><rect transform="matrix(0,-1,-1,0,0,0)" x="-37" y="-35" width="5" height="1" color="#000000" display="inline"/><rect transform="matrix(0,-1,-1,0,0,0)" x="-38" y="-39" width="6" height="1" color="#000000" display="inline"/></g><rect transform="rotate(90)" x="16.5" y="-41.5" width="4" height="35" rx="1.875" ry="1.875" color="#000000" display="inline" fill="url(#linearGradient3873)" stroke="#676a65" stroke-linecap="round"/><rect transform="rotate(90)" x="17.5" y="-40.5" width="2" height="33" rx=".8125" ry=".8125" color="#000000" display="inline" fill="none" opacity=".51092" stroke="#fff" stroke-linecap="round"/><rect transform="matrix(0,1,1,0,0,0)" x="8.5" y="15.5" width="19" height="17" rx="1.875" ry="1.875" color="#000000" display="inline" fill="url(#linearGradient3875)" stroke="#2e3436" stroke-linecap="round"/><rect transform="rotate(90)" x="9.5" y="-31.5" width="17" height="15" rx=".90273" ry=".90273" color="#000000" display="inline" fill="none" opacity=".66376" stroke="url(#linearGradient3877)" stroke-linecap="round"/><rect transform="matrix(0,1,1,0,0,0)" x="9.5" y="18.5" width="12" height="11" rx="1.875" ry="1.875" color="#000000" display="inline" fill="url(#linearGradient3879)" stroke="url(#linearGradient3881)" stroke-linecap="round"/><rect transform="rotate(90)" x="11" y="-25" width="9" height="2" rx=".67862" ry=".67862" color="#000000" display="inline" fill="#c00"/><rect transform="rotate(90)" x="10.5" y="-28.5" width="10" height="9" rx=".91964" ry=".91964" color="#000000" display="inline" fill="none" opacity=".31004" stroke="#fff" stroke-linecap="round"/><g transform="translate(2 -1)" fill="#fff" fill-opacity=".82432"><rect transform="matrix(0,-1,-1,0,0,0)" x="-38" y="-8" width="6" height="1" color="#000000" display="inline"/><rect transform="matrix(0,-1,-1,0,0,0)" x="-37" y="-12" width="5" height="1" color="#000000" display="inline"/><rect transform="matrix(0,-1,-1,0,0,0)" x="-36" y="-16" width="4" height="1" color="#000000" display="inline"/><rect transform="matrix(0,-1,-1,0,0,0)" x="-35" y="-20" width="3" height="1" color="#000000" display="inline"/><rect transform="matrix(0,-1,-1,0,0,0)" x="-38" y="-24" width="6" height="1" color="#000000" display="inline"/><rect transform="matrix(0,-1,-1,0,0,0)" x="-35" y="-28" width="3" height="1" color="#000000" display="inline"/><rect transform="matrix(0,-1,-1,0,0,0)" x="-36" y="-32" width="4" height="1" color="#000000" display="inline"/><rect transform="matrix(0,-1,-1,0,0,0)" x="-37" y="-35" width="5" height="1" color="#000000" display="inline"/><rect transform="matrix(0,-1,-1,0,0,0)" x="-38" y="-39" width="6" height="1" color="#000000" display="inline"/></g><g transform="matrix(.66667 0 0 .66667 0 16)" display="inline"><rect x="2.5" y="9.5" width="42.88" height="36" rx="2.0714" ry="2.0714" color="#000000" display="inline" fill="#b8b8b8" stroke="#666" stroke-linecap="round"/><rect x="2.5134" y="4.5134" width="42.973" height="37.973" rx="2.0701" ry="2.185" color="#000000" display="inline" fill="url(#linearGradient3461-0)" stroke="#666" stroke-linecap="round" stroke-width="1.0267"/><rect x="4.4809" y="6.4809" width="39.038" height="33.038" rx=".9624" ry=".98217" color="#000000" display="inline" fill="none" opacity=".82533" stroke="#fff" stroke-linecap="round" stroke-width=".96188"/><rect x="3.0066" y="6" width="42" height="36" rx="1.0108" ry="1.0396" color="#000000" display="inline" fill="url(#linearGradient3463-3)"/><g transform="matrix(-.012353 0 0 .01231 18.09 25.9)" display="inline" opacity=".35371"><rect x="-1126" y="-150.7" width="1295.2" height="478.36" color="#000000" display="inline" fill="url(#linearGradient3867-3)" opacity=".40206"/><path d="m169.2-154.33v481.98c133.94 0.90732 323.8-107.99 323.8-241.02s-149.46-240.96-323.8-240.96z" color="#000000" display="inline" fill="url(#radialGradient3869)" opacity=".40206"/><path d="m-1126-154.33v478.33c-133.94 0.90045-323.8-107.17-323.8-239.2s149.46-239.13 323.8-239.13z" color="#000000" display="inline" fill="url(#radialGradient3871)" opacity=".40206"/></g><rect transform="rotate(90)" x="17" y="-41.5" width="4" height="35" rx="1.875" ry="1.875" color="#000000" display="inline" fill="#999" stroke="#4d4d4d" stroke-linecap="round"/><rect transform="matrix(0,1,1,0,0,0)" x="9.5" y="15.5" width="19" height="17" rx="1.875" ry="1.875" color="#000000" display="inline" fill="url(#linearGradient4458-9-9-0)" stroke="#1a1a1a" stroke-linecap="round"/><rect transform="rotate(90)" x="10.5" y="-31.5" width="17" height="15" rx=".90273" ry=".90273" color="#000000" display="inline" fill="none" opacity=".75" stroke="url(#linearGradient4456-2-2-5)" stroke-linecap="round"/><rect transform="matrix(0,1,1,0,0,0)" x="10.519" y="18.519" width="12.962" height="10.962" rx="2.0254" ry="1.8686" color="#000000" display="inline" fill="url(#linearGradient4803-7-6-9)" stroke="#666" stroke-linecap="round" stroke-width="1.0376"/><rect transform="rotate(90)" x="12.5" y="-25" width="9" height="2" rx=".67862" ry=".67862" color="#000000" display="inline" fill="#f00" stroke="#f00"/><rect transform="rotate(90)" x="11.599" y="-28.485" width="10.802" height="8.9692" rx=".99341" ry=".9165" color="#000000" display="inline" fill="none" opacity=".75" stroke="#ececec" stroke-linecap="round" stroke-width="1.0374"/><g transform="translate(1.53e-5,1.3e-6)" display="inline"><g id="g4739-9-8" transform="matrix(.75 0 0 1 14.239 3)" fill="#666"><g fill="#666"><rect transform="matrix(0,-1,-1,0,0,0)" x="-36" y="-9" width="6" height="2" color="#000000" display="inline" fill="#666"/></g></g><use transform="translate(7.8971)" width="48" height="48" display="inline" fill="#666666" xlink:href="#g4739-9-8"/><use transform="matrix(1 0 0 .66667 14.598 11)" width="48" height="48" display="inline" fill="#666666" stroke="#cccccc" xlink:href="#g4739-9-8"/><use transform="translate(19.73)" width="48" height="48" display="inline" fill="#666666" xlink:href="#g4739-9-8"/><g transform="matrix(.75 0 0 1 2.126 3)" display="inline" fill="#666"><g fill="#666"><rect transform="matrix(0,-1,-1,0,0,0)" x="-36" y="-9" width="6" height="2" color="#000000" display="inline" fill="#666"/></g></g><use transform="matrix(1 0 0 .66667 -7.4021 11)" width="48" height="48" display="inline" fill="#666666" stroke="#cccccc" xlink:href="#g4739-9-8"/></g></g></g><g transform="translate(0,-16)"><g transform="matrix(-.011667 0 0 .011065 3.7518 44.374)" opacity=".35371"><rect x="-2021.2" y="-154.33" width="1999.9" height="481.99" color="#000000" fill="url(#linearGradient3856)" opacity=".40206"/><path d="m-23.829-154.33v481.98c142.87 0.90732 345.4-107.99 345.4-241.02s-159.44-240.96-345.4-240.96z" color="#000000" fill="url(#radialGradient3858)" opacity=".40206"/><path d="m-2021.2-154.33v481.98c-141.82 0.90732-342.84-107.99-342.84-241.02s158.26-240.96 342.84-240.96z" color="#000000" fill="url(#radialGradient3860)" opacity=".40206"/></g><rect x="1.6667" y="21" width="28.586" height="24" rx="1.381" ry="1.381" color="#000000" fill="#b8b8b8" stroke="#888a85" stroke-linecap="round" stroke-width=".66667"/><rect x="1.6667" y="19" width="28.667" height="24" rx="1.381" ry="1.381" color="#000000" fill="url(#linearGradient3862-2)" stroke="#888a85" stroke-linecap="round" stroke-width=".66667"/><rect x="2.3333" y="19.667" width="27.333" height="22.667" rx=".67384" ry=".67384" color="#000000" fill="none" opacity=".82533" stroke="#fff" stroke-linecap="round" stroke-width=".66667"/><rect x="2" y="19.333" width="28" height="23.333" rx=".67384" ry=".67384" color="#000000" fill="url(#linearGradient3347)"/><g transform="matrix(-.0082356 0 0 .0082067 12.06 33.267)" opacity=".35371"><rect x="-1126" y="-150.7" width="1295.2" height="478.36" color="#000000" fill="url(#linearGradient3867)" opacity=".40206"/><path d="m169.2-154.33v481.98c133.94 0.90732 323.8-107.99 323.8-241.02s-149.46-240.96-323.8-240.96z" color="#000000" fill="url(#radialGradient3869)" opacity=".40206"/><path d="m-1126-154.33v478.33c-133.94 0.90045-323.8-107.17-323.8-239.2s149.46-239.13 323.8-239.13z" color="#000000" fill="url(#radialGradient3871)" opacity=".40206"/></g><rect transform="matrix(0,-1,-1,0,0,0)" x="-40.5" y="-8.5" width="4" height="1" color="#000000" fill="#fff" fill-opacity=".82432"/><rect transform="matrix(0,-1,-1,0,0,0)" x="-39.167" y="-11.5" width="2.767" height="1" color="#000000" fill="#fff" fill-opacity=".82432"/><rect transform="matrix(0,-1,-1,0,0,0)" x="-38.5" y="-14.5" width="2" height="1" color="#000000" fill="#fff" fill-opacity=".82432"/><rect transform="matrix(0,-1,-1,0,0,0)" x="-40.5" y="-17.5" width="4" height="1" color="#000000" fill="#fff" fill-opacity=".82432"/><rect transform="matrix(0,-1,-1,0,0,0)" x="-38.5" y="-20.5" width="2" height="1" color="#000000" fill="#fff" fill-opacity=".82432"/><rect transform="matrix(0,-1,-1,0,0,0)" x="-39.167" y="-23.5" width="2.6667" height="1" color="#000000" fill="#fff" fill-opacity=".82432"/><rect transform="matrix(0,-1,-1,0,0,0)" x="-40.5" y="-26.5" width="4" height="1" color="#000000" fill="#fff" fill-opacity=".82432"/><g fill="#888a85"><rect transform="matrix(0,-1,-1,0,0,0)" x="-40" y="-8" width="4" height="1" color="#000000"/><rect transform="matrix(0,-1,-1,0,0,0)" x="-38.767" y="-11" width="2.767" height="1" color="#000000"/><rect transform="matrix(0,-1,-1,0,0,0)" x="-38" y="-14" width="2" height="1" color="#000000"/><rect transform="matrix(0,-1,-1,0,0,0)" x="-40" y="-17" width="4" height="1" color="#000000"/><rect transform="matrix(0,-1,-1,0,0,0)" x="-38" y="-20" width="2" height="1" color="#000000"/><rect transform="matrix(0,-1,-1,0,0,0)" x="-38.667" y="-23" width="2.6667" height="1" color="#000000"/><rect transform="matrix(0,-1,-1,0,0,0)" x="-40" y="-26" width="4" height="1" color="#000000"/></g><rect transform="rotate(90)" x="27" y="-27.667" width="2.6667" height="23.333" rx="1.25" ry="1.25" color="#000000" fill="url(#linearGradient3873-8)" stroke="#676a65" stroke-linecap="round" stroke-width=".66667"/><rect transform="rotate(90)" x="27.667" y="-27" width="1.3333" height="22" rx=".54167" ry=".54167" color="#000000" fill="none" opacity=".51092" stroke="#fff" stroke-linecap="round" stroke-width=".66667"/><rect transform="matrix(0,1,1,0,0,0)" x="21.667" y="10.333" width="12.667" height="11.333" rx="1.25" ry="1.25" color="#000000" fill="url(#linearGradient3875-4)" stroke="#2e3436" stroke-linecap="round" stroke-width=".66667"/><rect transform="rotate(90)" x="22.333" y="-21" width="11.333" height="10" rx=".60182" ry=".60182" color="#000000" fill="none" opacity=".66376" stroke="url(#linearGradient3877-5)" stroke-linecap="round" stroke-width=".66667"/><rect transform="matrix(0,1,1,0,0,0)" x="22.333" y="12.333" width="8" height="7.3333" rx="1.25" ry="1.25" color="#000000" fill="url(#linearGradient3879-8)" stroke="url(#linearGradient3881-8)" stroke-linecap="round" stroke-width=".66667"/><rect transform="rotate(90)" x="23.333" y="-16.667" width="6" height="1.3333" rx=".45241" ry=".45241" color="#000000" fill="#c00"/><rect transform="rotate(90)" x="23" y="-19" width="6.6667" height="6" rx=".6131" ry=".6131" color="#000000" fill="none" opacity=".31004" stroke="#fff" stroke-linecap="round" stroke-width=".66667"/></g></svg>
